{
DisplayStrings = (
""
);
copyright = "Copyright (c) 2011 by Pablo Impallari. www.impallari.com Igino Marini. www.ikern.com. All rights reserved.";
customParameters = (
{
name = description;
value = "Copyright (c) 2011 by Pablo Impallari. www.impallari.com Copyright (c) 2011 by Igino Marini. www.ikern.com All rights reserved.";
},
{
name = license;
value = "Copyright (c) 2010, Pablo Impallari (www.impallari.com|impallari@gmail.com),\012with Reserved Font Name Cabin.\012This Font Software is licensed under the SIL Open Font License, Version 1.1.\012This license is available with a FAQ at: http://scripts.sil.org/OFL";
},
{
name = licenseURL;
value = "http://scripts.sil.org/OFL";
},
{
name = vendorID;
value = PYRS;
},
{
name = glyphOrder;
value = (
    ".notdef",
    space,
    exclam,
    quotedbl,
    numbersign,
    dollar,
    percent,
    ampersand,
    quotesingle,
    parenleft,
    parenright,
    asterisk,
    plus,
    comma,
    hyphen,
    period,
    slash,
    zero,
    one,
    two,
    three,
    four,
    five,
    six,
    seven,
    eight,
    nine,
    colon,
    semicolon,
    less,
    equal,
    greater,
    question,
    at,
    A,
    B,
    C,
    D,
    E,
    F,
    G,
    H,
    I,
    J,
    K,
    L,
    M,
    N,
    O,
    P,
    Q,
    R,
    S,
    T,
    U,
    V,
    W,
    X,
    Y,
    Z,
    bracketleft,
    backslash,
    bracketright,
    asciicircum,
    underscore,
    grave,
    a,
    b,
    c,
    d,
    e,
    f,
    g,
    h,
    i,
    j,
    k,
    l,
    m,
    n,
    o,
    p,
    q,
    r,
    s,
    t,
    u,
    v,
    w,
    x,
    y,
    z,
    braceleft,
    bar,
    braceright,
    asciitilde,
    uni00A0,
    exclamdown,
    cent,
    sterling,
    currency,
    yen,
    brokenbar,
    section,
    dieresis,
    copyright,
    ordfeminine,
    guillemotleft,
    logicalnot,
    uni00AD,
    registered,
    degree,
    plusminus,
    uni00B2,
    uni00B3,
    acute,
    uni00B5,
    paragraph,

glyphs = (
{
glyphname = .notdef;
layers = (
{
layerId = "1510CF8D-377E-4EE5-87E7-F8F48863CF31";
name = Regular;
paths = (
{
closed = 1;
nodes = (
"162 250 LINE",
"72 250 LINE",
"72 360 LINE",
"162 360 LINE"
);
}
);
width = 250;
}
);
note = .notdef;
},
{
glyphname = exclam;
layers = (
{
layerId = "1510CF8D-377E-4EE5-87E7-F8F48863CF31";
name = Regular;
paths = (
{
closed = 1;
nodes = (
"183 750 LINE",
"153 200 LINE",
"89 200 LINE",
"59 750 LINE"
);
},
{
closed = 1;
nodes = (
"163 0 LINE",
"79 0 LINE",
"79 86 LINE",
"163 86 LINE"
);
}
);
width = 242;
}
);
leftKerningGroup = exclam;
note = exclam;
unicode = 0021;
},
{
glyphname = quotedbl;
layers = (
{
layerId = "1510CF8D-377E-4EE5-87E7-F8F48863CF31";
name = Regular;
paths = (
{
closed = 1;
nodes = (
"362 750 LINE",
"342 450 LINE",
"290 450 LINE",
"270 750 LINE"
);
},
{
closed = 1;
nodes = (
"134 750 LINE",
"114 450 LINE",
"60 450 LINE",
"40 750 LINE"
);
}
);
width = 402;
}
);
leftKerningGroup = quotedbl;
note = quotedbl;
unicode = 0022;
},
{
glyphname = numbersign;
layers = (
{
layerId = "1510CF8D-377E-4EE5-87E7-F8F48863CF31";
name = Regular;
paths = (
{
closed = 1;
nodes = (
"672 507 LINE",
"643 422 LINE",
"527 422 LINE",
"482 307 LINE",
"610 307 LINE",
"569 216 LINE",
"447 216 LINE",
"361 -11 LINE",
"280 -11 LINE",
"367 216 LINE",
"234 216 LINE",
"147 -11 LINE",
"67 -11 LINE",
"153 216 LINE",
"33 216 LINE",
"73 307 LINE",
"188 307 LINE",
"233 422 LINE",
"107 422 LINE",
"136 507 LINE",
"265 507 LINE",
"339 700 LINE",
"420 700 LINE",
"345 507 LINE",
"478 507 LINE",
"553 700 LINE",
"633 700 LINE",
"559 507 LINE"
);
},
{
closed = 1;
nodes = (
"446 422 LINE",
"314 422 LINE",
"269 307 LINE",
"401 307 LINE"
);
}
);
width = 704;
}
);
note = numbersign;
unicode = 0023;
},
{
glyphname = dollar;
layers = (
{
layerId = "1510CF8D-377E-4EE5-87E7-F8F48863CF31";
name = Regular;
paths = (
{
closed = 1;
nodes = (
"300 -32 LINE",
"211 -32 LINE",
"228 81 LINE",
"150 85 OFFCURVE",
"91 98 OFFCURVE",
"52 119 CURVE",
"64 228 LINE",
"111 189 OFFCURVE",
"173 170 OFFCURVE",
"250 170 CURVE SMOOTH",
"323 170 OFFCURVE",
"360 191 OFFCURVE",
"360 233 CURVE SMOOTH",
"360 269 OFFCURVE",
"325 296 OFFCURVE",
"278 311 CURVE SMOOTH",
"230 326 OFFCURVE",
"172 345 OFFCURVE",
"125 365 CURVE SMOOTH",
"77 385 OFFCURVE",
"42 424 OFFCURVE",
"42 476 CURVE SMOOTH",
"42 552 OFFCURVE",
"97 619 OFFCURVE",
"228 631 CURVE",
"211 748 LINE",
"301 748 LINE",
"285 631 LINE",
"356 627 OFFCURVE",
"410 615 OFFCURVE",
"446 594 CURVE",
"437 498 LINE",
"369 530 OFFCURVE",
"313 546 OFFCURVE",
"270 546 CURVE SMOOTH",
"189 546 OFFCURVE",
"149 527 OFFCURVE",
"149 488 CURVE SMOOTH",
"149 455 OFFCURVE",
"186 430 OFFCURVE",
"235 418 CURVE SMOOTH",
"283 405 OFFCURVE",
"344 386 OFFCURVE",
"393 364 CURVE SMOOTH",
"441 342 OFFCURVE",
"478 295 OFFCURVE",
"478 234 CURVE SMOOTH",
"478 202 OFFCURVE",
"469 175 OFFCURVE",
"445 144 CURVE SMOOTH",
"420 112 OFFCURVE",
"364 89 OFFCURVE",
"285 82 CURVE"
);
}
);
width = 514;
}
);
note = dollar;
unicode = 0024;
},
{
glyphname = percent;
layers = (
{
layerId = "1510CF8D-377E-4EE5-87E7-F8F48863CF31";
name = Regular;
paths = (
{
closed = 1;
nodes = (
"564 -13 OFFCURVE",
"505 56 OFFCURVE",
"505 171 CURVE SMOOTH",
"505 288 OFFCURVE",
"573 362 OFFCURVE",
"658 362 CURVE SMOOTH",
"745 362 OFFCURVE",
"806 292 OFFCURVE",
"806 179 CURVE SMOOTH",
"806 59 OFFCURVE",
"745 -13 OFFCURVE",
"653 -13 CURVE SMOOTH"
);
},
{
closed = 1;
nodes = (
"657 700 LINE",
"237 -12 LINE",
"162 -12 LINE",
"583 700 LINE"
);
},
{
closed = 1;
nodes = (
"94 333 OFFCURVE",
"35 400 OFFCURVE",
"35 515 CURVE SMOOTH",
"35 632 OFFCURVE",
"101 705 OFFCURVE",
"186 705 CURVE SMOOTH",
"271 705 OFFCURVE",
"332 637 OFFCURVE",
"332 524 CURVE SMOOTH",
"332 404 OFFCURVE",
"270 333 OFFCURVE",
"181 333 CURVE SMOOTH"
);
},
{
closed = 1;
nodes = (
"705 303 OFFCURVE",
"682 315 OFFCURVE",
"654 315 CURVE SMOOTH",
"598 315 OFFCURVE",
"555 259 OFFCURVE",
"555 171 CURVE SMOOTH",
"555 86 OFFCURVE",
"592 36 OFFCURVE",
"651 36 CURVE SMOOTH",
"714 36 OFFCURVE",
"751 88 OFFCURVE",
"751 179 CURVE SMOOTH",
"751 220 OFFCURVE",
"742 253 OFFCURVE",
"724 278 CURVE SMOOTH"
);
},
{
closed = 1;
nodes = (
"133 654 OFFCURVE",
"91 598 OFFCURVE",
"91 515 CURVE SMOOTH",
"91 438 OFFCURVE",
"131 385 OFFCURVE",
"182 385 CURVE SMOOTH",
"237 385 OFFCURVE",
"277 441 OFFCURVE",
"277 524 CURVE SMOOTH",
"277 600 OFFCURVE",
"234 654 OFFCURVE",
"185 654 CURVE SMOOTH"
);
}
);
width = 840;
}
);
note = percent;
unicode = 0025;
},
{
glyphname = ampersand;
layers = (
{
layerId = "1510CF8D-377E-4EE5-87E7-F8F48863CF31";
name = Regular;
paths = (
{
closed = 1;
nodes = (
"593 0 LINE",
"501 0 LINE",
"457 46 LINE",
"398 -5 OFFCURVE",
"346 -23 OFFCURVE",
"269 -23 CURVE SMOOTH",
"110 -23 OFFCURVE",
"36 53 OFFCURVE",
"36 162 CURVE SMOOTH",
"36 239 OFFCURVE",
"78 307 OFFCURVE",
"162 366 CURVE",
"112 427 OFFCURVE",
"87 484 OFFCURVE",
"87 536 CURVE SMOOTH",
"87 637 OFFCURVE",
"171 703 OFFCURVE",
"282 703 CURVE SMOOTH",
"377 703 OFFCURVE",
"425 652 OFFCURVE",
"425 577 CURVE SMOOTH",
"425 498 OFFCURVE",
"370 424 OFFCURVE",
"261 356 CURVE",
"451 161 LINE",
"472 188 OFFCURVE",
"485 251 OFFCURVE",
"490 351 CURVE",
"571 351 LINE",
"568 247 OFFCURVE",
"546 163 OFFCURVE",
"506 100 CURVE"
);
},
{
closed = 1;
nodes = (
"213 634 OFFCURVE",
"168 598 OFFCURVE",
"168 534 CURVE SMOOTH",
"168 493 OFFCURVE",
"186 451 OFFCURVE",
"223 406 CURVE",
"250 427 LINE",
"276 447 LINE",
"284 454 OFFCURVE",
"310 475 OFFCURVE",
"316 483 CURVE SMOOTH",
"319 487 OFFCURVE",
"323 493 OFFCURVE",
"329 500 CURVE SMOOTH",
"341 514 OFFCURVE",
"343 522 OFFCURVE",
"347 537 CURVE",
"348 544 OFFCURVE",
"349 552 OFFCURVE",
"349 559 CURVE SMOOTH",
"349 607 OFFCURVE",
"318 634 OFFCURVE",
"270 634 CURVE SMOOTH"
);
},
{
closed = 1;
nodes = (
"204 313 LINE",
"150 275 OFFCURVE",
"123 227 OFFCURVE",
"123 169 CURVE SMOOTH",
"123 96 OFFCURVE",
"174 45 OFFCURVE",
"271 45 CURVE SMOOTH",
"330 45 OFFCURVE",
"377 65 OFFCURVE",
"412 105 CURVE"
);
}
);
width = 611;
}
);
leftKerningGroup = ampersand;
note = ampersand;
rightKerningGroup = ampersand;
unicode = 0026;
},
{
glyphname = quotesingle;
layers = (
{
layerId = "1510CF8D-377E-4EE5-87E7-F8F48863CF31";
name = Regular;
paths = (
{
closed = 1;
nodes = (
"141 750 LINE",
"123 450 LINE",
"59 450 LINE",
"41 750 LINE"
);
}
);
width = 182;
}
);
leftKerningGroup = quotedbl;
note = quotesingle;
rightKerningGroup = quotesingle;
unicode = 0027;
},
{
glyphname = parenleft;
layers = (
{
layerId = "1510CF8D-377E-4EE5-87E7-F8F48863CF31";
name = Regular;
paths = (
{
closed = 1;
nodes = (
"158 -136 LINE",
"81 -19 OFFCURVE",
"42 107 OFFCURVE",
"42 307 CURVE SMOOTH",
"42 507 OFFCURVE",
"81 633 OFFCURVE",
"158 750 CURVE",
"237 750 LINE",
"155 617 OFFCURVE",
"114 469 OFFCURVE",
"114 307 CURVE SMOOTH",
"114 145 OFFCURVE",
"155 -3 OFFCURVE",
"237 -136 CURVE"
);
}
);
width = 261;
}
);
note = parenleft;
rightKerningGroup = parenleft;
unicode = 0028;
},
{
glyphname = parenright;
layers = (
{
layerId = "1510CF8D-377E-4EE5-87E7-F8F48863CF31";
name = Regular;
paths = (
{
closed = 1;
nodes = (
"24 -136 LINE",
"106 -3 OFFCURVE",
"147 145 OFFCURVE",
"147 307 CURVE SMOOTH",
"147 469 OFFCURVE",
"106 617 OFFCURVE",
"24 750 CURVE",
"103 750 LINE",
"180 633 OFFCURVE",
"219 507 OFFCURVE",
"219 307 CURVE SMOOTH",
"219 107 OFFCURVE",
"180 -19 OFFCURVE",
"103 -136 CURVE"
);
}
);
width = 261;
}
);
leftKerningGroup = parenright;
note = parenright;
rightKerningGroup = quotesingle;
unicode = 0029;
},
{
glyphname = asterisk;
layers = (
{
layerId = "1510CF8D-377E-4EE5-87E7-F8F48863CF31";
name = Regular;
paths = (
{
closed = 1;
nodes = (
"315 427 LINE",
"213 560 LINE",
"113 424 LINE",
"81 456 LINE",
"189 573 LINE",
"33 638 LINE",
"56 679 LINE",
"204 593 LINE",
"191 749 LINE",
"237 749 LINE",
"221 593 LINE",
"370 679 LINE",
"393 637 LINE",
"235 574 LINE",
"348 459 LINE"
);
}
);
width = 426;
}
);
leftKerningGroup = asterisk;
note = asterisk;
rightKerningGroup = quotesingle;
unicode = 002A;
},
{
glyphname = plus;
layers = (
{
layerId = "1510CF8D-377E-4EE5-87E7-F8F48863CF31";
name = Regular;
paths = (
{
closed = 1;
nodes = (
"416 238 LINE",
"271 238 LINE",
"271 102 LINE",
"191 102 LINE",
"191 238 LINE",
"46 238 LINE",
"46 324 LINE",
"191 324 LINE",
"191 452 LINE",
"271 452 LINE",
"271 324 LINE",
"416 324 LINE"
);
}
);
width = 463;
}
);
note = plus;
rightKerningGroup = quotesingle;
unicode = 002B;
},
{
glyphname = comma;
layers = (
{
layerId = "1510CF8D-377E-4EE5-87E7-F8F48863CF31";
name = Regular;
paths = (
{
closed = 1;
nodes = (
"158 0 LINE",
"80 -109 LINE",
"57 -96 LINE",
"92 -9 LINE",
"58 0 LINE",
"58 86 LINE",
"158 86 LINE"
);
}
);
width = 216;
}
);
leftKerningGroup = comma;
note = comma;
rightKerningGroup = comma;
unicode = 002C;
},
{
glyphname = hyphen;
layers = (
{
layerId = "1510CF8D-377E-4EE5-87E7-F8F48863CF31";
name = Regular;
paths = (
{
closed = 1;
nodes = (
"367 238 LINE",
"57 238 LINE",
"57 324 LINE",
"367 324 LINE"
);
}
);
width = 424;
}
);
leftKerningGroup = hyphen;
note = hyphen;
rightKerningGroup = hyphen;
unicode = 002D;
},
{
glyphname = period;
layers = (
{
layerId = "1510CF8D-377E-4EE5-87E7-F8F48863CF31";
name = Regular;
paths = (
{
closed = 1;
nodes = (
"147 0 LINE",
"57 0 LINE",
"57 86 LINE",
"147 86 LINE"
);
}
);
width = 204;
}
);
leftKerningGroup = period;
note = period;
rightKerningGroup = period;
unicode = 002E;
},
{
glyphname = slash;
layers = (
{
layerId = "1510CF8D-377E-4EE5-87E7-F8F48863CF31";
name = Regular;
paths = (
{
closed = 1;
nodes = (
"497 700 LINE",
"119 -85 LINE",
"19 -85 LINE",
"397 700 LINE"
);
}
);
width = 532;
}
);
leftKerningGroup = slash;
note = slash;
rightKerningGroup = slash;
unicode = 002F;
},
{
glyphname = zero;
layers = (
{
layerId = "1510CF8D-377E-4EE5-87E7-F8F48863CF31";
name = Regular;
paths = (
{
closed = 1;
nodes = (
"179 -14 OFFCURVE",
"63 125 OFFCURVE",
"63 338 CURVE SMOOTH",
"63 561 OFFCURVE",
"192 714 OFFCURVE",
"363 714 CURVE SMOOTH",
"530 714 OFFCURVE",
"651 569 OFFCURVE",
"651 357 CURVE SMOOTH",
"651 132 OFFCURVE",
"531 -14 OFFCURVE",
"351 -14 CURVE SMOOTH"
);
},
{
closed = 1;
nodes = (
"250 628 OFFCURVE",
"164 522 OFFCURVE",
"164 338 CURVE SMOOTH",
"164 163 OFFCURVE",
"238 72 OFFCURVE",
"353 72 CURVE SMOOTH",
"474 72 OFFCURVE",
"552 169 OFFCURVE",
"552 357 CURVE SMOOTH",
"552 529 OFFCURVE",
"470 628 OFFCURVE",
"361 628 CURVE SMOOTH"
);
}
);
width = 714;
}
);
note = zero;
rightKerningGroup = quotesingle;
unicode = 0030;
},
{
glyphname = one;
layers = (
{
layerId = "1510CF8D-377E-4EE5-87E7-F8F48863CF31";
name = Regular;
paths = (
{
closed = 1;
nodes = (
"254 0 LINE",
"154 0 LINE",
"154 563 LINE",
"117 532 OFFCURVE",
"82 512 OFFCURVE",
"50 502 CURVE",
"34 591 LINE",
"90 610 OFFCURVE",
"152 655 OFFCURVE",
"181 700 CURVE",
"254 700 LINE"
);
}
);
width = 355;
}
);
leftKerningGroup = one;
note = one;
rightKerningGroup = quotesingle;
unicode = 0031;
},
{
glyphname = two;
layers = (
{
layerId = "1510CF8D-377E-4EE5-87E7-F8F48863CF31";
name = Regular;
paths = (
{
closed = 1;
nodes = (
"470 0 LINE",
"56 0 LINE",
"176 171 OFFCURVE",
"255 292 OFFCURVE",
"292 361 CURVE SMOOTH",
"329 430 OFFCURVE",
"347 480 OFFCURVE",
"347 512 CURVE SMOOTH",
"347 584 OFFCURVE",
"300 625 OFFCURVE",
"225 625 CURVE SMOOTH",
"164 625 OFFCURVE",
"109 594 OFFCURVE",
"62 532 CURVE",
"50 617 LINE",
"70 654 OFFCURVE",
"144 714 OFFCURVE",
"249 714 CURVE SMOOTH",
"320 714 OFFCURVE",
"373 690 OFFCURVE",
"402 651 CURVE SMOOTH",
"430 612 OFFCURVE",
"443 569 OFFCURVE",
"443 522 CURVE SMOOTH",
"443 475 OFFCURVE",
"427 419 OFFCURVE",
"394 352 CURVE SMOOTH",
"361 285 OFFCURVE",
"306 197 OFFCURVE",
"228 86 CURVE",
"470 86 LINE"
);
}
);
width = 524;
}
);
leftKerningGroup = two;
note = two;
rightKerningGroup = quotesingle;
unicode = 0032;
},
{
glyphname = three;
layers = (
{
layerId = "1510CF8D-377E-4EE5-87E7-F8F48863CF31";
name = Regular;
paths = (
{
closed = 1;
nodes = (
"149 -14 OFFCURVE",
"60 19 OFFCURVE",
"40 39 CURVE",
"63 127 LINE",
"135 88 OFFCURVE",
"172 72 OFFCURVE",
"231 72 CURVE SMOOTH",
"312 72 OFFCURVE",
"380 112 OFFCURVE",
"380 213 CURVE SMOOTH",
"380 292 OFFCURVE",
"339 343 OFFCURVE",
"214 343 CURVE SMOOTH",
"141 343 LINE",
"151 419 LINE",
"188 419 LINE SMOOTH",
"309 419 OFFCURVE",
"355 458 OFFCURVE",
"355 534 CURVE SMOOTH",
"355 597 OFFCURVE",
"315 628 OFFCURVE",
"236 628 CURVE SMOOTH",
"179 628 OFFCURVE",
"134 614 OFFCURVE",
"101 587 CURVE",
"84 668 LINE",
"105 689 OFFCURVE",
"163 714 OFFCURVE",
"246 714 CURVE SMOOTH",
"313 714 OFFCURVE",
"366 697 OFFCURVE",
"397 673 CURVE SMOOTH",
"428 649 OFFCURVE",
"447 614 OFFCURVE",
"454 583 CURVE",
"457 567 OFFCURVE",
"459 551 OFFCURVE",
"459 534 CURVE SMOOTH",
"459 478 OFFCURVE",
"436 435 OFFCURVE",
"368 388 CURVE",
"445 362 OFFCURVE",
"484 304 OFFCURVE",
"484 214 CURVE SMOOTH",
"484 69 OFFCURVE",
"370 -14 OFFCURVE",
"230 -14 CURVE SMOOTH"
);
}
);
width = 547;
}
);
note = three;
rightKerningGroup = quotesingle;
unicode = 0033;
},
{
glyphname = four;
layers = (
{
layerId = "1510CF8D-377E-4EE5-87E7-F8F48863CF31";
name = Regular;
paths = (
{
closed = 1;
nodes = (
"500 190 LINE",
"415 190 LINE",
"415 0 LINE",
"315 0 LINE",
"315 190 LINE",
"14 190 LINE",
"336 700 LINE",
"415 700 LINE",
"415 276 LINE",
"500 276 LINE"
);
},
{
closed = 1;
nodes = (
"315 276 LINE",
"315 530 LINE",
"162 276 LINE"
);
}
);
width = 559;
}
);
leftKerningGroup = four;
note = four;
rightKerningGroup = four;
unicode = 0034;
},
{
glyphname = five;
layers = (
{
layerId = "1510CF8D-377E-4EE5-87E7-F8F48863CF31";
name = Regular;
paths = (
{
closed = 1;
nodes = (
"156 -14 OFFCURVE",
"67 8 OFFCURVE",
"51 25 CURVE",
"74 114 LINE",
"122 86 OFFCURVE",
"170 72 OFFCURVE",
"219 72 CURVE SMOOTH",
"311 72 OFFCURVE",
"385 140 OFFCURVE",
"385 232 CURVE SMOOTH",
"385 316 OFFCURVE",
"323 355 OFFCURVE",
"174 355 CURVE SMOOTH",
"89 355 LINE",
"131 700 LINE",
"449 700 LINE",
"440 614 LINE",
"207 614 LINE",
"187 440 LINE",
"403 439 OFFCURVE",
"489 376 OFFCURVE",
"489 236 CURVE SMOOTH",
"489 88 OFFCURVE",
"365 -14 OFFCURVE",
"220 -14 CURVE SMOOTH"
);
}
);
width = 541;
}
);
note = five;
rightKerningGroup = quotesingle;
unicode = 0035;
},
{
glyphname = six;
layers = (
{
layerId = "1510CF8D-377E-4EE5-87E7-F8F48863CF31";
name = Regular;
paths = (
{
closed = 1;
nodes = (
"149 -14 OFFCURVE",
"62 64 OFFCURVE",
"62 240 CURVE SMOOTH",
"62 365 OFFCURVE",
"109 490 OFFCURVE",
"170 569 CURVE SMOOTH",
"231 648 OFFCURVE",
"305 699 OFFCURVE",
"362 700 CURVE",
"427 662 LINE",
"380 641 OFFCURVE",
"354 628 OFFCURVE",
"310 593 CURVE SMOOTH",
"266 558 OFFCURVE",
"238 523 OFFCURVE",
"208 461 CURVE SMOOTH",
"193 430 OFFCURVE",
"180 395 OFFCURVE",
"171 357 CURVE",
"202 399 OFFCURVE",
"249 420 OFFCURVE",
"312 420 CURVE SMOOTH",
"433 420 OFFCURVE",
"524 349 OFFCURVE",
"524 218 CURVE SMOOTH",
"524 86 OFFCURVE",
"426 -14 OFFCURVE",
"281 -14 CURVE SMOOTH"
);
},
{
closed = 1;
nodes = (
"224 339 OFFCURVE",
"162 282 OFFCURVE",
"162 201 CURVE SMOOTH",
"162 114 OFFCURVE",
"220 69 OFFCURVE",
"293 69 CURVE SMOOTH",
"378 69 OFFCURVE",
"427 135 OFFCURVE",
"427 214 CURVE SMOOTH",
"427 281 OFFCURVE",
"392 339 OFFCURVE",
"303 339 CURVE SMOOTH"
);
}
);
width = 568;
}
);
leftKerningGroup = six;
note = six;
rightKerningGroup = quotesingle;
unicode = 0036;
},
{
glyphname = seven;
layers = (
{
layerId = "1510CF8D-377E-4EE5-87E7-F8F48863CF31";
name = Regular;
paths = (
{
closed = 1;
nodes = (
"492 700 LINE",
"189 0 LINE",
"89 0 LINE",
"354 614 LINE",
"39 614 LINE",
"39 700 LINE"
);
}
);
width = 502;
}
);
leftKerningGroup = seven;
note = seven;
rightKerningGroup = seven;
unicode = 0037;
},
{
glyphname = eight;
layers = (
{
layerId = "1510CF8D-377E-4EE5-87E7-F8F48863CF31";
name = Regular;
paths = (
{
closed = 1;
nodes = (
"139 -14 OFFCURVE",
"59 80 OFFCURVE",
"59 189 CURVE SMOOTH",
"59 266 OFFCURVE",
"104 329 OFFCURVE",
"193 376 CURVE",
"131 424 OFFCURVE",
"100 479 OFFCURVE",
"100 540 CURVE SMOOTH",
"100 637 OFFCURVE",
"160 713 OFFCURVE",
"308 713 CURVE SMOOTH",
"449 713 OFFCURVE",
"510 643 OFFCURVE",
"510 555 CURVE SMOOTH",
"510 484 OFFCURVE",
"484 450 OFFCURVE",
"393 387 CURVE",
"501 350 OFFCURVE",
"549 293 OFFCURVE",
"549 198 CURVE SMOOTH",
"549 89 OFFCURVE",
"459 -14 OFFCURVE",
"296 -14 CURVE SMOOTH"
);
},
{
closed = 1;
nodes = (
"367 621 OFFCURVE",
"339 628 OFFCURVE",
"303 628 CURVE SMOOTH",
"231 628 OFFCURVE",
"187 593 OFFCURVE",
"187 534 CURVE SMOOTH",
"187 489 OFFCURVE",
"230 446 OFFCURVE",
"298 421 CURVE",
"375 444 OFFCURVE",
"415 492 OFFCURVE",
"415 545 CURVE SMOOTH",
"415 571 OFFCURVE",
"405 591 OFFCURVE",
"386 606 CURVE SMOOTH"
);
},
{
closed = 1;
nodes = (
"218 321 OFFCURVE",
"163 272 OFFCURVE",
"163 189 CURVE SMOOTH",
"163 112 OFFCURVE",
"212 72 OFFCURVE",
"300 72 CURVE SMOOTH",
"384 72 OFFCURVE",
"448 124 OFFCURVE",
"448 199 CURVE SMOOTH",
"448 267 OFFCURVE",
"389 318 OFFCURVE",
"306 338 CURVE"
);
}
);
width = 609;
}
);
note = eight;
rightKerningGroup = quotesingle;
unicode = 0038;
},
{
glyphname = nine;
layers = (
{
layerId = "1510CF8D-377E-4EE5-87E7-F8F48863CF31";
name = Regular;
paths = (
{
closed = 1;
nodes = (
"348 714 OFFCURVE",
"398 698 OFFCURVE",
"440 662 CURVE SMOOTH",
"482 625 OFFCURVE",
"507 555 OFFCURVE",
"507 462 CURVE SMOOTH",
"507 321 OFFCURVE",
"460 192 OFFCURVE",
"399 118 CURVE SMOOTH",
"338 44 OFFCURVE",
"269 0 OFFCURVE",
"216 0 CURVE",
"143 38 LINE",
"202 65 OFFCURVE",
"242 88 OFFCURVE",
"295 136 CURVE SMOOTH",
"348 183 OFFCURVE",
"384 252 OFFCURVE",
"396 336 CURVE",
"369 300 OFFCURVE",
"314 279 OFFCURVE",
"257 279 CURVE SMOOTH",
"124 279 OFFCURVE",
"45 348 OFFCURVE",
"45 481 CURVE SMOOTH",
"45 614 OFFCURVE",
"141 714 OFFCURVE",
"288 714 CURVE SMOOTH"
);
},
{
closed = 1;
nodes = (
"345 361 OFFCURVE",
"407 417 OFFCURVE",
"407 501 CURVE SMOOTH",
"407 584 OFFCURVE",
"348 631 OFFCURVE",
"276 631 CURVE SMOOTH",
"191 631 OFFCURVE",
"142 565 OFFCURVE",
"142 486 CURVE SMOOTH",
"142 419 OFFCURVE",
"177 361 OFFCURVE",
"266 361 CURVE SMOOTH"
);
}
);
width = 570;
}
);
note = nine;
rightKerningGroup = quotesingle;
unicode = 0039;
},
{
glyphname = colon;
layers = (
{
layerId = "1510CF8D-377E-4EE5-87E7-F8F48863CF31";
name = Regular;
paths = (
{
closed = 1;
nodes = (
"147 354 LINE",
"57 354 LINE",
"57 440 LINE",
"147 440 LINE"
);
},
{
closed = 1;
nodes = (
"147 0 LINE",
"57 0 LINE",
"57 86 LINE",
"147 86 LINE"
);
}
);
width = 204;
}
);
leftKerningGroup = colon;
note = colon;
rightKerningGroup = quotesingle;
unicode = 003A;
},
{
glyphname = semicolon;
layers = (
{
layerId = "1510CF8D-377E-4EE5-87E7-F8F48863CF31";
name = Regular;
paths = (
{
closed = 1;
nodes = (
"158 354 LINE",
"58 354 LINE",
"58 440 LINE",
"158 440 LINE"
);
},
{
closed = 1;
nodes = (
"158 -1 LINE",
"80 -109 LINE",
"57 -96 LINE",
"92 -9 LINE",
"58 0 LINE",
"58 86 LINE",
"158 86 LINE"
);
}
);
width = 216;
}
);
leftKerningGroup = semicolon;
note = semicolon;
rightKerningGroup = quotesingle;
unicode = 003B;
},
{
glyphname = less;
layers = (
{
layerId = "1510CF8D-377E-4EE5-87E7-F8F48863CF31";
name = Regular;
paths = (
{
closed = 1;
nodes = (
"344 78 LINE",
"249 78 LINE",
"33 284 LINE",
"249 490 LINE",
"344 490 LINE",
"128 284 LINE"
);
}
);
width = 405;
}
);
note = less;
rightKerningGroup = quotesingle;
unicode = 003C;
},
{
glyphname = equal;
layers = (
{
layerId = "1510CF8D-377E-4EE5-87E7-F8F48863CF31";
name = Regular;
paths = (
{
closed = 1;
nodes = (
"436 318 LINE",
"66 318 LINE",
"66 394 LINE",
"436 394 LINE"
);
},
{
closed = 1;
nodes = (
"436 160 LINE",
"66 160 LINE",
"66 236 LINE",
"436 236 LINE"
);
}
);
width = 502;
}
);
note = equal;
rightKerningGroup = quotesingle;
unicode = 003D;
},
{
glyphname = greater;
layers = (
{
layerId = "1510CF8D-377E-4EE5-87E7-F8F48863CF31";
name = Regular;
paths = (
{
closed = 1;
nodes = (
"371 284 LINE",
"155 78 LINE",
"60 78 LINE",
"276 284 LINE",
"60 490 LINE",
"155 490 LINE"
);
}
);
width = 404;
}
);
note = greater;
rightKerningGroup = quotesingle;
unicode = 003E;
},
{
glyphname = question;
layers = (
{
layerId = "1510CF8D-377E-4EE5-87E7-F8F48863CF31";
name = Regular;
paths = (
{
closed = 1;
nodes = (
"226 200 LINE",
"167 200 LINE",
"165 227 OFFCURVE",
"164 242 OFFCURVE",
"164 245 CURVE SMOOTH",
"164 300 OFFCURVE",
"202 361 OFFCURVE",
"239 402 CURVE SMOOTH",
"276 442 OFFCURVE",
"314 504 OFFCURVE",
"314 561 CURVE SMOOTH",
"314 641 OFFCURVE",
"255 684 OFFCURVE",
"186 684 CURVE SMOOTH",
"126 684 OFFCURVE",
"70 647 OFFCURVE",
"55 616 CURVE",
"30 683 LINE",
"55 722 OFFCURVE",
"118 750 OFFCURVE",
"189 750 CURVE SMOOTH",
"316 750 OFFCURVE",
"397 655 OFFCURVE",
"397 563 CURVE SMOOTH",
"397 516 OFFCURVE",
"370 463 OFFCURVE",
"337 420 CURVE SMOOTH",
"286 355 LINE SMOOTH",
"251 312 OFFCURVE",
"226 266 OFFCURVE",
"226 227 CURVE SMOOTH"
);
},
{
closed = 1;
nodes = (
"244 0 LINE",
"153 0 LINE",
"153 86 LINE",
"244 86 LINE"
);
}
);
width = 441;
}
);
leftKerningGroup = question;
note = question;
rightKerningGroup = quotesingle;
unicode = 003F;
},
{
glyphname = at;
layers = (
{
layerId = "1510CF8D-377E-4EE5-87E7-F8F48863CF31";
name = Regular;
paths = (
{
closed = 1;
nodes = (
"511 414 OFFCURVE",
"470 432 OFFCURVE",
"423 432 CURVE SMOOTH",
"299 432 OFFCURVE",
"169 290 OFFCURVE",
"169 151 CURVE SMOOTH",
"169 87 OFFCURVE",
"197 40 OFFCURVE",
"264 40 CURVE SMOOTH",
"321 40 OFFCURVE",
"401 87 OFFCURVE",
"440 156 CURVE",
"440 155 OFFCURVE",
"440 150 OFFCURVE",
"439 141 CURVE SMOOTH",
"438 132 OFFCURVE",
"437 127 OFFCURVE",
"437 125 CURVE SMOOTH",
"437 82 OFFCURVE",
"453 42 OFFCURVE",
"492 42 CURVE SMOOTH",
"531 42 OFFCURVE",
"592 73 OFFCURVE",
"625 106 CURVE",
"561 -10 OFFCURVE",
"434 -87 OFFCURVE",
"297 -87 CURVE SMOOTH",
"144 -87 OFFCURVE",
"49 9 OFFCURVE",
"49 170 CURVE SMOOTH",
"49 385 OFFCURVE",
"221 553 OFFCURVE",
"426 553 CURVE SMOOTH",
"582 553 OFFCURVE",
"675 455 OFFCURVE",
"675 299 CURVE SMOOTH",
"675 250 OFFCURVE",
"667 204 OFFCURVE",
"650 159 CURVE",
"625 119 OFFCURVE",
"566 94 OFFCURVE",
"527 94 CURVE SMOOTH",
"502 94 OFFCURVE",
"490 112 OFFCURVE",
"490 147 CURVE SMOOTH",
"490 179 OFFCURVE",
"500 217 OFFCURVE",
"520 287 CURVE SMOOTH",
"530 322 OFFCURVE",
"538 352 OFFCURVE",
"545 379 CURVE"
);
},
{
closed = 1;
nodes = (
"455 371 OFFCURVE",
"473 364 OFFCURVE",
"478 349 CURVE",
"459 240 OFFCURVE",
"360 106 OFFCURVE",
"293 106 CURVE SMOOTH",
"264 106 OFFCURVE",
"249 133 OFFCURVE",
"249 170 CURVE SMOOTH",
"249 275 OFFCURVE",
"351 371 OFFCURVE",
"424 371 CURVE SMOOTH"
);
}
);
width = 722;
}
);
leftKerningGroup = at;
note = at;
rightKerningGroup = at;
unicode = 0040;
},
{
glyphname = A;
lastChange = "2015-10-19 22:24:15 +0000";
layers = (
{
anchors = (
{
name = bottom;
position = "{308, 0}";
},
{
name = ogonek;
position = "{554, 10}";
},
{
name = top;
position = "{308, 700}";
}
);
layerId = "1510CF8D-377E-4EE5-87E7-F8F48863CF31";
name = Regular;
paths = (
{
closed = 1;
nodes = (
"609 0 LINE",
"509 0 LINE",
"442 189 LINE",
"174 189 LINE",
"107 0 LINE",
"7 0 LINE",
"258 700 LINE",
"358 700 LINE"
);
},
{
closed = 1;
nodes = (
"412 275 LINE",
"308 567 LINE",
"204 275 LINE"
);
}
);
width = 616;
}
);
leftKerningGroup = A;
note = A;
rightKerningGroup = A;
unicode = 0041;
},
{
glyphname = B;
layers = (
{
layerId = "1510CF8D-377E-4EE5-87E7-F8F48863CF31";
name = Regular;
paths = (
{
closed = 1;
nodes = (
"80 0 LINE",
"80 700 LINE",
"238 700 LINE SMOOTH",
"327 700 OFFCURVE",
"382 693 OFFCURVE",
"431 669 CURVE SMOOTH",
"479 645 OFFCURVE",
"502 599 OFFCURVE",
"502 527 CURVE SMOOTH",
"502 458 OFFCURVE",
"494 425 OFFCURVE",
"445 373 CURVE",
"532 340 OFFCURVE",
"562 288 OFFCURVE",
"562 208 CURVE SMOOTH",
"562 139 OFFCURVE",
"541 86 OFFCURVE",
"511 57 CURVE SMOOTH",
"481 28 OFFCURVE",
"432 11 OFFCURVE",
"390 5 CURVE SMOOTH",
"369 2 OFFCURVE",
"345 0 OFFCURVE",
"320 0 CURVE SMOOTH"
);
},
{
closed = 1;
nodes = (
"175 615 LINE",
"175 409 LINE",
"293 409 LINE SMOOTH",
"328 409 OFFCURVE",
"345 412 OFFCURVE",
"369 425 CURVE SMOOTH",
"393 438 OFFCURVE",
"404 469 OFFCURVE",
"404 520 CURVE SMOOTH",
"404 555 OFFCURVE",
"393 579 OFFCURVE",
"378 592 CURVE",
"362 604 OFFCURVE",
"333 612 OFFCURVE",
"310 614 CURVE SMOOTH",
"298 615 OFFCURVE",
"283 615 OFFCURVE",
"265 615 CURVE SMOOTH"
);
},
{
closed = 1;
nodes = (
"175 323 LINE",
"175 86 LINE",
"273 86 LINE SMOOTH",
"324 86 OFFCURVE",
"354 88 OFFCURVE",
"389 97 CURVE SMOOTH",
"424 105 OFFCURVE",
"442 121 OFFCURVE",
"454 149 CURVE SMOOTH",
"460 162 OFFCURVE",
"463 179 OFFCURVE",
"463 199 CURVE SMOOTH",
"463 292 OFFCURVE",
"408 323 OFFCURVE",
"323 323 CURVE SMOOTH"
);
}
);
width = 597;
}
);
leftKerningGroup = B;
note = B;
rightKerningGroup = B;
unicode = 0042;
},
{
glyphname = C;
lastChange = "2015-10-19 22:26:33 +0000";
layers = (
{
anchors = (
{
name = bottom;
position = "{308, 0}";
},
{
name = top;
position = "{389, 700}";
}
);
layerId = "1510CF8D-377E-4EE5-87E7-F8F48863CF31";
name = Regular;
paths = (
{
closed = 1;
nodes = (
"185 -14 OFFCURVE",
"39 131 OFFCURVE",
"39 350 CURVE SMOOTH",
"39 569 OFFCURVE",
"184 714 OFFCURVE",
"389 714 CURVE SMOOTH",
"461 714 OFFCURVE",
"526 700 OFFCURVE",
"583 673 CURVE",
"573 585 LINE",
"570 586 OFFCURVE",
"561 590 OFFCURVE",
"546 595 CURVE SMOOTH",
"531 600 OFFCURVE",
"521 603 OFFCURVE",
"516 605 CURVE SMOOTH",
"505 609 OFFCURVE",
"473 618 OFFCURVE",
"456 622 CURVE",
"439 625 OFFCURVE",
"412 628 OFFCURVE",
"389 628 CURVE SMOOTH",
"233 628 OFFCURVE",
"143 511 OFFCURVE",
"143 350 CURVE SMOOTH",
"143 189 OFFCURVE",
"234 72 OFFCURVE",
"391 72 CURVE SMOOTH",
"411 72 OFFCURVE",
"429 73 OFFCURVE",
"449 77 CURVE SMOOTH",
"474 82 LINE",
"481 83 OFFCURVE",
"490 86 OFFCURVE",
"501 90 CURVE",
"524 97 LINE",
"529 98 OFFCURVE",
"537 101 OFFCURVE",
"550 106 CURVE SMOOTH",
"563 111 OFFCURVE",
"570 113 OFFCURVE",
"573 114 CURVE",
"583 26 LINE",
"524 -1 OFFCURVE",
"459 -14 OFFCURVE",
"390 -14 CURVE SMOOTH"
);
}
);
width = 616;
}
);
leftKerningGroup = C;
note = C;
rightKerningGroup = C;
unicode = 0043;
},
{
glyphname = D;
layers = (
{
layerId = "1510CF8D-377E-4EE5-87E7-F8F48863CF31";
name = Regular;
paths = (
{
closed = 1;
nodes = (
"80 0 LINE",
"80 700 LINE",
"339 700 LINE SMOOTH",
"546 700 OFFCURVE",
"687 567 OFFCURVE",
"687 350 CURVE SMOOTH",
"687 133 OFFCURVE",
"546 0 OFFCURVE",
"339 0 CURVE SMOOTH"
);
},
{
closed = 1;
nodes = (
"175 614 LINE",
"175 86 LINE",
"339 86 LINE SMOOTH",
"495 86 OFFCURVE",
"583 189 OFFCURVE",
"583 350 CURVE SMOOTH",
"583 511 OFFCURVE",
"495 614 OFFCURVE",
"339 614 CURVE SMOOTH"
);
}
);
width = 727;
}
);
leftKerningGroup = B;
note = D;
rightKerningGroup = D;
unicode = 0044;
},
{
glyphname = E;
layers = (
{
layerId = "1510CF8D-377E-4EE5-87E7-F8F48863CF31";
name = Regular;
paths = (
{
closed = 1;
nodes = (
"516 0 LINE",
"80 0 LINE",
"80 700 LINE",
"507 700 LINE",
"507 614 LINE",
"175 614 LINE",
"175 409 LINE",
"439 409 LINE",
"439 323 LINE",
"175 323 LINE",
"175 86 LINE",
"516 86 LINE"
);
}
);
width = 554;
}
);
leftKerningGroup = E;
note = E;
rightKerningGroup = E;
unicode = 0045;
},
{
glyphname = F;
layers = (
{
layerId = "1510CF8D-377E-4EE5-87E7-F8F48863CF31";
name = Regular;
paths = (
{
closed = 1;
nodes = (
"507 614 LINE",
"175 614 LINE",
"175 409 LINE",
"431 409 LINE",
"431 323 LINE",
"175 323 LINE",
"175 0 LINE",
"80 0 LINE",
"80 700 LINE",
"507 700 LINE"
);
}
);
width = 523;
}
);
leftKerningGroup = B;
note = F;
rightKerningGroup = F;
unicode = 0046;
},
{
glyphname = G;
layers = (
{
layerId = "1510CF8D-377E-4EE5-87E7-F8F48863CF31";
name = Regular;
paths = (
{
closed = 1;
nodes = (
"185 -14 OFFCURVE",
"39 132 OFFCURVE",
"39 351 CURVE SMOOTH",
"39 570 OFFCURVE",
"183 714 OFFCURVE",
"390 714 CURVE SMOOTH",
"467 714 OFFCURVE",
"537 701 OFFCURVE",
"598 674 CURVE",
"589 591 LINE",
"518 616 OFFCURVE",
"452 628 OFFCURVE",
"393 628 CURVE SMOOTH",
"229 628 OFFCURVE",
"143 514 OFFCURVE",
"143 350 CURVE SMOOTH",
"143 182 OFFCURVE",
"234 72 OFFCURVE",
"409 72 CURVE SMOOTH",
"456 72 OFFCURVE",
"495 78 OFFCURVE",
"526 91 CURVE",
"526 265 LINE",
"416 265 LINE",
"416 351 LINE",
"621 351 LINE",
"621 39 LINE",
"565 10 OFFCURVE",
"461 -14 OFFCURVE",
"382 -14 CURVE SMOOTH"
);
}
);
width = 672;
}
);
leftKerningGroup = C;
note = G;
rightKerningGroup = G;
unicode = 0047;
},
{
glyphname = H;
layers = (
{
layerId = "1510CF8D-377E-4EE5-87E7-F8F48863CF31";
name = Regular;
paths = (
{
closed = 1;
nodes = (
"666 0 LINE",
"571 0 LINE",
"571 321 LINE",
"175 321 LINE",
"175 0 LINE",
"80 0 LINE",
"80 700 LINE",
"175 700 LINE",
"175 411 LINE",
"571 411 LINE",
"571 700 LINE",
"666 700 LINE"
);
}
);
width = 746;
}
);
leftKerningGroup = B;
note = H;
rightKerningGroup = H;
unicode = 0048;
},
{
glyphname = I;
layers = (
{
layerId = "1510CF8D-377E-4EE5-87E7-F8F48863CF31";
name = Regular;
paths = (
{
closed = 1;
nodes = (
"175 0 LINE",
"80 0 LINE",
"80 700 LINE",
"175 700 LINE"
);
}
);
width = 255;
}
);
leftKerningGroup = B;
note = I;
rightKerningGroup = H;
unicode = 0049;
},
{
glyphname = J;
layers = (
{
layerId = "1510CF8D-377E-4EE5-87E7-F8F48863CF31";
name = Regular;
paths = (
{
closed = 1;
nodes = (
"-7 -172 LINE",
"-17 -116 LINE",
"-13 -116 LINE SMOOTH",
"60 -116 OFFCURVE",
"80 -86 OFFCURVE",
"80 -3 CURVE SMOOTH",
"80 700 LINE",
"175 700 LINE",
"175 -32 LINE SMOOTH",
"175 -125 OFFCURVE",
"120 -172 OFFCURVE",
"9 -172 CURVE SMOOTH"
);
}
);
width = 255;
}
);
leftKerningGroup = J;
note = J;
rightKerningGroup = J;
unicode = 004A;
},
{
glyphname = K;
layers = (
{
layerId = "1510CF8D-377E-4EE5-87E7-F8F48863CF31";
name = Regular;
paths = (
{
closed = 1;
nodes = (
"573 0 LINE",
"473 0 LINE",
"214 371 LINE",
"473 700 LINE",
"573 700 LINE",
"314 371 LINE"
);
},
{
closed = 1;
nodes = (
"175 0 LINE",
"80 0 LINE",
"80 700 LINE",
"175 700 LINE"
);
}
);
width = 577;
}
);
leftKerningGroup = B;
note = K;
rightKerningGroup = K;
unicode = 004B;
},
{
glyphname = L;
lastChange = "2015-10-19 22:40:44 +0000";
layers = (
{
anchors = (
{
name = bottom;
position = "{251, 0}";
},
{
name = center;
position = "{251, 350}";
},
{
name = top;
position = "{251, 700}";
},
{
name = topright;
position = "{280, 700}";
}
);
layerId = "1510CF8D-377E-4EE5-87E7-F8F48863CF31";
name = Regular;
paths = (
{
closed = 1;
nodes = (
"496 0 LINE",
"80 0 LINE",
"80 700 LINE",
"175 700 LINE",
"175 86 LINE",
"496 86 LINE"
);
}
);
width = 501;
}
);
leftKerningGroup = B;
note = L;
rightKerningGroup = L;
unicode = 004C;
},
{
glyphname = M;
layers = (
{
layerId = "1510CF8D-377E-4EE5-87E7-F8F48863CF31";
name = Regular;
paths = (
{
closed = 1;
nodes = (
"764 0 LINE",
"664 0 LINE",
"598 529 LINE",
"408 166 LINE",
"214 529 LINE",
"148 0 LINE",
"48 0 LINE",
"142 700 LINE",
"223 700 LINE",
"407 353 LINE",
"589 700 LINE",
"671 700 LINE"
);
}
);
width = 812;
}
);
leftKerningGroup = M;
note = M;
rightKerningGroup = M;
unicode = 004D;
},
{
glyphname = N;
layers = (
{
layerId = "1510CF8D-377E-4EE5-87E7-F8F48863CF31";
name = Regular;
paths = (
{
closed = 1;
nodes = (
"624 0 LINE",
"543 0 LINE",
"175 553 LINE",
"175 0 LINE",
"80 0 LINE",
"80 700 LINE",
"183 700 LINE",
"528 176 LINE",
"528 700 LINE",
"624 700 LINE"
);
}
);
width = 704;
}
);
leftKerningGroup = B;
note = N;
rightKerningGroup = H;
unicode = 004E;
},
{
glyphname = O;
lastChange = "2015-10-19 22:27:52 +0000";
layers = (
{
anchors = (
{
name = bottom;
position = "{384, 0}";
},
{
name = center;
position = "{384, 350}";
},
{
name = ogonek;
position = "{691, 10}";
},
{
name = top;
position = "{384, 700}";
},
{
name = topleft;
position = "{20, 700}";
},
{
name = topright;
position = "{748, 700}";
}
);
layerId = "1510CF8D-377E-4EE5-87E7-F8F48863CF31";
name = Regular;
paths = (
{
closed = 1;
nodes = (
"568 19 OFFCURVE",
"485 -14 OFFCURVE",
"384 -14 CURVE SMOOTH",
"181 -14 OFFCURVE",
"39 130 OFFCURVE",
"39 350 CURVE SMOOTH",
"39 570 OFFCURVE",
"181 714 OFFCURVE",
"384 714 CURVE SMOOTH",
"587 714 OFFCURVE",
"729 570 OFFCURVE",
"729 350 CURVE SMOOTH",
"729 240 OFFCURVE",
"697 152 OFFCURVE",
"633 86 CURVE SMOOTH"
);
},
{
closed = 1;
nodes = (
"521 602 OFFCURVE",
"461 628 OFFCURVE",
"384 628 CURVE SMOOTH",
"229 628 OFFCURVE",
"143 513 OFFCURVE",
"143 350 CURVE SMOOTH",
"143 187 OFFCURVE",
"229 72 OFFCURVE",
"384 72 CURVE SMOOTH",
"539 72 OFFCURVE",
"625 187 OFFCURVE",
"625 350 CURVE SMOOTH",
"625 431 OFFCURVE",
"604 498 OFFCURVE",
"563 550 CURVE SMOOTH"
);
}
);
width = 768;
}
);
leftKerningGroup = C;
note = O;
rightKerningGroup = O;
unicode = 004F;
},
{
glyphname = P;
layers = (
{
layerId = "1510CF8D-377E-4EE5-87E7-F8F48863CF31";
name = Regular;
paths = (
{
closed = 1;
nodes = (
"180 245 LINE",
"180 0 LINE",
"80 0 LINE",
"80 700 LINE",
"304 700 LINE SMOOTH",
"377 700 OFFCURVE",
"425 691 OFFCURVE",
"474 662 CURVE SMOOTH",
"522 633 OFFCURVE",
"548 573 OFFCURVE",
"548 482 CURVE SMOOTH",
"548 413 OFFCURVE",
"528 355 OFFCURVE",
"499 320 CURVE SMOOTH",
"470 285 OFFCURVE",
"429 261 OFFCURVE",
"391 252 CURVE SMOOTH",
"372 247 OFFCURVE",
"352 245 OFFCURVE",
"332 245 CURVE SMOOTH"
);
},
{
closed = 1;
nodes = (
"180 615 LINE",
"180 330 LINE",
"314 330 LINE SMOOTH",
"404 330 OFFCURVE",
"449 379 OFFCURVE",
"449 478 CURVE SMOOTH",
"449 579 OFFCURVE",
"407 615 OFFCURVE",
"286 615 CURVE SMOOTH"
);
}
);
width = 572;
}
);
leftKerningGroup = B;
note = P;
rightKerningGroup = P;
unicode = 0050;
},
{
glyphname = Q;
layers = (
{
layerId = "1510CF8D-377E-4EE5-87E7-F8F48863CF31";
name = Regular;
paths = (
{
closed = 1;
nodes = (
"715 62 LINE",
"665 3 LINE",
"600 57 LINE",
"534 10 OFFCURVE",
"462 -14 OFFCURVE",
"384 -14 CURVE SMOOTH",
"181 -14 OFFCURVE",
"39 130 OFFCURVE",
"39 350 CURVE SMOOTH",
"39 570 OFFCURVE",
"181 714 OFFCURVE",
"384 714 CURVE SMOOTH",
"587 714 OFFCURVE",
"729 570 OFFCURVE",
"729 350 CURVE SMOOTH",
"729 264 OFFCURVE",
"704 184 OFFCURVE",
"655 111 CURVE"
);
},
{
closed = 1;
nodes = (
"228 628 OFFCURVE",
"143 514 OFFCURVE",
"143 350 CURVE SMOOTH",
"143 186 OFFCURVE",
"228 72 OFFCURVE",
"384 72 CURVE SMOOTH",
"448 72 OFFCURVE",
"498 85 OFFCURVE",
"535 112 CURVE",
"432 196 LINE",
"482 257 LINE",
"587 164 LINE",
"619 214 OFFCURVE",
"635 276 OFFCURVE",
"635 350 CURVE SMOOTH",
"635 511 OFFCURVE",
"541 628 OFFCURVE",
"384 628 CURVE SMOOTH"
);
}
);
width = 768;
}
);
leftKerningGroup = C;
note = Q;
rightKerningGroup = O;
unicode = 0051;
},
{
glyphname = R;
layers = (
{
layerId = "1510CF8D-377E-4EE5-87E7-F8F48863CF31";
name = Regular;
paths = (
{
closed = 1;
nodes = (
"584 0 LINE",
"482 0 LINE",
"327 273 LINE",
"180 273 LINE",
"180 0 LINE",
"80 0 LINE",
"80 700 LINE",
"307 700 LINE SMOOTH",
"463 700 OFFCURVE",
"549 644 OFFCURVE",
"549 495 CURVE SMOOTH",
"549 408 OFFCURVE",
"502 335 OFFCURVE",
"421 298 CURVE"
);
},
{
closed = 1;
nodes = (
"180 623 LINE",
"180 365 LINE",
"331 365 LINE SMOOTH",
"394 365 OFFCURVE",
"450 406 OFFCURVE",
"450 495 CURVE SMOOTH",
"450 576 OFFCURVE",
"401 623 OFFCURVE",
"306 623 CURVE SMOOTH"
);
}
);
width = 603;
}
);
leftKerningGroup = B;
note = R;
rightKerningGroup = R;
unicode = 0052;
},
{
glyphname = S;
lastChange = "2015-10-19 22:34:42 +0000";
layers = (
{
anchors = (
{
name = bottom;
position = "{292, 0}";
},
{
name = top;
position = "{292, 700}";
}
);
layerId = "1510CF8D-377E-4EE5-87E7-F8F48863CF31";
name = Regular;
paths = (
{
closed = 1;
nodes = (
"183 -14 OFFCURVE",
"107 1 OFFCURVE",
"51 31 CURVE",
"64 142 LINE",
"127 95 OFFCURVE",
"200 72 OFFCURVE",
"282 72 CURVE SMOOTH",
"378 72 OFFCURVE",
"449 107 OFFCURVE",
"449 180 CURVE SMOOTH",
"449 217 OFFCURVE",
"432 247 OFFCURVE",
"395 269 CURVE SMOOTH",
"358 291 OFFCURVE",
"328 302 OFFCURVE",
"268 321 CURVE SMOOTH",
"204 341 OFFCURVE",
"188 346 OFFCURVE",
"139 370 CURVE SMOOTH",
"90 393 OFFCURVE",
"73 412 OFFCURVE",
"54 449 CURVE SMOOTH",
"45 468 OFFCURVE",
"40 489 OFFCURVE",
"40 512 CURVE SMOOTH",
"40 559 OFFCURVE",
"57 604 OFFCURVE",
"94 645 CURVE SMOOTH",
"130 686 OFFCURVE",
"201 714 OFFCURVE",
"292 714 CURVE SMOOTH",
"376 714 OFFCURVE",
"467 691 OFFCURVE",
"512 666 CURVE",
"502 565 LINE",
"418 607 OFFCURVE",
"351 628 OFFCURVE",
"301 628 CURVE SMOOTH",
"218 628 OFFCURVE",
"144 593 OFFCURVE",
"144 525 CURVE SMOOTH",
"144 466 OFFCURVE",
"194 440 OFFCURVE",
"295 408 CURVE SMOOTH",
"318 401 OFFCURVE",
"332 396 OFFCURVE",
"337 395 CURVE",
"346 392 OFFCURVE",
"405 373 OFFCURVE",
"418 366 CURVE SMOOTH",
"452 348 LINE SMOOTH",
"469 339 OFFCURVE",
"481 332 OFFCURVE",
"487 326 CURVE SMOOTH",
"512 300 LINE SMOOTH",
"535 277 OFFCURVE",
"540 257 OFFCURVE",
"548 228 CURVE",
"551 213 OFFCURVE",
"553 198 OFFCURVE",
"553 181 CURVE SMOOTH",
"553 146 OFFCURVE",
"549 118 OFFCURVE",
"526 81 CURVE SMOOTH",
"503 44 OFFCURVE",
"470 18 OFFCURVE",
"401 0 CURVE SMOOTH",
"366 -9 OFFCURVE",
"326 -14 OFFCURVE",
"280 -14 CURVE SMOOTH"
);
}
);
width = 584;
}
);
leftKerningGroup = S;
note = S;
rightKerningGroup = S;
unicode = 0053;
},
{
glyphname = T;
lastChange = "2015-10-19 22:44:30 +0000";
layers = (
{
anchors = (
{
name = bottom;
position = "{267, 0}";
},
{
name = center;
position = "{267, 350}";
},
{
name = top;
position = "{267, 700}";
}
);
layerId = "1510CF8D-377E-4EE5-87E7-F8F48863CF31";
name = Regular;
paths = (
{
closed = 1;
nodes = (
"518 614 LINE",
"314 614 LINE",
"314 0 LINE",
"219 0 LINE",
"219 614 LINE",
"15 614 LINE",
"15 700 LINE",
"518 700 LINE"
);
}
);
width = 533;
}
);
leftKerningGroup = T;
note = T;
rightKerningGroup = T;
unicode = 0054;
},
{
glyphname = U;
layers = (
{
layerId = "1510CF8D-377E-4EE5-87E7-F8F48863CF31";
name = Regular;
paths = (
{
closed = 1;
nodes = (
"531 13 OFFCURVE",
"459 -14 OFFCURVE",
"362 -14 CURVE SMOOTH",
"169 -14 OFFCURVE",
"72 100 OFFCURVE",
"72 297 CURVE SMOOTH",
"72 700 LINE",
"167 700 LINE",
"167 343 LINE SMOOTH",
"167 283 OFFCURVE",
"171 237 OFFCURVE",
"188 189 CURVE SMOOTH",
"205 140 OFFCURVE",
"230 108 OFFCURVE",
"278 88 CURVE",
"302 77 OFFCURVE",
"330 72 OFFCURVE",
"362 72 CURVE SMOOTH",
"426 72 OFFCURVE",
"475 95 OFFCURVE",
"503 128 CURVE SMOOTH",
"530 160 OFFCURVE",
"548 214 OFFCURVE",
"553 262 CURVE SMOOTH",
"556 286 OFFCURVE",
"557 313 OFFCURVE",
"557 343 CURVE SMOOTH",
"557 700 LINE",
"652 700 LINE",
"652 297 LINE SMOOTH",
"652 198 OFFCURVE",
"628 122 OFFCURVE",
"580 68 CURVE SMOOTH"
);
}
);
width = 724;
}
);
leftKerningGroup = U;
note = U;
rightKerningGroup = U;
unicode = 0055;
},
{
glyphname = V;
layers = (
{
layerId = "1510CF8D-377E-4EE5-87E7-F8F48863CF31";
name = Regular;
paths = (
{
closed = 1;
nodes = (
"640 700 LINE",
"372 0 LINE",
"272 0 LINE",
"4 700 LINE",
"104 700 LINE",
"323 109 LINE",
"540 700 LINE"
);
}
);
width = 644;
}
);
leftKerningGroup = V;
note = V;
rightKerningGroup = V;
unicode = 0056;
},
{
glyphname = W;
layers = (
{
layerId = "1510CF8D-377E-4EE5-87E7-F8F48863CF31";
name = Regular;
paths = (
{
closed = 1;
nodes = (
"961 700 LINE",
"756 0 LINE",
"651 0 LINE",
"486 574 LINE",
"315 0 LINE",
"210 0 LINE",
"14 700 LINE",
"114 700 LINE",
"269 108 LINE",
"444 686 LINE",
"530 686 LINE",
"707 109 LINE",
"861 700 LINE"
);
}
);
width = 971;
}
);
leftKerningGroup = W;
note = W;
rightKerningGroup = W;
unicode = 0057;
},
{
glyphname = X;
layers = (
{
layerId = "1510CF8D-377E-4EE5-87E7-F8F48863CF31";
name = Regular;
paths = (
{
closed = 1;
nodes = (
"594 0 LINE",
"494 0 LINE",
"292 286 LINE",
"109 0 LINE",
"9 0 LINE",
"244 349 LINE",
"9 700 LINE",
"119 700 LINE",
"299 427 LINE",
"493 700 LINE",
"593 700 LINE",
"343 361 LINE"
);
}
);
width = 599;
}
);
leftKerningGroup = X;
note = X;
rightKerningGroup = X;
unicode = 0058;
},
{
glyphname = Y;
layers = (
{
layerId = "1510CF8D-377E-4EE5-87E7-F8F48863CF31";
name = Regular;
paths = (
{
closed = 1;
nodes = (
"569 700 LINE",
"333 323 LINE",
"333 0 LINE",
"234 0 LINE",
"234 323 LINE",
"-3 700 LINE",
"97 700 LINE",
"283 409 LINE",
"469 700 LINE"
);
}
);
width = 567;
}
);
leftKerningGroup = Y;
note = Y;
rightKerningGroup = Y;
unicode = 0059;
},
{
glyphname = Z;
layers = (
{
layerId = "1510CF8D-377E-4EE5-87E7-F8F48863CF31";
name = Regular;
paths = (
{
closed = 1;
nodes = (
"542 700 LINE",
"165 86 LINE",
"497 86 LINE",
"497 0 LINE",
"9 0 LINE",
"385 614 LINE",
"54 614 LINE",
"54 700 LINE"
);
}
);
width = 549;
}
);
leftKerningGroup = Z;
note = Z;
rightKerningGroup = Z;
unicode = 005A;
},
{
glyphname = bracketleft;
layers = (
{
layerId = "1510CF8D-377E-4EE5-87E7-F8F48863CF31";
name = Regular;
paths = (
{
closed = 1;
nodes = (
"327 -135 LINE",
"70 -135 LINE",
"70 750 LINE",
"327 750 LINE",
"327 682 LINE",
"153 682 LINE",
"153 -67 LINE",
"327 -67 LINE"
);
}
);
width = 327;
}
);
note = bracketleft;
rightKerningGroup = bracketleft;
unicode = 005B;
},
{
glyphname = backslash;
layers = (
{
layerId = "1510CF8D-377E-4EE5-87E7-F8F48863CF31";
name = Regular;
paths = (
{
closed = 1;
nodes = (
"506 -85 LINE",
"413 -85 LINE",
"35 700 LINE",
"128 700 LINE"
);
}
);
width = 525;
}
);
leftKerningGroup = backslash;
note = backslash;
rightKerningGroup = backslash;
unicode = 005C;
},
{
glyphname = bracketright;
layers = (
{
layerId = "1510CF8D-377E-4EE5-87E7-F8F48863CF31";
name = Regular;
paths = (
{
closed = 1;
nodes = (
"263 -135 LINE",
"6 -135 LINE",
"6 -51 LINE",
"180 -51 LINE",
"180 666 LINE",
"6 666 LINE",
"6 750 LINE",
"263 750 LINE"
);
}
);
width = 333;
}
);
leftKerningGroup = bracketright;
note = bracketright;
rightKerningGroup = quotesingle;
unicode = 005D;
},
{
glyphname = asciicircum;
layers = (
{
layerId = "1510CF8D-377E-4EE5-87E7-F8F48863CF31";
name = Regular;
paths = (
{
closed = 1;
nodes = (
"461 437 LINE",
"255 653 LINE",
"49 437 LINE",
"49 543 LINE",
"255 759 LINE",
"461 543 LINE"
);
}
);
width = 511;
}
);
note = asciicircum;
rightKerningGroup = quotesingle;
unicode = 005E;
},
{
glyphname = underscore;
layers = (
{
layerId = "1510CF8D-377E-4EE5-87E7-F8F48863CF31";
name = Regular;
paths = (
{
closed = 1;
nodes = (
"563 -122 LINE",
"3 -122 LINE",
"3 -36 LINE",
"563 -36 LINE"
);
}
);
width = 566;
}
);
note = underscore;
rightKerningGroup = quotesingle;
unicode = 005F;
},
{
glyphname = grave;
layers = (
{
layerId = "1510CF8D-377E-4EE5-87E7-F8F48863CF31";
name = Regular;
paths = (
{
closed = 1;
nodes = (
"245 596 LINE",
"58 660 LINE",
"58 732 LINE",
"245 637 LINE"
);
}
);
width = 303;
}
);
note = grave;
rightKerningGroup = quotesingle;
unicode = 0060;
},
{
glyphname = a;
layers = (
{
layerId = "1510CF8D-377E-4EE5-87E7-F8F48863CF31";
name = Regular;
paths = (
{
closed = 1;
nodes = (
"472 62 LINE",
"458 -10 LINE",
"451 -10 LINE SMOOTH",
"371 -10 OFFCURVE",
"348 10 OFFCURVE",
"325 62 CURVE",
"284 14 OFFCURVE",
"234 -10 OFFCURVE",
"175 -10 CURVE SMOOTH",
"84 -10 OFFCURVE",
"24 49 OFFCURVE",
"24 132 CURVE SMOOTH",
"24 197 OFFCURVE",
"64 247 OFFCURVE",
"125 271 CURVE SMOOTH",
"185 295 OFFCURVE",
"248 306 OFFCURVE",
"317 307 CURVE",
"317 395 OFFCURVE",
"285 420 OFFCURVE",
"210 420 CURVE SMOOTH",
"167 420 OFFCURVE",
"124 405 OFFCURVE",
"81 376 CURVE",
"68 449 LINE",
"112 483 OFFCURVE",
"167 500 OFFCURVE",
"234 500 CURVE SMOOTH",
"359 500 OFFCURVE",
"407 440 OFFCURVE",
"407 265 CURVE SMOOTH",
"407 165 LINE SMOOTH",
"407 88 OFFCURVE",
"415 62 OFFCURVE",
"463 62 CURVE SMOOTH"
);
},
{
closed = 1;
nodes = (
"317 245 LINE",
"173 240 OFFCURVE",
"116 210 OFFCURVE",
"116 137 CURVE SMOOTH",
"116 87 OFFCURVE",
"141 62 OFFCURVE",
"192 62 CURVE SMOOTH",
"240 62 OFFCURVE",
"288 88 OFFCURVE",
"317 128 CURVE"
);
}
);
width = 480;
}
);
leftKerningGroup = a;
note = a;
rightKerningGroup = a;
unicode = 0061;
},
{
glyphname = b;
layers = (
{
layerId = "1510CF8D-377E-4EE5-87E7-F8F48863CF31";
name = Regular;
paths = (
{
closed = 1;
nodes = (
"252 -10 OFFCURVE",
"185 17 OFFCURVE",
"150 62 CURVE",
"140 0 LINE",
"60 0 LINE",
"60 750 LINE",
"150 750 LINE",
"150 437 LINE",
"185 479 OFFCURVE",
"235 500 OFFCURVE",
"302 500 CURVE SMOOTH",
"434 500 OFFCURVE",
"523 385 OFFCURVE",
"523 245 CURVE SMOOTH",
"523 102 OFFCURVE",
"426 -10 OFFCURVE",
"301 -10 CURVE SMOOTH"
);
},
{
closed = 1;
nodes = (
"212 420 OFFCURVE",
"145 356 OFFCURVE",
"145 245 CURVE SMOOTH",
"145 130 OFFCURVE",
"211 70 OFFCURVE",
"291 70 CURVE SMOOTH",
"375 70 OFFCURVE",
"431 146 OFFCURVE",
"431 245 CURVE SMOOTH",
"431 346 OFFCURVE",
"375 420 OFFCURVE",
"291 420 CURVE SMOOTH"
);
}
);
width = 555;
}
);
leftKerningGroup = b;
note = b;
rightKerningGroup = b;
unicode = 0062;
},
{
glyphname = c;
layers = (
{
layerId = "1510CF8D-377E-4EE5-87E7-F8F48863CF31";
name = Regular;
paths = (
{
closed = 1;
nodes = (
"121 -10 OFFCURVE",
"33 101 OFFCURVE",
"33 246 CURVE SMOOTH",
"33 395 OFFCURVE",
"119 500 OFFCURVE",
"276 500 CURVE SMOOTH",
"341 500 OFFCURVE",
"392 490 OFFCURVE",
"427 471 CURVE",
"413 390 LINE",
"372 410 OFFCURVE",
"329 420 OFFCURVE",
"286 420 CURVE SMOOTH",
"179 420 OFFCURVE",
"125 357 OFFCURVE",
"125 246 CURVE SMOOTH",
"125 135 OFFCURVE",
"179 69 OFFCURVE",
"286 69 CURVE SMOOTH",
"330 69 OFFCURVE",
"373 79 OFFCURVE",
"414 99 CURVE",
"426 27 LINE",
"389 2 OFFCURVE",
"339 -10 OFFCURVE",
"277 -10 CURVE SMOOTH"
);
}
);
width = 454;
}
);
leftKerningGroup = c;
note = c;
rightKerningGroup = c;
unicode = 0063;
},
{
glyphname = d;
layers = (
{
layerId = "1510CF8D-377E-4EE5-87E7-F8F48863CF31";
name = Regular;
paths = (
{
closed = 1;
nodes = (
"495 0 LINE",
"415 0 LINE",
"405 62 LINE",
"370 17 OFFCURVE",
"304 -10 OFFCURVE",
"255 -10 CURVE SMOOTH",
"130 -10 OFFCURVE",
"32 102 OFFCURVE",
"32 245 CURVE SMOOTH",
"32 385 OFFCURVE",
"123 500 OFFCURVE",
"255 500 CURVE SMOOTH",
"321 500 OFFCURVE",
"371 479 OFFCURVE",
"405 438 CURVE",
"405 750 LINE",
"495 750 LINE"
);
},
{
closed = 1;
nodes = (
"178 420 OFFCURVE",
"124 348 OFFCURVE",
"124 245 CURVE SMOOTH",
"124 146 OFFCURVE",
"178 70 OFFCURVE",
"262 70 CURVE SMOOTH",
"343 70 OFFCURVE",
"415 129 OFFCURVE",
"415 242 CURVE SMOOTH",
"415 353 OFFCURVE",
"342 420 OFFCURVE",
"262 420 CURVE SMOOTH"
);
}
);
width = 555;
}
);
leftKerningGroup = c;
note = d;
rightKerningGroup = d;
unicode = 0064;
},
{
glyphname = e;
lastChange = "2015-10-19 22:43:18 +0000";
layers = (
{
anchors = (
{
name = bottom;
position = "{256, 0}";
},
{
name = ogonek;
position = "{461, 10}";
},
{
name = top;
position = "{256, 490}";
}
);
layerId = "1510CF8D-377E-4EE5-87E7-F8F48863CF31";
name = Regular;
paths = (
{
closed = 1;
nodes = (
"123 245 LINE",
"134 128 OFFCURVE",
"196 70 OFFCURVE",
"307 70 CURVE SMOOTH",
"358 70 OFFCURVE",
"405 80 OFFCURVE",
"448 99 CURVE",
"460 28 LINE",
"403 3 OFFCURVE",
"349 -10 OFFCURVE",
"296 -10 CURVE SMOOTH",
"129 -10 OFFCURVE",
"31 101 OFFCURVE",
"31 249 CURVE SMOOTH",
"31 392 OFFCURVE",
"124 500 OFFCURVE",
"271 500 CURVE SMOOTH",
"396 500 OFFCURVE",
"482 422 OFFCURVE",
"482 293 CURVE SMOOTH",
"482 276 OFFCURVE",
"481 260 OFFCURVE",
"478 245 CURVE"
);
},
{
closed = 1;
nodes = (
"196 420 OFFCURVE",
"150 382 OFFCURVE",
"131 307 CURVE",
"389 307 LINE",
"389 378 OFFCURVE",
"349 420 OFFCURVE",
"269 420 CURVE SMOOTH"
);
}
);
width = 512;
}
);
leftKerningGroup = c;
note = e;
rightKerningGroup = e;
unicode = 0065;
},
{
glyphname = f;
layers = (
{
layerId = "1510CF8D-377E-4EE5-87E7-F8F48863CF31";
name = Regular;
paths = (
{
closed = 1;
nodes = (
"317 420 LINE",
"185 420 LINE",
"185 0 LINE",
"95 0 LINE",
"95 420 LINE",
"10 420 LINE",
"22 490 LINE",
"95 490 LINE",
"95 614 LINE SMOOTH",
"95 695 OFFCURVE",
"136 750 OFFCURVE",
"209 750 CURVE SMOOTH",
"251 750 OFFCURVE",
"285 746 OFFCURVE",
"311 737 CURVE",
"297 661 LINE",
"278 667 OFFCURVE",
"258 670 OFFCURVE",
"237 670 CURVE SMOOTH",
"214 670 OFFCURVE",
"200 663 OFFCURVE",
"194 649 CURVE SMOOTH",
"188 634 OFFCURVE",
"185 601 OFFCURVE",
"185 550 CURVE SMOOTH",
"185 490 LINE",
"317 490 LINE"
);
}
);
width = 331;
}
);
leftKerningGroup = f;
note = f;
rightKerningGroup = f;
unicode = 0066;
},
{
glyphname = g;
layers = (
{
layerId = "1510CF8D-377E-4EE5-87E7-F8F48863CF31";
name = Regular;
paths = (
{
closed = 1;
nodes = (
"100 -250 OFFCURVE",
"26 -179 OFFCURVE",
"26 -102 CURVE SMOOTH",
"26 -49 OFFCURVE",
"55 -13 OFFCURVE",
"113 8 CURVE",
"80 24 OFFCURVE",
"63 45 OFFCURVE",
"63 70 CURVE SMOOTH",
"63 93 OFFCURVE",
"80 123 OFFCURVE",
"121 143 CURVE",
"64 184 OFFCURVE",
"36 238 OFFCURVE",
"36 303 CURVE SMOOTH",
"36 416 OFFCURVE",
"111 500 OFFCURVE",
"236 500 CURVE SMOOTH",
"281 500 OFFCURVE",
"322 488 OFFCURVE",
"361 464 CURVE",
"396 483 OFFCURVE",
"436 492 OFFCURVE",
"480 492 CURVE SMOOTH",
"488 492 LINE",
"477 432 LINE",
"454 432 LINE SMOOTH",
"435 432 OFFCURVE",
"415 430 OFFCURVE",
"396 425 CURVE",
"426 389 OFFCURVE",
"441 350 OFFCURVE",
"441 308 CURVE SMOOTH",
"441 203 OFFCURVE",
"364 113 OFFCURVE",
"243 113 CURVE SMOOTH",
"217 113 OFFCURVE",
"194 116 OFFCURVE",
"173 122 CURVE",
"157 113 OFFCURVE",
"149 103 OFFCURVE",
"149 92 CURVE SMOOTH",
"149 80 OFFCURVE",
"159 71 OFFCURVE",
"178 65 CURVE SMOOTH",
"197 59 OFFCURVE",
"238 51 OFFCURVE",
"301 40 CURVE SMOOTH",
"340 33 OFFCURVE",
"364 29 OFFCURVE",
"404 14 CURVE SMOOTH",
"444 -1 OFFCURVE",
"468 -16 OFFCURVE",
"487 -46 CURVE SMOOTH",
"496 -61 OFFCURVE",
"501 -78 OFFCURVE",
"501 -96 CURVE SMOOTH",
"501 -180 OFFCURVE",
"408 -250 OFFCURVE",
"255 -250 CURVE SMOOTH"
);
},
{
closed = 1;
nodes = (
"164 428 OFFCURVE",
"122 379 OFFCURVE",
"122 306 CURVE SMOOTH",
"122 230 OFFCURVE",
"170 182 OFFCURVE",
"239 182 CURVE SMOOTH",
"311 182 OFFCURVE",
"355 236 OFFCURVE",
"355 309 CURVE SMOOTH",
"355 384 OFFCURVE",
"308 428 OFFCURVE",
"237 428 CURVE SMOOTH"
);
},
{
closed = 1;
nodes = (
"268 -26 OFFCURVE",
"238 -22 OFFCURVE",
"190 -14 CURVE",
"145 -27 OFFCURVE",
"112 -65 OFFCURVE",
"112 -100 CURVE SMOOTH",
"112 -147 OFFCURVE",
"167 -180 OFFCURVE",
"259 -180 CURVE SMOOTH",
"354 -180 OFFCURVE",
"410 -143 OFFCURVE",
"410 -102 CURVE SMOOTH",
"410 -67 OFFCURVE",
"366 -42 OFFCURVE",
"279 -26 CURVE"
);
}
);
width = 498;
}
);
leftKerningGroup = g;
note = g;
rightKerningGroup = g;
unicode = 0067;
},
{
glyphname = h;
layers = (
{
layerId = "1510CF8D-377E-4EE5-87E7-F8F48863CF31";
name = Regular;
paths = (
{
closed = 1;
nodes = (
"486 0 LINE",
"396 0 LINE",
"396 262 LINE SMOOTH",
"396 378 OFFCURVE",
"366 420 OFFCURVE",
"279 420 CURVE SMOOTH",
"221 420 OFFCURVE",
"178 399 OFFCURVE",
"151 356 CURVE",
"151 0 LINE",
"60 0 LINE",
"60 750 LINE",
"151 750 LINE",
"151 437 LINE",
"184 479 OFFCURVE",
"232 500 OFFCURVE",
"293 500 CURVE SMOOTH",
"422 500 OFFCURVE",
"486 421 OFFCURVE",
"486 262 CURVE SMOOTH"
);
}
);
width = 542;
}
);
leftKerningGroup = b;
note = h;
rightKerningGroup = h;
unicode = 0068;
},
{
glyphname = i;
layers = (
{
layerId = "1510CF8D-377E-4EE5-87E7-F8F48863CF31";
name = Regular;
paths = (
{
closed = 1;
nodes = (
"151 600 LINE",
"61 600 LINE",
"61 700 LINE",
"151 700 LINE"
);
},
{
closed = 1;
nodes = (
"151 0 LINE",
"61 0 LINE",
"61 490 LINE",
"151 490 LINE"
);
}
);
width = 212;
}
);
leftKerningGroup = i;
note = i;
rightKerningGroup = i;
unicode = 0069;
},
{
glyphname = j;
layers = (
{
layerId = "1510CF8D-377E-4EE5-87E7-F8F48863CF31";
name = Regular;
paths = (
{
closed = 1;
nodes = (
"-2 -242 LINE",
"-12 -173 LINE",
"48 -166 OFFCURVE",
"61 -150 OFFCURVE",
"61 -73 CURVE SMOOTH",
"61 490 LINE",
"151 490 LINE",
"151 -107 LINE SMOOTH",
"151 -191 OFFCURVE",
"95 -226 OFFCURVE",
"28 -237 CURVE SMOOTH"
);
},
{
closed = 1;
nodes = (
"151 600 LINE",
"61 600 LINE",
"61 700 LINE",
"151 700 LINE"
);
}
);
width = 212;
}
);
leftKerningGroup = i;
note = j;
rightKerningGroup = i;
unicode = 006A;
},
{
glyphname = k;
layers = (
{
layerId = "1510CF8D-377E-4EE5-87E7-F8F48863CF31";
name = Regular;
paths = (
{
closed = 1;
nodes = (
"150 0 LINE",
"60 0 LINE",
"60 750 LINE",
"150 750 LINE",
"150 269 LINE",
"330 490 LINE",
"440 490 LINE",
"238 264 LINE",
"445 0 LINE",
"335 0 LINE",
"150 249 LINE"
);
}
);
width = 448;
}
);
leftKerningGroup = b;
note = k;
rightKerningGroup = k;
unicode = 006B;
},
{
glyphname = l;
lastChange = "2015-10-19 22:47:21 +0000";
layers = (
{
anchors = (
{
name = bottom;
position = "{118, 0}";
},
{
name = center;
position = "{118, 245}";
},
{
name = top;
position = "{118, 490}";
},
{
name = topright;
position = "{251, 490}";
}
);
layerId = "1510CF8D-377E-4EE5-87E7-F8F48863CF31";
name = Regular;
paths = (
{
closed = 1;
nodes = (
"216 -10 LINE",
"187 -10 LINE SMOOTH",
"99 -10 OFFCURVE",
"60 41 OFFCURVE",
"60 108 CURVE SMOOTH",
"60 750 LINE",
"150 750 LINE",
"150 160 LINE SMOOTH",
"150 76 OFFCURVE",
"161 62 OFFCURVE",
"229 62 CURVE"
);
}
);
width = 236;
}
);
leftKerningGroup = l;
note = l;
rightKerningGroup = l;
unicode = 006C;
},
{
glyphname = m;
layers = (
{
layerId = "1510CF8D-377E-4EE5-87E7-F8F48863CF31";
name = Regular;
paths = (
{
closed = 1;
nodes = (
"821 0 LINE",
"731 0 LINE",
"731 288 LINE SMOOTH",
"731 380 OFFCURVE",
"697 420 OFFCURVE",
"616 420 CURVE SMOOTH",
"529 420 OFFCURVE",
"486 375 OFFCURVE",
"486 284 CURVE SMOOTH",
"486 0 LINE",
"396 0 LINE",
"396 270 LINE SMOOTH",
"396 382 OFFCURVE",
"356 420 OFFCURVE",
"281 420 CURVE SMOOTH",
"218 420 OFFCURVE",
"175 399 OFFCURVE",
"151 356 CURVE",
"151 0 LINE",
"61 0 LINE",
"61 490 LINE",
"131 490 LINE",
"141 438 LINE",
"194 486 OFFCURVE",
"233 500 OFFCURVE",
"288 500 CURVE SMOOTH",
"363 500 OFFCURVE",
"418 467 OFFCURVE",
"454 402 CURVE",
"488 467 OFFCURVE",
"548 500 OFFCURVE",
"633 500 CURVE SMOOTH",
"758 500 OFFCURVE",
"821 430 OFFCURVE",
"821 289 CURVE SMOOTH"
);
}
);
width = 877;
}
);
leftKerningGroup = m;
note = m;
rightKerningGroup = h;
unicode = 006D;
},
{
glyphname = n;
layers = (
{
layerId = "1510CF8D-377E-4EE5-87E7-F8F48863CF31";
name = Regular;
paths = (
{
closed = 1;
nodes = (
"503 0 LINE",
"413 0 LINE",
"413 270 LINE SMOOTH",
"413 375 OFFCURVE",
"377 420 OFFCURVE",
"285 420 CURVE SMOOTH",
"220 420 OFFCURVE",
"175 399 OFFCURVE",
"151 356 CURVE",
"151 0 LINE",
"61 0 LINE",
"61 490 LINE",
"131 490 LINE",
"141 438 LINE",
"187 479 OFFCURVE",
"241 500 OFFCURVE",
"303 500 CURVE SMOOTH",
"436 500 OFFCURVE",
"503 423 OFFCURVE",
"503 270 CURVE SMOOTH"
);
}
);
width = 559;
}
);
leftKerningGroup = m;
note = n;
rightKerningGroup = h;
unicode = 006E;
},
{
glyphname = o;
lastChange = "2015-10-19 22:32:11 +0000";
layers = (
{
anchors = (
{
name = bottom;
position = "{275, 0}";
},
{
name = center;
position = "{275, 245}";
},
{
name = ogonek;
position = "{495, 10}";
},
{
name = top;
position = "{275, 490}";
},
{
name = topright;
position = "{530, 490}";
}
);
layerId = "1510CF8D-377E-4EE5-87E7-F8F48863CF31";
name = Regular;
paths = (
{
closed = 1;
nodes = (
"409 14 OFFCURVE",
"350 -10 OFFCURVE",
"275 -10 CURVE SMOOTH",
"126 -10 OFFCURVE",
"32 98 OFFCURVE",
"32 245 CURVE SMOOTH",
"32 392 OFFCURVE",
"126 500 OFFCURVE",
"275 500 CURVE SMOOTH",
"424 500 OFFCURVE",
"518 392 OFFCURVE",
"518 245 CURVE SMOOTH",
"518 172 OFFCURVE",
"496 111 OFFCURVE",
"453 63 CURVE SMOOTH"
);
},
{
closed = 1;
nodes = (
"360 405 OFFCURVE",
"323 420 OFFCURVE",
"275 420 CURVE SMOOTH",
"179 420 OFFCURVE",
"124 356 OFFCURVE",
"124 245 CURVE SMOOTH",
"124 134 OFFCURVE",
"179 70 OFFCURVE",
"275 70 CURVE SMOOTH",
"371 70 OFFCURVE",
"426 134 OFFCURVE",
"426 245 CURVE SMOOTH",
"426 300 OFFCURVE",
"413 343 OFFCURVE",
"387 374 CURVE SMOOTH"
);
}
);
width = 550;
}
);
leftKerningGroup = c;
note = o;
rightKerningGroup = o;
unicode = 006F;
},
{
glyphname = p;
layers = (
{
layerId = "1510CF8D-377E-4EE5-87E7-F8F48863CF31";
name = Regular;
paths = (
{
closed = 1;
nodes = (
"256 -10 OFFCURVE",
"186 18 OFFCURVE",
"151 62 CURVE",
"151 -242 LINE",
"61 -242 LINE",
"61 490 LINE",
"131 490 LINE",
"141 420 LINE",
"186 475 OFFCURVE",
"230 500 OFFCURVE",
"306 500 CURVE SMOOTH",
"438 500 OFFCURVE",
"524 385 OFFCURVE",
"524 245 CURVE SMOOTH",
"524 96 OFFCURVE",
"445 -10 OFFCURVE",
"305 -10 CURVE SMOOTH"
);
},
{
closed = 1;
nodes = (
"216 420 OFFCURVE",
"146 356 OFFCURVE",
"146 245 CURVE SMOOTH",
"146 130 OFFCURVE",
"215 70 OFFCURVE",
"295 70 CURVE SMOOTH",
"379 70 OFFCURVE",
"432 145 OFFCURVE",
"432 245 CURVE SMOOTH",
"432 348 OFFCURVE",
"379 420 OFFCURVE",
"295 420 CURVE SMOOTH"
);
}
);
width = 557;
}
);
leftKerningGroup = m;
note = p;
rightKerningGroup = o;
unicode = 0070;
},
{
glyphname = q;
layers = (
{
layerId = "1510CF8D-377E-4EE5-87E7-F8F48863CF31";
name = Regular;
paths = (
{
closed = 1;
nodes = (
"112 -10 OFFCURVE",
"33 96 OFFCURVE",
"33 245 CURVE SMOOTH",
"33 385 OFFCURVE",
"119 500 OFFCURVE",
"251 500 CURVE SMOOTH",
"327 500 OFFCURVE",
"371 475 OFFCURVE",
"416 420 CURVE",
"426 490 LINE",
"496 490 LINE",
"496 -242 LINE",
"406 -242 LINE",
"406 62 LINE",
"371 18 OFFCURVE",
"301 -10 OFFCURVE",
"252 -10 CURVE SMOOTH"
);
},
{
closed = 1;
nodes = (
"178 420 OFFCURVE",
"125 348 OFFCURVE",
"125 245 CURVE SMOOTH",
"125 145 OFFCURVE",
"178 70 OFFCURVE",
"262 70 CURVE SMOOTH",
"342 70 OFFCURVE",
"411 130 OFFCURVE",
"411 245 CURVE SMOOTH",
"411 356 OFFCURVE",
"341 420 OFFCURVE",
"262 420 CURVE SMOOTH"
);
}
);
width = 557;
}
);
leftKerningGroup = c;
note = q;
rightKerningGroup = q;
unicode = 0071;
},
{
glyphname = r;
layers = (
{
layerId = "1510CF8D-377E-4EE5-87E7-F8F48863CF31";
name = Regular;
paths = (
{
closed = 1;
nodes = (
"320 508 LINE",
"300 409 LINE",
"269 409 LINE SMOOTH",
"229 409 OFFCURVE",
"174 378 OFFCURVE",
"157 346 CURVE",
"157 0 LINE",
"61 0 LINE",
"61 490 LINE",
"135 490 LINE",
"146 409 LINE",
"207 478 OFFCURVE",
"253 508 OFFCURVE",
"312 508 CURVE SMOOTH"
);
}
);
width = 321;
}
);
leftKerningGroup = m;
note = r;
rightKerningGroup = r;
unicode = 0072;
},
{
glyphname = s;
layers = (
{
layerId = "1510CF8D-377E-4EE5-87E7-F8F48863CF31";
name = Regular;
paths = (
{
closed = 1;
nodes = (
"129 -10 OFFCURVE",
"73 4 OFFCURVE",
"32 33 CURVE",
"43 120 LINE",
"70 96 OFFCURVE",
"129 70 OFFCURVE",
"196 70 CURVE SMOOTH",
"261 70 OFFCURVE",
"294 90 OFFCURVE",
"294 131 CURVE SMOOTH",
"294 167 OFFCURVE",
"261 194 OFFCURVE",
"196 212 CURVE SMOOTH",
"160 221 OFFCURVE",
"146 225 OFFCURVE",
"114 241 CURVE SMOOTH",
"81 257 OFFCURVE",
"67 271 OFFCURVE",
"53 302 CURVE SMOOTH",
"46 317 OFFCURVE",
"42 334 OFFCURVE",
"42 353 CURVE SMOOTH",
"42 437 OFFCURVE",
"101 500 OFFCURVE",
"226 500 CURVE SMOOTH",
"272 500 OFFCURVE",
"316 489 OFFCURVE",
"359 468 CURVE",
"348 386 LINE",
"313 415 OFFCURVE",
"273 429 OFFCURVE",
"228 429 CURVE SMOOTH",
"165 429 OFFCURVE",
"133 407 OFFCURVE",
"133 363 CURVE SMOOTH",
"133 342 OFFCURVE",
"141 326 OFFCURVE",
"157 317 CURVE",
"173 307 OFFCURVE",
"203 295 OFFCURVE",
"247 282 CURVE SMOOTH",
"280 273 OFFCURVE",
"300 265 OFFCURVE",
"334 243 CURVE SMOOTH",
"368 221 OFFCURVE",
"387 184 OFFCURVE",
"387 136 CURVE SMOOTH",
"387 100 OFFCURVE",
"377 70 OFFCURVE",
"351 40 CURVE SMOOTH",
"325 10 OFFCURVE",
"271 -10 OFFCURVE",
"200 -10 CURVE SMOOTH"
);
}
);
width = 414;
}
);
leftKerningGroup = s;
note = s;
rightKerningGroup = s;
unicode = 0073;
},
{
glyphname = t;
layers = (
{
layerId = "1510CF8D-377E-4EE5-87E7-F8F48863CF31";
name = Regular;
paths = (
{
closed = 1;
nodes = (
"318 62 LINE",
"311 -10 LINE",
"230 -10 LINE SMOOTH",
"143 -10 OFFCURVE",
"102 42 OFFCURVE",
"102 107 CURVE SMOOTH",
"102 420 LINE",
"18 420 LINE",
"26 490 LINE",
"102 490 LINE",
"102 611 LINE",
"192 620 LINE",
"192 490 LINE",
"321 490 LINE",
"321 420 LINE",
"192 420 LINE",
"192 162 LINE SMOOTH",
"192 67 OFFCURVE",
"198 62 OFFCURVE",
"295 62 CURVE SMOOTH"
);
}
);
width = 337;
}
);
leftKerningGroup = t;
note = t;
rightKerningGroup = t;
unicode = 0074;
},
{
glyphname = u;
lastChange = "2015-10-19 22:36:39 +0000";
layers = (
{
anchors = (
{
name = bottom;
position = "{262, 0}";
},
{
name = ogonek;
position = "{472, 10}";
},
{
name = top;
position = "{262, 490}";
},
{
name = topright;
position = "{504, 490}";
}
);
layerId = "1510CF8D-377E-4EE5-87E7-F8F48863CF31";
name = Regular;
paths = (
{
closed = 1;
nodes = (
"463 0 LINE",
"383 0 LINE",
"373 54 LINE",
"342 11 OFFCURVE",
"297 -10 OFFCURVE",
"237 -10 CURVE SMOOTH",
"116 -10 OFFCURVE",
"56 62 OFFCURVE",
"56 205 CURVE SMOOTH",
"56 490 LINE",
"146 490 LINE",
"146 230 LINE SMOOTH",
"146 123 OFFCURVE",
"184 70 OFFCURVE",
"260 70 CURVE SMOOTH",
"313 70 OFFCURVE",
"350 89 OFFCURVE",
"373 126 CURVE",
"373 490 LINE",
"463 490 LINE"
);
}
);
width = 524;
}
);
leftKerningGroup = u;
note = u;
rightKerningGroup = q;
unicode = 0075;
},
{
glyphname = v;
layers = (
{
layerId = "1510CF8D-377E-4EE5-87E7-F8F48863CF31";
name = Regular;
paths = (
{
closed = 1;
nodes = (
"483 490 LINE",
"297 0 LINE",
"196 0 LINE",
"9 490 LINE",
"109 490 LINE",
"246 99 LINE",
"382 490 LINE"
);
}
);
width = 492;
}
);
leftKerningGroup = v;
note = v;
rightKerningGroup = v;
unicode = 0076;
},
{
glyphname = w;
layers = (
{
layerId = "1510CF8D-377E-4EE5-87E7-F8F48863CF31";
name = Regular;
paths = (
{
closed = 1;
nodes = (
"714 490 LINE",
"566 0 LINE",
"465 0 LINE",
"363 362 LINE",
"260 0 LINE",
"159 0 LINE",
"12 490 LINE",
"118 490 LINE",
"212 99 LINE",
"316 475 LINE",
"409 475 LINE",
"514 99 LINE",
"608 490 LINE"
);
}
);
width = 725;
}
);
leftKerningGroup = w;
note = w;
rightKerningGroup = w;
unicode = 0077;
},
{
glyphname = x;
layers = (
{
layerId = "1510CF8D-377E-4EE5-87E7-F8F48863CF31";
name = Regular;
paths = (
{
closed = 1;
nodes = (
"463 0 LINE",
"362 0 LINE",
"238 193 LINE",
"112 0 LINE",
"11 0 LINE",
"182 244 LINE",
"15 490 LINE",
"116 490 LINE",
"239 296 LINE",
"352 490 LINE",
"457 490 LINE",
"296 252 LINE"
);
}
);
width = 474;
}
);
leftKerningGroup = x;
note = x;
rightKerningGroup = x;
unicode = 0078;
},
{
glyphname = y;
layers = (
{
layerId = "1510CF8D-377E-4EE5-87E7-F8F48863CF31";
name = Regular;
paths = (
{
closed = 1;
nodes = (
"498 490 LINE",
"198 -242 LINE",
"98 -242 LINE",
"211 22 LINE",
"7 490 LINE",
"107 490 LINE",
"260 126 LINE",
"398 490 LINE"
);
}
);
width = 505;
}
);
leftKerningGroup = y;
note = y;
rightKerningGroup = y;
unicode = 0079;
},
{
glyphname = z;
layers = (
{
layerId = "1510CF8D-377E-4EE5-87E7-F8F48863CF31";
name = Regular;
paths = (
{
closed = 1;
nodes = (
"446 490 LINE",
"185 70 LINE",
"441 70 LINE",
"441 0 LINE",
"22 0 LINE",
"283 420 LINE",
"32 420 LINE",
"32 490 LINE"
);
}
);
width = 471;
}
);
leftKerningGroup = z;
note = z;
rightKerningGroup = z;
unicode = 007A;
},
{
glyphname = braceleft;
layers = (
{
layerId = "1510CF8D-377E-4EE5-87E7-F8F48863CF31";
name = Regular;
paths = (
{
closed = 1;
nodes = (
"83 27 OFFCURVE",
"84 50 OFFCURVE",
"87 84 CURVE SMOOTH",
"90 117 OFFCURVE",
"91 142 OFFCURVE",
"91 159 CURVE SMOOTH",
"91 230 OFFCURVE",
"72 274 OFFCURVE",
"19 307 CURVE",
"70 342 OFFCURVE",
"91 384 OFFCURVE",
"91 456 CURVE SMOOTH",
"91 472 OFFCURVE",
"90 497 OFFCURVE",
"87 531 CURVE SMOOTH",
"84 564 OFFCURVE",
"83 587 OFFCURVE",
"83 600 CURVE SMOOTH",
"83 695 OFFCURVE",
"141 745 OFFCURVE",
"297 750 CURVE",
"297 681 LINE",
"242 680 OFFCURVE",
"210 670 OFFCURVE",
"190 657 CURVE SMOOTH",
"169 644 OFFCURVE",
"161 609 OFFCURVE",
"158 578 CURVE SMOOTH",
"157 563 OFFCURVE",
"156 540 OFFCURVE",
"156 510 CURVE SMOOTH",
"156 501 OFFCURVE",
"157 487 OFFCURVE",
"158 468 CURVE SMOOTH",
"159 448 OFFCURVE",
"159 433 OFFCURVE",
"159 424 CURVE SMOOTH",
"159 375 OFFCURVE",
"145 346 OFFCURVE",
"76 307 CURVE",
"145 268 OFFCURVE",
"159 244 OFFCURVE",
"159 199 CURVE SMOOTH",
"159 190 OFFCURVE",
"159 175 OFFCURVE",
"158 154 CURVE SMOOTH",
"157 133 OFFCURVE",
"156 117 OFFCURVE",
"156 105 CURVE SMOOTH",
"156 45 OFFCURVE",
"158 22 OFFCURVE",
"167 -9 CURVE SMOOTH",
"176 -40 OFFCURVE",
"197 -50 OFFCURVE",
"231 -58 CURVE",
"248 -63 OFFCURVE",
"270 -65 OFFCURVE",
"297 -66 CURVE",
"297 -135 LINE",
"144 -130 OFFCURVE",
"83 -82 OFFCURVE",
"83 14 CURVE SMOOTH"
);
}
);
width = 299;
}
);
note = braceleft;
rightKerningGroup = braceleft;
unicode = 007B;
},
{
glyphname = bar;
layers = (
{
layerId = "1510CF8D-377E-4EE5-87E7-F8F48863CF31";
name = Regular;
paths = (
{
closed = 1;
nodes = (
"159 -209 LINE",
"70 -209 LINE",
"70 750 LINE",
"159 750 LINE"
);
}
);
width = 229;
}
);
note = bar;
rightKerningGroup = quotesingle;
unicode = 007C;
},
{
glyphname = braceright;
layers = (
{
layerId = "1510CF8D-377E-4EE5-87E7-F8F48863CF31";
name = Regular;
paths = (
{
closed = 1;
nodes = (
"216 -82 OFFCURVE",
"155 -130 OFFCURVE",
"2 -135 CURVE",
"2 -66 LINE",
"57 -65 OFFCURVE",
"89 -55 OFFCURVE",
"110 -42 CURVE SMOOTH",
"130 -29 OFFCURVE",
"138 6 OFFCURVE",
"141 37 CURVE SMOOTH",
"142 52 OFFCURVE",
"143 75 OFFCURVE",
"143 105 CURVE SMOOTH",
"143 117 OFFCURVE",
"143 133 OFFCURVE",
"142 154 CURVE SMOOTH",
"141 175 OFFCURVE",
"140 190 OFFCURVE",
"140 199 CURVE SMOOTH",
"140 244 OFFCURVE",
"154 268 OFFCURVE",
"223 307 CURVE",
"154 346 OFFCURVE",
"140 375 OFFCURVE",
"140 424 CURVE SMOOTH",
"140 433 OFFCURVE",
"141 448 OFFCURVE",
"142 468 CURVE SMOOTH",
"143 487 OFFCURVE",
"143 501 OFFCURVE",
"143 510 CURVE SMOOTH",
"143 570 OFFCURVE",
"141 593 OFFCURVE",
"132 624 CURVE SMOOTH",
"123 655 OFFCURVE",
"103 665 OFFCURVE",
"69 674 CURVE SMOOTH",
"52 678 OFFCURVE",
"29 680 OFFCURVE",
"2 681 CURVE",
"2 750 LINE",
"158 745 OFFCURVE",
"216 695 OFFCURVE",
"216 600 CURVE SMOOTH",
"216 587 OFFCURVE",
"215 564 OFFCURVE",
"212 531 CURVE SMOOTH",
"209 497 OFFCURVE",
"208 472 OFFCURVE",
"208 456 CURVE SMOOTH",
"208 384 OFFCURVE",
"229 342 OFFCURVE",
"280 307 CURVE",
"227 274 OFFCURVE",
"208 230 OFFCURVE",
"208 159 CURVE SMOOTH",
"208 142 OFFCURVE",
"209 117 OFFCURVE",
"212 84 CURVE SMOOTH",
"215 50 OFFCURVE",
"216 27 OFFCURVE",
"216 14 CURVE SMOOTH"
);
}
);
width = 299;
}
);
leftKerningGroup = braceright;
note = braceright;
rightKerningGroup = quotesingle;
unicode = 007D;
},
{
glyphname = asciitilde;
layers = (
{
layerId = "1510CF8D-377E-4EE5-87E7-F8F48863CF31";
name = Regular;
paths = (
{
closed = 1;
nodes = (
"280 179 OFFCURVE",
"258 188 OFFCURVE",
"225 205 CURVE SMOOTH",
"192 222 OFFCURVE",
"171 230 OFFCURVE",
"161 230 CURVE SMOOTH",
"126 230 OFFCURVE",
"102 214 OFFCURVE",
"90 181 CURVE",
"54 190 LINE",
"69 250 OFFCURVE",
"116 280 OFFCURVE",
"157 280 CURVE SMOOTH",
"171 280 OFFCURVE",
"195 272 OFFCURVE",
"229 256 CURVE SMOOTH",
"263 239 OFFCURVE",
"286 231 OFFCURVE",
"297 231 CURVE SMOOTH",
"325 231 OFFCURVE",
"348 248 OFFCURVE",
"366 282 CURVE",
"400 273 LINE",
"385 216 OFFCURVE",
"344 179 OFFCURVE",
"293 179 CURVE SMOOTH"
);
}
);
width = 455;
}
);
note = asciitilde;
rightKerningGroup = quotesingle;
unicode = 007E;
},
{
glyphname = exclamdown;
layers = (
{
layerId = "1510CF8D-377E-4EE5-87E7-F8F48863CF31";
name = Regular;
paths = (
{
closed = 1;
nodes = (
"50 -250 LINE",
"80 300 LINE",
"144 300 LINE",
"174 -250 LINE"
);
},
{
closed = 1;
nodes = (
"70 500 LINE",
"154 500 LINE",
"154 414 LINE",
"70 414 LINE"
);
}
);
width = 224;
}
);
note = exclamdown;
rightKerningGroup = exclamdown;
unicode = 00A1;
},
{
glyphname = cent;
layers = (
{
layerId = "1510CF8D-377E-4EE5-87E7-F8F48863CF31";
name = Regular;
paths = (
{
closed = 1;
nodes = (
"308 -31 LINE",
"240 -31 LINE",
"257 87 LINE",
"112 106 OFFCURVE",
"34 212 OFFCURVE",
"34 347 CURVE SMOOTH",
"34 483 OFFCURVE",
"114 589 OFFCURVE",
"259 608 CURVE",
"240 748 LINE",
"308 748 LINE",
"290 608 LINE",
"349 605 OFFCURVE",
"394 594 OFFCURVE",
"426 576 CURVE",
"418 498 LINE",
"376 520 OFFCURVE",
"334 531 OFFCURVE",
"291 531 CURVE SMOOTH",
"196 531 OFFCURVE",
"140 452 OFFCURVE",
"140 347 CURVE SMOOTH",
"140 243 OFFCURVE",
"196 165 OFFCURVE",
"291 165 CURVE SMOOTH",
"335 165 OFFCURVE",
"377 176 OFFCURVE",
"418 197 CURVE",
"426 119 LINE",
"393 101 OFFCURVE",
"349 90 OFFCURVE",
"292 87 CURVE"
);
}
);
width = 477;
}
);
note = cent;
rightKerningGroup = quotesingle;
unicode = 00A2;
},
{
glyphname = sterling;
layers = (
{
layerId = "1510CF8D-377E-4EE5-87E7-F8F48863CF31";
name = Regular;
paths = (
{
closed = 1;
nodes = (
"418 580 LINE",
"395 625 OFFCURVE",
"378 645 OFFCURVE",
"327 645 CURVE SMOOTH",
"248 645 OFFCURVE",
"227 593 OFFCURVE",
"227 488 CURVE SMOOTH",
"227 385 LINE",
"424 385 LINE",
"412 326 LINE",
"223 326 LINE",
"215 219 OFFCURVE",
"205 173 OFFCURVE",
"160 72 CURVE",
"440 72 LINE",
"440 0 LINE",
"34 0 LINE",
"99 89 OFFCURVE",
"127 185 OFFCURVE",
"142 326 CURVE",
"47 326 LINE",
"58 385 LINE",
"146 385 LINE",
"146 510 LINE SMOOTH",
"146 566 OFFCURVE",
"152 604 OFFCURVE",
"173 644 CURVE SMOOTH",
"193 684 OFFCURVE",
"238 706 OFFCURVE",
"305 706 CURVE SMOOTH",
"380 706 OFFCURVE",
"427 677 OFFCURVE",
"447 618 CURVE"
);
}
);
width = 500;
}
);
note = sterling;
rightKerningGroup = quotesingle;
unicode = 00A3;
},
{
glyphname = currency;
layers = (
{
layerId = "1510CF8D-377E-4EE5-87E7-F8F48863CF31";
name = Regular;
paths = (
{
closed = 1;
nodes = (
"564 53 LINE",
"535 29 LINE",
"456 132 LINE",
"409 107 OFFCURVE",
"361 94 OFFCURVE",
"313 94 CURVE SMOOTH",
"265 94 OFFCURVE",
"217 107 OFFCURVE",
"170 132 CURVE",
"91 29 LINE",
"63 53 LINE",
"140 155 LINE",
"87 210 OFFCURVE",
"61 275 OFFCURVE",
"61 348 CURVE SMOOTH",
"61 421 OFFCURVE",
"88 486 OFFCURVE",
"141 541 CURVE",
"63 643 LINE",
"91 667 LINE",
"169 564 LINE",
"219 589 OFFCURVE",
"267 602 OFFCURVE",
"313 602 CURVE SMOOTH",
"360 602 OFFCURVE",
"408 589 OFFCURVE",
"456 563 CURVE",
"536 667 LINE",
"564 643 LINE",
"486 540 LINE",
"539 485 OFFCURVE",
"565 421 OFFCURVE",
"565 348 CURVE SMOOTH",
"565 276 OFFCURVE",
"538 211 OFFCURVE",
"485 154 CURVE"
);
},
{
closed = 1;
nodes = (
"404 522 OFFCURVE",
"364 540 OFFCURVE",
"313 540 CURVE SMOOTH",
"210 540 OFFCURVE",
"151 460 OFFCURVE",
"151 348 CURVE SMOOTH",
"151 236 OFFCURVE",
"210 156 OFFCURVE",
"313 156 CURVE SMOOTH",
"416 156 OFFCURVE",
"475 236 OFFCURVE",
"475 348 CURVE SMOOTH",
"475 404 OFFCURVE",
"461 450 OFFCURVE",
"433 486 CURVE SMOOTH"
);
}
);
width = 626;
}
);
note = currency;
rightKerningGroup = quotesingle;
unicode = 00A4;
},
{
glyphname = yen;
layers = (
{
layerId = "1510CF8D-377E-4EE5-87E7-F8F48863CF31";
name = Regular;
paths = (
{
closed = 1;
nodes = (
"646 700 LINE",
"387 316 LINE",
"555 316 LINE",
"533 266 LINE",
"386 266 LINE",
"386 200 LINE",
"555 200 LINE",
"533 146 LINE",
"386 146 LINE",
"386 0 LINE",
"290 0 LINE",
"290 146 LINE",
"112 146 LINE",
"133 200 LINE",
"290 200 LINE",
"290 266 LINE",
"112 266 LINE",
"133 316 LINE",
"289 316 LINE",
"30 700 LINE",
"123 700 LINE",
"338 393 LINE",
"553 700 LINE"
);
}
);
width = 674;
}
);
note = yen;
rightKerningGroup = quotesingle;
unicode = 00A5;
},
{
glyphname = brokenbar;
layers = (
{
layerId = "1510CF8D-377E-4EE5-87E7-F8F48863CF31";
name = Regular;
paths = (
{
closed = 1;
nodes = (
"160 308 LINE",
"72 308 LINE",
"72 750 LINE",
"160 750 LINE"
);
},
{
closed = 1;
nodes = (
"160 -210 LINE",
"72 -210 LINE",
"72 163 LINE",
"160 163 LINE"
);
}
);
width = 232;
}
);
note = brokenbar;
rightKerningGroup = quotesingle;
unicode = 00A6;
},
{
glyphname = section;
layers = (
{
layerId = "1510CF8D-377E-4EE5-87E7-F8F48863CF31";
name = Regular;
paths = (
{
closed = 1;
nodes = (
"368 147 OFFCURVE",
"374 122 OFFCURVE",
"374 69 CURVE SMOOTH",
"374 -14 OFFCURVE",
"322 -84 OFFCURVE",
"206 -84 CURVE SMOOTH",
"149 -84 OFFCURVE",
"90 -68 OFFCURVE",
"63 -45 CURVE",
"76 18 LINE",
"121 -9 OFFCURVE",
"165 -23 OFFCURVE",
"207 -23 CURVE SMOOTH",
"270 -23 OFFCURVE",
"310 5 OFFCURVE",
"310 60 CURVE SMOOTH",
"310 99 OFFCURVE",
"288 124 OFFCURVE",
"256 139 CURVE SMOOTH",
"240 146 OFFCURVE",
"222 153 OFFCURVE",
"203 159 CURVE SMOOTH",
"164 171 OFFCURVE",
"123 187 OFFCURVE",
"91 209 CURVE SMOOTH",
"59 231 OFFCURVE",
"37 273 OFFCURVE",
"37 330 CURVE SMOOTH",
"37 407 OFFCURVE",
"73 457 OFFCURVE",
"146 479 CURVE",
"94 516 OFFCURVE",
"82 548 OFFCURVE",
"82 587 CURVE SMOOTH",
"82 680 OFFCURVE",
"132 750 OFFCURVE",
"247 750 CURVE SMOOTH",
"304 750 OFFCURVE",
"353 737 OFFCURVE",
"394 710 CURVE",
"381 647 LINE",
"335 676 OFFCURVE",
"292 690 OFFCURVE",
"251 690 CURVE SMOOTH",
"192 690 OFFCURVE",
"154 652 OFFCURVE",
"154 604 CURVE SMOOTH",
"154 559 OFFCURVE",
"196 531 OFFCURVE",
"248 512 CURVE SMOOTH",
"299 493 OFFCURVE",
"355 476 OFFCURVE",
"392 426 CURVE SMOOTH",
"410 401 OFFCURVE",
"419 369 OFFCURVE",
"419 331 CURVE SMOOTH",
"419 264 OFFCURVE",
"384 217 OFFCURVE",
"315 188 CURVE"
);
},
{
closed = 1;
nodes = (
"164 437 OFFCURVE",
"105 407 OFFCURVE",
"105 342 CURVE SMOOTH",
"105 288 OFFCURVE",
"159 247 OFFCURVE",
"267 219 CURVE",
"315 232 OFFCURVE",
"345 275 OFFCURVE",
"345 324 CURVE SMOOTH",
"345 378 OFFCURVE",
"298 416 OFFCURVE",
"204 438 CURVE"
);
}
);
width = 456;
}
);
note = section;
rightKerningGroup = quotesingle;
unicode = 00A7;
},
{
glyphname = dieresis;
layers = (
{
layerId = "1510CF8D-377E-4EE5-87E7-F8F48863CF31";
name = Regular;
paths = (
{
closed = 1;
nodes = (
"335 600 LINE",
"265 600 LINE",
"265 700 LINE",
"335 700 LINE"
);
},
{
closed = 1;
nodes = (
"157 600 LINE",
"87 600 LINE",
"87 700 LINE",
"157 700 LINE"
);
}
);
width = 422;
}
);
note = dieresis;
rightKerningGroup = quotesingle;
unicode = 00A8;
},
{
glyphname = copyright;
layers = (
{
layerId = "1510CF8D-377E-4EE5-87E7-F8F48863CF31";
name = Regular;
paths = (
{
closed = 1;
nodes = (
"525 67 OFFCURVE",
"451 37 OFFCURVE",
"360 37 CURVE SMOOTH",
"179 37 OFFCURVE",
"49 169 OFFCURVE",
"49 365 CURVE SMOOTH",
"49 562 OFFCURVE",
"177 693 OFFCURVE",
"360 693 CURVE SMOOTH",
"541 693 OFFCURVE",
"670 562 OFFCURVE",
"670 365 CURVE SMOOTH",
"670 267 OFFCURVE",
"641 188 OFFCURVE",
"583 128 CURVE SMOOTH"
);
},
{
closed = 1;
nodes = (
"192 648 OFFCURVE",
"101 533 OFFCURVE",
"101 365 CURVE SMOOTH",
"101 197 OFFCURVE",
"192 81 OFFCURVE",
"360 81 CURVE SMOOTH",
"527 81 OFFCURVE",
"618 197 OFFCURVE",
"618 365 CURVE SMOOTH",
"618 533 OFFCURVE",
"527 648 OFFCURVE",
"360 648 CURVE SMOOTH"
);
},
{
closed = 1;
nodes = (
"276 197 OFFCURVE",
"211 263 OFFCURVE",
"211 363 CURVE SMOOTH",
"211 464 OFFCURVE",
"276 530 OFFCURVE",
"369 530 CURVE SMOOTH",
"400 530 OFFCURVE",
"430 524 OFFCURVE",
"459 511 CURVE",
"452 451 LINE",
"421 464 OFFCURVE",
"393 470 OFFCURVE",
"369 470 CURVE SMOOTH",
"310 470 OFFCURVE",
"278 427 OFFCURVE",
"278 363 CURVE SMOOTH",
"278 300 OFFCURVE",
"310 256 OFFCURVE",
"369 256 CURVE SMOOTH",
"394 256 OFFCURVE",
"422 263 OFFCURVE",
"452 276 CURVE",
"459 217 LINE",
"434 204 OFFCURVE",
"404 197 OFFCURVE",
"369 197 CURVE SMOOTH"
);
}
);
width = 720;
}
);
note = copyright;
rightKerningGroup = quotesingle;
unicode = 00A9;
},
{
glyphname = ordfeminine;
layers = (
{
layerId = "1510CF8D-377E-4EE5-87E7-F8F48863CF31";
name = Regular;
paths = (
{
closed = 1;
nodes = (
"313 495 LINE",
"306 434 LINE",
"279 434 LINE SMOOTH",
"247 434 OFFCURVE",
"225 444 OFFCURVE",
"212 465 CURVE",
"191 444 OFFCURVE",
"161 434 OFFCURVE",
"120 434 CURVE SMOOTH",
"71 434 OFFCURVE",
"33 467 OFFCURVE",
"33 519 CURVE SMOOTH",
"33 556 OFFCURVE",
"60 586 OFFCURVE",
"97 599 CURVE SMOOTH",
"134 612 OFFCURVE",
"168 619 OFFCURVE",
"201 620 CURVE",
"200 648 OFFCURVE",
"183 662 OFFCURVE",
"148 662 CURVE SMOOTH",
"125 662 OFFCURVE",
"98 655 OFFCURVE",
"65 642 CURVE",
"59 702 LINE",
"94 717 OFFCURVE",
"130 725 OFFCURVE",
"168 725 CURVE SMOOTH",
"241 725 OFFCURVE",
"277 689 OFFCURVE",
"277 617 CURVE SMOOTH",
"277 537 LINE SMOOTH",
"277 497 OFFCURVE",
"280 495 OFFCURVE",
"303 495 CURVE SMOOTH"
);
},
{
closed = 1;
nodes = (
"202 570 LINE",
"155 569 OFFCURVE",
"112 551 OFFCURVE",
"112 522 CURVE SMOOTH",
"112 501 OFFCURVE",
"125 490 OFFCURVE",
"152 490 CURVE SMOOTH",
"170 490 OFFCURVE",
"187 496 OFFCURVE",
"202 507 CURVE"
);
}
);
width = 349;
}
);
note = ordfeminine;
rightKerningGroup = quotesingle;
unicode = 00AA;
},
{
glyphname = guillemotleft;
layers = (
{
layerId = "1510CF8D-377E-4EE5-87E7-F8F48863CF31";
name = Regular;
paths = (
{
closed = 1;
nodes = (
"523 78 LINE",
"422 78 LINE",
"275 284 LINE",
"422 490 LINE",
"523 490 LINE",
"375 284 LINE"
);
},
{
closed = 1;
nodes = (
"262 78 LINE",
"162 78 LINE",
"15 284 LINE",
"162 490 LINE",
"262 490 LINE",
"115 284 LINE"
);
}
);
width = 563;
}
);
leftKerningGroup = guillemotleft;
note = guillemotleft;
rightKerningGroup = guillemotleft;
unicode = 00AB;
},
{
glyphname = logicalnot;
layers = (
{
layerId = "1510CF8D-377E-4EE5-87E7-F8F48863CF31";
name = Regular;
paths = (
{
closed = 1;
nodes = (
"526 151 LINE",
"471 151 LINE",
"471 346 LINE",
"66 346 LINE",
"66 406 LINE",
"526 406 LINE"
);
}
);
width = 596;
}
);
note = logicalnot;
rightKerningGroup = quotesingle;
unicode = 00AC;
},
{
glyphname = uni00AD;
layers = (
{
layerId = "1510CF8D-377E-4EE5-87E7-F8F48863CF31";
name = Regular;
paths = (
{
closed = 1;
nodes = (
"367 230 LINE",
"57 230 LINE",
"57 324 LINE",
"367 324 LINE"
);
}
);
width = 424;
}
);
note = uni00AD;
rightKerningGroup = quotesingle;
unicode = 00AD;
},
{
glyphname = registered;
layers = (
{
layerId = "1510CF8D-377E-4EE5-87E7-F8F48863CF31";
name = Regular;
paths = (
{
closed = 1;
nodes = (
"525 67 OFFCURVE",
"451 37 OFFCURVE",
"360 37 CURVE SMOOTH",
"179 37 OFFCURVE",
"49 169 OFFCURVE",
"49 365 CURVE SMOOTH",
"49 562 OFFCURVE",
"177 693 OFFCURVE",
"360 693 CURVE SMOOTH",
"541 693 OFFCURVE",
"670 562 OFFCURVE",
"670 365 CURVE SMOOTH",
"670 267 OFFCURVE",
"641 188 OFFCURVE",
"583 128 CURVE SMOOTH"
);
},
{
closed = 1;
nodes = (
"192 649 OFFCURVE",
"100 533 OFFCURVE",
"100 365 CURVE SMOOTH",
"100 197 OFFCURVE",
"192 80 OFFCURVE",
"360 80 CURVE SMOOTH",
"527 80 OFFCURVE",
"619 197 OFFCURVE",
"619 365 CURVE SMOOTH",
"619 533 OFFCURVE",
"527 649 OFFCURVE",
"360 649 CURVE SMOOTH"
);
},
{
closed = 1;
nodes = (
"489 210 LINE",
"426 210 LINE",
"361 327 LINE",
"306 327 LINE",
"306 210 LINE",
"244 210 LINE",
"244 531 LINE",
"362 531 LINE SMOOTH",
"434 531 OFFCURVE",
"472 504 OFFCURVE",
"472 431 CURVE SMOOTH",
"472 397 OFFCURVE",
"454 368 OFFCURVE",
"418 344 CURVE"
);
},
{
closed = 1;
nodes = (
"306 482 LINE",
"306 383 LINE",
"346 383 LINE SMOOTH",
"387 383 OFFCURVE",
"407 400 OFFCURVE",
"407 433 CURVE SMOOTH",
"407 465 OFFCURVE",
"392 482 OFFCURVE",
"348 482 CURVE SMOOTH"
);
}
);
width = 720;
}
);
leftKerningGroup = registered;
note = registered;
rightKerningGroup = registered;
unicode = 00AE;
},
{
glyphname = degree;
layers = (
{
layerId = "1510CF8D-377E-4EE5-87E7-F8F48863CF31";
name = Regular;
paths = (
{
closed = 1;
nodes = (
"239 495 OFFCURVE",
"207 482 OFFCURVE",
"166 482 CURVE SMOOTH",
"85 482 OFFCURVE",
"34 539 OFFCURVE",
"34 618 CURVE SMOOTH",
"34 697 OFFCURVE",
"85 755 OFFCURVE",
"166 755 CURVE SMOOTH",
"247 755 OFFCURVE",
"299 697 OFFCURVE",
"299 618 CURVE SMOOTH",
"299 579 OFFCURVE",
"287 546 OFFCURVE",
"263 521 CURVE SMOOTH"
);
},
{
closed = 1;
nodes = (
"111 729 OFFCURVE",
"78 678 OFFCURVE",
"78 618 CURVE SMOOTH",
"78 558 OFFCURVE",
"111 508 OFFCURVE",
"166 508 CURVE SMOOTH",
"222 508 OFFCURVE",
"254 558 OFFCURVE",
"254 618 CURVE SMOOTH",
"254 678 OFFCURVE",
"222 729 OFFCURVE",
"166 729 CURVE SMOOTH"
);
}
);
width = 333;
}
);
note = degree;
rightKerningGroup = quotesingle;
unicode = 00B0;
},
{
glyphname = plusminus;
layers = (
{
layerId = "1510CF8D-377E-4EE5-87E7-F8F48863CF31";
name = Regular;
paths = (
{
closed = 1;
nodes = (
"434 327 LINE",
"281 327 LINE",
"281 183 LINE",
"217 183 LINE",
"217 327 LINE",
"64 327 LINE",
"64 394 LINE",
"217 394 LINE",
"217 532 LINE",
"281 532 LINE",
"281 394 LINE",
"434 394 LINE"
);
},
{
closed = 1;
nodes = (
"434 42 LINE",
"64 42 LINE",
"64 109 LINE",
"434 109 LINE"
);
}
);
width = 498;
}
);
note = plusminus;
rightKerningGroup = quotesingle;
unicode = 00B1;
},
{
glyphname = uni00B2;
layers = (
{
layerId = "1510CF8D-377E-4EE5-87E7-F8F48863CF31";
name = Regular;
paths = (
{
closed = 1;
nodes = (
"273 320 LINE",
"25 320 LINE",
"72 383 OFFCURVE",
"109 435 OFFCURVE",
"134 475 CURVE SMOOTH",
"159 514 OFFCURVE",
"175 541 OFFCURVE",
"181 556 CURVE",
"186 570 OFFCURVE",
"189 582 OFFCURVE",
"189 593 CURVE SMOOTH",
"189 626 OFFCURVE",
"168 646 OFFCURVE",
"132 646 CURVE SMOOTH",
"98 646 OFFCURVE",
"67 626 OFFCURVE",
"39 587 CURVE",
"30 652 LINE",
"45 677 OFFCURVE",
"88 706 OFFCURVE",
"147 706 CURVE SMOOTH",
"226 706 OFFCURVE",
"259 659 OFFCURVE",
"259 604 CURVE SMOOTH",
"259 559 OFFCURVE",
"224 488 OFFCURVE",
"153 390 CURVE",
"273 390 LINE"
);
}
);
width = 304;
}
);
note = uni00B2;
rightKerningGroup = quotesingle;
unicode = 00B2;
},
{
glyphname = uni00B3;
layers = (
{
layerId = "1510CF8D-377E-4EE5-87E7-F8F48863CF31";
name = Regular;
paths = (
{
closed = 1;
nodes = (
"81 312 OFFCURVE",
"28 330 OFFCURVE",
"19 342 CURVE",
"37 408 LINE",
"58 391 OFFCURVE",
"88 382 OFFCURVE",
"125 382 CURVE SMOOTH",
"177 382 OFFCURVE",
"203 399 OFFCURVE",
"203 434 CURVE SMOOTH",
"203 474 OFFCURVE",
"186 498 OFFCURVE",
"129 498 CURVE SMOOTH",
"77 498 LINE",
"83 553 LINE",
"110 553 LINE SMOOTH",
"161 553 OFFCURVE",
"187 569 OFFCURVE",
"187 601 CURVE SMOOTH",
"187 630 OFFCURVE",
"167 645 OFFCURVE",
"127 645 CURVE SMOOTH",
"94 645 OFFCURVE",
"70 639 OFFCURVE",
"56 628 CURVE",
"45 681 LINE",
"63 698 OFFCURVE",
"93 706 OFFCURVE",
"136 706 CURVE SMOOTH",
"229 706 OFFCURVE",
"262 657 OFFCURVE",
"262 605 CURVE SMOOTH",
"262 570 OFFCURVE",
"249 545 OFFCURVE",
"223 530 CURVE",
"259 509 OFFCURVE",
"277 478 OFFCURVE",
"277 437 CURVE SMOOTH",
"277 358 OFFCURVE",
"209 312 OFFCURVE",
"128 312 CURVE SMOOTH"
);
}
);
width = 310;
}
);
note = uni00B3;
rightKerningGroup = quotesingle;
unicode = 00B3;
},
{
glyphname = acute;
layers = (
{
layerId = "1510CF8D-377E-4EE5-87E7-F8F48863CF31";
name = Regular;
paths = (
{
closed = 1;
nodes = (
"245 660 LINE",
"58 596 LINE",
"58 637 LINE",
"245 732 LINE"
);
}
);
width = 303;
}
);
note = acute;
rightKerningGroup = quotesingle;
unicode = 00B4;
},
{
glyphname = uni00B5;
layers = (
{
layerId = "1510CF8D-377E-4EE5-87E7-F8F48863CF31";
name = Regular;
paths = (
{
closed = 1;
nodes = (
"556 62 LINE",
"540 -10 LINE",
"514 -10 LINE SMOOTH",
"461 -10 OFFCURVE",
"426 14 OFFCURVE",
"407 63 CURVE",
"363 12 OFFCURVE",
"332 -11 OFFCURVE",
"273 -11 CURVE SMOOTH",
"230 -11 OFFCURVE",
"205 -4 OFFCURVE",
"161 27 CURVE",
"161 -242 LINE",
"73 -242 LINE",
"73 490 LINE",
"162 490 LINE",
"162 232 LINE SMOOTH",
"162 121 OFFCURVE",
"192 69 OFFCURVE",
"284 69 CURVE SMOOTH",
"335 69 OFFCURVE",
"363 84 OFFCURVE",
"400 127 CURVE",
"400 490 LINE",
"487 490 LINE",
"487 170 LINE SMOOTH",
"487 133 OFFCURVE",
"490 105 OFFCURVE",
"497 88 CURVE",
"503 71 OFFCURVE",
"515 62 OFFCURVE",
"534 62 CURVE SMOOTH"
);
}
);
width = 591;
}
);
note = uni00B5;
rightKerningGroup = quotesingle;
unicode = 00B5;
},
{
glyphname = paragraph;
layers = (
{
layerId = "1510CF8D-377E-4EE5-87E7-F8F48863CF31";
name = Regular;
paths = (
{
closed = 1;
nodes = (
"580 633 LINE",
"505 633 LINE",
"505 0 LINE",
"457 0 LINE",
"457 633 LINE",
"356 633 LINE",
"356 0 LINE",
"315 0 LINE",
"315 243 LINE",
"130 254 OFFCURVE",
"33 355 OFFCURVE",
"33 474 CURVE SMOOTH",
"33 595 OFFCURVE",
"136 700 OFFCURVE",
"321 700 CURVE SMOOTH",
"580 700 LINE"
);
}
);
width = 622;
}
);
note = paragraph;
rightKerningGroup = quotesingle;
unicode = 00B6;
},
{
glyphname = periodcentered;
layers = (
{
layerId = "1510CF8D-377E-4EE5-87E7-F8F48863CF31";
name = Regular;
paths = (
{
closed = 1;
nodes = (
"181 213 LINE",
"57 213 LINE",
"57 343 LINE",
"181 343 LINE"
);
}
);
width = 238;
}
);
note = periodcentered;
rightKerningGroup = quotesingle;
unicode = 00B7;
},
{
glyphname = cedilla;
layers = (
{
layerId = "1510CF8D-377E-4EE5-87E7-F8F48863CF31";
name = Regular;
paths = (
{
closed = 1;
nodes = (
"278 -54 LINE",
"190 -187 LINE",
"144 -192 LINE",
"212 -60 LINE"
);
}
);
width = 303;
}
);
note = cedilla;
rightKerningGroup = quotesingle;
unicode = 00B8;
},
{
glyphname = uni00B9;
layers = (
{
layerId = "1510CF8D-377E-4EE5-87E7-F8F48863CF31";
name = Regular;
paths = (
{
closed = 1;
nodes = (
"155 320 LINE",
"80 320 LINE",
"80 596 LINE",
"60 587 OFFCURVE",
"43 581 OFFCURVE",
"29 579 CURVE",
"23 639 LINE",
"48 643 OFFCURVE",
"87 673 OFFCURVE",
"98 698 CURVE",
"155 698 LINE"
);
}
);
width = 216;
}
);
note = uni00B9;
rightKerningGroup = quotesingle;
unicode = 00B9;
},
{
glyphname = ordmasculine;
layers = (
{
layerId = "1510CF8D-377E-4EE5-87E7-F8F48863CF31";
name = Regular;
paths = (
{
closed = 1;
nodes = (
"268 448 OFFCURVE",
"231 434 OFFCURVE",
"185 434 CURVE SMOOTH",
"93 434 OFFCURVE",
"33 499 OFFCURVE",
"33 580 CURVE SMOOTH",
"33 661 OFFCURVE",
"92 725 OFFCURVE",
"185 725 CURVE SMOOTH",
"278 725 OFFCURVE",
"337 661 OFFCURVE",
"337 580 CURVE SMOOTH",
"337 539 OFFCURVE",
"323 505 OFFCURVE",
"296 477 CURVE SMOOTH"
);
},
{
closed = 1;
nodes = (
"227 658 OFFCURVE",
"208 666 OFFCURVE",
"185 666 CURVE SMOOTH",
"138 666 OFFCURVE",
"110 631 OFFCURVE",
"110 580 CURVE SMOOTH",
"110 529 OFFCURVE",
"138 494 OFFCURVE",
"185 494 CURVE SMOOTH",
"232 494 OFFCURVE",
"260 529 OFFCURVE",
"260 580 CURVE SMOOTH",
"260 605 OFFCURVE",
"253 626 OFFCURVE",
"240 642 CURVE SMOOTH"
);
}
);
width = 370;
}
);
note = ordmasculine;
rightKerningGroup = quotesingle;
unicode = 00BA;
},
{
glyphname = guillemotright;
layers = (
{
layerId = "1510CF8D-377E-4EE5-87E7-F8F48863CF31";
name = Regular;
paths = (
{
closed = 1;
nodes = (
"548 284 LINE",
"401 78 LINE",
"301 78 LINE",
"448 284 LINE",
"301 490 LINE",
"401 490 LINE"
);
},
{
closed = 1;
nodes = (
"289 284 LINE",
"142 78 LINE",
"41 78 LINE",
"189 284 LINE",
"41 490 LINE",
"142 490 LINE"
);
}
);
width = 563;
}
);
leftKerningGroup = guillemotright;
note = guillemotright;
rightKerningGroup = guillemotright;
unicode = 00BB;
},
{
glyphname = onequarter;
layers = (
{
layerId = "1510CF8D-377E-4EE5-87E7-F8F48863CF31";
name = Regular;
paths = (
{
closed = 1;
nodes = (
"171 320 LINE",
"96 320 LINE",
"96 596 LINE",
"76 587 OFFCURVE",
"59 581 OFFCURVE",
"45 579 CURVE",
"39 639 LINE",
"64 643 OFFCURVE",
"103 673 OFFCURVE",
"114 698 CURVE",
"171 698 LINE"
);
},
{
closed = 1;
nodes = (
"539 700 LINE",
"161 -85 LINE",
"61 -85 LINE",
"439 700 LINE"
);
},
{
closed = 1;
nodes = (
"683 103 LINE",
"634 103 LINE",
"634 0 LINE",
"560 0 LINE",
"560 103 LINE",
"385 103 LINE",
"572 378 LINE",
"634 378 LINE",
"634 160 LINE",
"683 160 LINE"
);
},
{
closed = 1;
nodes = (
"560 160 LINE",
"560 270 LINE",
"486 160 LINE"
);
}
);
width = 717;
}
);
note = onequarter;
rightKerningGroup = quotesingle;
unicode = 00BC;
},
{
glyphname = onehalf;
layers = (
{
layerId = "1510CF8D-377E-4EE5-87E7-F8F48863CF31";
name = Regular;
paths = (
{
closed = 1;
nodes = (
"536 700 LINE",
"158 -85 LINE",
"58 -85 LINE",
"436 700 LINE"
);
},
{
closed = 1;
nodes = (
"694 0 LINE",
"446 0 LINE",
"493 63 OFFCURVE",
"530 115 OFFCURVE",
"555 155 CURVE SMOOTH",
"580 194 OFFCURVE",
"596 221 OFFCURVE",
"602 236 CURVE",
"607 250 OFFCURVE",
"610 262 OFFCURVE",
"610 273 CURVE SMOOTH",
"610 306 OFFCURVE",
"589 326 OFFCURVE",
"553 326 CURVE SMOOTH",
"519 326 OFFCURVE",
"488 306 OFFCURVE",
"460 267 CURVE",
"451 332 LINE",
"466 357 OFFCURVE",
"509 386 OFFCURVE",
"568 386 CURVE SMOOTH",
"647 386 OFFCURVE",
"680 339 OFFCURVE",
"680 284 CURVE SMOOTH",
"680 239 OFFCURVE",
"645 168 OFFCURVE",
"574 70 CURVE",
"694 70 LINE"
);
},
{
closed = 1;
nodes = (
"168 320 LINE",
"93 320 LINE",
"93 596 LINE",
"73 587 OFFCURVE",
"56 581 OFFCURVE",
"42 579 CURVE",
"36 639 LINE",
"61 643 OFFCURVE",
"100 673 OFFCURVE",
"111 698 CURVE",
"168 698 LINE"
);
}
);
width = 729;
}
);
note = onehalf;
rightKerningGroup = quotesingle;
unicode = 00BD;
},
{
glyphname = threequarters;
layers = (
{
layerId = "1510CF8D-377E-4EE5-87E7-F8F48863CF31";
name = Regular;
paths = (
{
closed = 1;
nodes = (
"708 700 LINE",
"330 -85 LINE",
"230 -85 LINE",
"608 700 LINE"
);
},
{
closed = 1;
nodes = (
"94 312 OFFCURVE",
"41 330 OFFCURVE",
"32 342 CURVE",
"50 408 LINE",
"71 391 OFFCURVE",
"101 382 OFFCURVE",
"138 382 CURVE SMOOTH",
"190 382 OFFCURVE",
"216 399 OFFCURVE",
"216 434 CURVE SMOOTH",
"216 474 OFFCURVE",
"199 498 OFFCURVE",
"142 498 CURVE SMOOTH",
"90 498 LINE",
"96 553 LINE",
"123 553 LINE SMOOTH",
"174 553 OFFCURVE",
"200 569 OFFCURVE",
"200 601 CURVE SMOOTH",
"200 630 OFFCURVE",
"180 645 OFFCURVE",
"140 645 CURVE SMOOTH",
"107 645 OFFCURVE",
"83 639 OFFCURVE",
"69 628 CURVE",
"58 681 LINE",
"76 698 OFFCURVE",
"106 706 OFFCURVE",
"149 706 CURVE SMOOTH",
"242 706 OFFCURVE",
"275 657 OFFCURVE",
"275 605 CURVE SMOOTH",
"275 570 OFFCURVE",
"262 545 OFFCURVE",
"236 530 CURVE",
"272 509 OFFCURVE",
"290 478 OFFCURVE",
"290 437 CURVE SMOOTH",
"290 358 OFFCURVE",
"222 312 OFFCURVE",
"141 312 CURVE SMOOTH"
);
},
{
closed = 1;
nodes = (
"850 103 LINE",
"801 103 LINE",
"801 0 LINE",
"727 0 LINE",
"727 103 LINE",
"552 103 LINE",
"739 378 LINE",
"801 378 LINE",
"801 160 LINE",
"850 160 LINE"
);
},
{
closed = 1;
nodes = (
"727 160 LINE",
"727 270 LINE",
"653 160 LINE"
);
}
);
width = 885;
}
);
note = threequarters;
rightKerningGroup = quotesingle;
unicode = 00BE;
},
{
glyphname = questiondown;
layers = (
{
layerId = "1510CF8D-377E-4EE5-87E7-F8F48863CF31";
name = Regular;
paths = (
{
closed = 1;
nodes = (
"233 300 LINE",
"292 300 LINE",
"294 273 OFFCURVE",
"295 258 OFFCURVE",
"295 255 CURVE SMOOTH",
"295 200 OFFCURVE",
"257 139 OFFCURVE",
"220 99 CURVE SMOOTH",
"183 58 OFFCURVE",
"145 -4 OFFCURVE",
"145 -61 CURVE SMOOTH",
"145 -141 OFFCURVE",
"204 -184 OFFCURVE",
"273 -184 CURVE SMOOTH",
"333 -184 OFFCURVE",
"389 -147 OFFCURVE",
"404 -116 CURVE",
"429 -183 LINE",
"404 -222 OFFCURVE",
"341 -250 OFFCURVE",
"270 -250 CURVE SMOOTH",
"143 -250 OFFCURVE",
"62 -155 OFFCURVE",
"62 -63 CURVE SMOOTH",
"62 -16 OFFCURVE",
"89 37 OFFCURVE",
"122 80 CURVE SMOOTH",
"172 145 LINE SMOOTH",
"207 188 OFFCURVE",
"233 234 OFFCURVE",
"233 273 CURVE SMOOTH"
);
},
{
closed = 1;
nodes = (
"215 500 LINE",
"306 500 LINE",
"306 414 LINE",
"215 414 LINE"
);
}
);
width = 449;
}
);
note = questiondown;
rightKerningGroup = questiondown;
unicode = 00BF;
},
{
glyphname = Aacute;
lastChange = "2015-10-19 22:23:58 +0000";
layers = (
{
components = (
{
name = acutecomb.case;
}
);
layerId = "1510CF8D-377E-4EE5-87E7-F8F48863CF31";
name = Regular;
paths = (
{
closed = 1;
nodes = (
"609 0 LINE",
"509 0 LINE",
"442 189 LINE",
"174 189 LINE",
"107 0 LINE",
"7 0 LINE",
"258 700 LINE",
"358 700 LINE"
);
},
{
closed = 1;
nodes = (
"412 275 LINE",
"308 567 LINE",
"204 275 LINE"
);
}
);
width = 616;
}
);
leftKerningGroup = A;
note = Aacute;
rightKerningGroup = A;
unicode = 00C1;
},
{
glyphname = Acircumflex;
lastChange = "2015-10-19 22:24:08 +0000";
layers = (
{
components = (
{
name = circumflexcomb.case;
}
);
layerId = "1510CF8D-377E-4EE5-87E7-F8F48863CF31";
name = Regular;
paths = (
{
closed = 1;
nodes = (
"609 0 LINE",
"509 0 LINE",
"442 189 LINE",
"174 189 LINE",
"107 0 LINE",
"7 0 LINE",
"258 700 LINE",
"358 700 LINE"
);
},
{
closed = 1;
nodes = (
"412 275 LINE",
"308 567 LINE",
"204 275 LINE"
);
}
);
width = 616;
}
);
leftKerningGroup = A;
note = Acircumflex;
rightKerningGroup = A;
unicode = 00C2;
},
{
glyphname = Atilde;
lastChange = "2015-10-19 22:24:30 +0000";
layers = (
{
components = (
{
name = tildecomb.case;
}
);
layerId = "1510CF8D-377E-4EE5-87E7-F8F48863CF31";
name = Regular;
paths = (
{
closed = 1;
nodes = (
"609 0 LINE",
"509 0 LINE",
"442 189 LINE",
"174 189 LINE",
"107 0 LINE",
"7 0 LINE",
"258 700 LINE",
"358 700 LINE"
);
},
{
closed = 1;
nodes = (
"412 275 LINE",
"308 567 LINE",
"204 275 LINE"
);
}
);
width = 616;
}
);
leftKerningGroup = A;
note = Atilde;
rightKerningGroup = A;
unicode = 00C3;
},
{
glyphname = Adieresis;
lastChange = "2015-10-19 22:24:38 +0000";
layers = (
{
components = (
{
name = dieresiscomb.case;
}
);
layerId = "1510CF8D-377E-4EE5-87E7-F8F48863CF31";
name = Regular;
paths = (
{
closed = 1;
nodes = (
"609 0 LINE",
"509 0 LINE",
"442 189 LINE",
"174 189 LINE",
"107 0 LINE",
"7 0 LINE",
"258 700 LINE",
"358 700 LINE"
);
},
{
closed = 1;
nodes = (
"412 275 LINE",
"308 567 LINE",
"204 275 LINE"
);
}
);
width = 616;
}
);
leftKerningGroup = A;
note = Adieresis;
rightKerningGroup = A;
unicode = 00C4;
},
{
glyphname = Aring;
lastChange = "2015-10-19 22:25:56 +0000";
layers = (
{
components = (
{
name = ringcomb.case;
}
);
layerId = "1510CF8D-377E-4EE5-87E7-F8F48863CF31";
name = Regular;
paths = (
{
closed = 1;
nodes = (
"609 0 LINE",
"509 0 LINE",
"442 189 LINE",
"174 189 LINE",
"107 0 LINE",
"7 0 LINE",
"258 700 LINE",
"358 700 LINE"
);
},
{
closed = 1;
nodes = (
"412 275 LINE",
"308 567 LINE",
"204 275 LINE"
);
}
);
width = 616;
}
);
leftKerningGroup = A;
note = Aring;
rightKerningGroup = A;
unicode = 00C5;
},
{
glyphname = AE;
layers = (
{
layerId = "1510CF8D-377E-4EE5-87E7-F8F48863CF31";
name = Regular;
paths = (
{
closed = 1;
nodes = (
"828 0 LINE",
"392 0 LINE",
"392 180 LINE",
"178 180 LINE",
"86 0 LINE",
"-7 0 LINE",
"335 700 LINE",
"818 700 LINE",
"818 613 LINE",
"506 613 LINE",
"506 409 LINE",
"747 409 LINE",
"747 323 LINE",
"506 323 LINE",
"506 86 LINE",
"828 86 LINE"
);
},
{
closed = 1;
nodes = (
"392 272 LINE",
"392 611 LINE",
"221 272 LINE"
);
}
);
width = 865;
}
);
leftKerningGroup = AE;
note = AE;
rightKerningGroup = E;
unicode = 00C6;
},
{
glyphname = Egrave;
layers = (
{
layerId = "1510CF8D-377E-4EE5-87E7-F8F48863CF31";
name = Regular;
paths = (
{
closed = 1;
nodes = (
"516 0 LINE",
"80 0 LINE",
"80 700 LINE",
"507 700 LINE",
"507 614 LINE",
"175 614 LINE",
"175 409 LINE",
"439 409 LINE",
"439 323 LINE",
"175 323 LINE",
"175 86 LINE",
"516 86 LINE"
);
},
{
closed = 1;
nodes = (
"370 806 LINE",
"183 870 LINE",
"183 942 LINE",
"370 847 LINE"
);
}
);
width = 554;
}
);
leftKerningGroup = E;
note = Egrave;
rightKerningGroup = E;
unicode = 00C8;
},
{
glyphname = Eacute;
layers = (
{
layerId = "1510CF8D-377E-4EE5-87E7-F8F48863CF31";
name = Regular;
paths = (
{
closed = 1;
nodes = (
"516 0 LINE",
"80 0 LINE",
"80 700 LINE",
"507 700 LINE",
"507 614 LINE",
"175 614 LINE",
"175 409 LINE",
"439 409 LINE",
"439 323 LINE",
"175 323 LINE",
"175 86 LINE",
"516 86 LINE"
);
},
{
closed = 1;
nodes = (
"370 870 LINE",
"183 806 LINE",
"183 847 LINE",
"370 942 LINE"
);
}
);
width = 554;
}
);
leftKerningGroup = E;
note = Eacute;
rightKerningGroup = E;
unicode = 00C9;
},
{
glyphname = Ecircumflex;
layers = (
{
layerId = "1510CF8D-377E-4EE5-87E7-F8F48863CF31";
name = Regular;
paths = (
{
closed = 1;
nodes = (
"516 0 LINE",
"80 0 LINE",
"80 700 LINE",
"507 700 LINE",
"507 614 LINE",
"175 614 LINE",
"175 409 LINE",
"439 409 LINE",
"439 323 LINE",
"175 323 LINE",
"175 86 LINE",
"516 86 LINE"
);
},
{
closed = 1;
nodes = (
"423 813 LINE",
"276 895 LINE",
"129 813 LINE",
"129 849 LINE",
"276 955 LINE",
"423 849 LINE"
);
}
);
width = 554;
}
);
leftKerningGroup = E;
note = Ecircumflex;
rightKerningGroup = E;
unicode = 00CA;
},
{
glyphname = Edieresis;
layers = (
{
layerId = "1510CF8D-377E-4EE5-87E7-F8F48863CF31";
name = Regular;
paths = (
{
closed = 1;
nodes = (
"516 0 LINE",
"80 0 LINE",
"80 700 LINE",
"507 700 LINE",
"507 614 LINE",
"175 614 LINE",
"175 409 LINE",
"439 409 LINE",
"439 323 LINE",
"175 323 LINE",
"175 86 LINE",
"516 86 LINE"
);
},
{
closed = 1;
nodes = (
"400 810 LINE",
"330 810 LINE",
"330 910 LINE",
"400 910 LINE"
);
},
{
closed = 1;
nodes = (
"222 810 LINE",
"152 810 LINE",
"152 910 LINE",
"222 910 LINE"
);
}
);
width = 554;
}
);
leftKerningGroup = E;
note = Edieresis;
rightKerningGroup = E;
unicode = 00CB;
},
{
glyphname = Igrave;
layers = (
{
layerId = "1510CF8D-377E-4EE5-87E7-F8F48863CF31";
name = Regular;
paths = (
{
closed = 1;
nodes = (
"175 0 LINE",
"80 0 LINE",
"80 700 LINE",
"175 700 LINE"
);
},
{
closed = 1;
nodes = (
"222 806 LINE",
"35 870 LINE",
"35 942 LINE",
"222 847 LINE"
);
}
);
width = 255;
}
);
leftKerningGroup = B;
note = Igrave;
rightKerningGroup = H;
unicode = 00CC;
},
{
glyphname = Iacute;
layers = (
{
layerId = "1510CF8D-377E-4EE5-87E7-F8F48863CF31";
name = Regular;
paths = (
{
closed = 1;
nodes = (
"175 0 LINE",
"80 0 LINE",
"80 700 LINE",
"175 700 LINE"
);
},
{
closed = 1;
nodes = (
"222 870 LINE",
"35 806 LINE",
"35 847 LINE",
"222 942 LINE"
);
}
);
width = 255;
}
);
leftKerningGroup = B;
note = Iacute;
rightKerningGroup = H;
unicode = 00CD;
},
{
glyphname = Icircumflex;
layers = (
{
layerId = "1510CF8D-377E-4EE5-87E7-F8F48863CF31";
name = Regular;
paths = (
{
closed = 1;
nodes = (
"175 0 LINE",
"80 0 LINE",
"80 700 LINE",
"175 700 LINE"
);
},
{
closed = 1;
nodes = (
"275 813 LINE",
"128 895 LINE",
"-19 813 LINE",
"-19 849 LINE",
"128 955 LINE",
"275 849 LINE"
);
}
);
width = 255;
}
);
leftKerningGroup = B;
note = Icircumflex;
rightKerningGroup = H;
unicode = 00CE;
},
{
glyphname = Idieresis;
layers = (
{
layerId = "1510CF8D-377E-4EE5-87E7-F8F48863CF31";
name = Regular;
paths = (
{
closed = 1;
nodes = (
"175 0 LINE",
"80 0 LINE",
"80 700 LINE",
"175 700 LINE"
);
},
{
closed = 1;
nodes = (
"252 810 LINE",
"182 810 LINE",
"182 910 LINE",
"252 910 LINE"
);
},
{
closed = 1;
nodes = (
"74 810 LINE",
"4 810 LINE",
"4 910 LINE",
"74 910 LINE"
);
}
);
width = 255;
}
);
leftKerningGroup = B;
note = Idieresis;
rightKerningGroup = H;
unicode = 00CF;
},
{
glyphname = Eth;
layers = (
{
layerId = "1510CF8D-377E-4EE5-87E7-F8F48863CF31";
name = Regular;
paths = (
{
closed = 1;
nodes = (
"89 0 LINE",
"89 313 LINE",
"-8 313 LINE",
"-8 377 LINE",
"89 377 LINE",
"89 700 LINE",
"345 700 LINE SMOOTH",
"550 700 OFFCURVE",
"690 567 OFFCURVE",
"690 350 CURVE SMOOTH",
"690 133 OFFCURVE",
"550 0 OFFCURVE",
"345 0 CURVE SMOOTH"
);
},
{
closed = 1;
nodes = (
"179 614 LINE",
"179 377 LINE",
"312 377 LINE",
"312 313 LINE",
"179 313 LINE",
"179 87 LINE",
"345 87 LINE SMOOTH",
"502 87 OFFCURVE",
"588 187 OFFCURVE",
"588 350 CURVE SMOOTH",
"588 513 OFFCURVE",
"502 614 OFFCURVE",
"345 614 CURVE SMOOTH"
);
}
);
width = 730;
}
);
leftKerningGroup = B;
note = Eth;
rightKerningGroup = D;
unicode = 00D0;
},
{
glyphname = Ntilde;
layers = (
{
layerId = "1510CF8D-377E-4EE5-87E7-F8F48863CF31";
name = Regular;
paths = (
{
closed = 1;
nodes = (
"624 0 LINE",
"543 0 LINE",
"175 553 LINE",
"175 0 LINE",
"80 0 LINE",
"80 700 LINE",
"183 700 LINE",
"528 176 LINE",
"528 700 LINE",
"624 700 LINE"
);
},
{
closed = 1;
nodes = (
"405 809 OFFCURVE",
"383 818 OFFCURVE",
"350 835 CURVE SMOOTH",
"317 852 OFFCURVE",
"296 860 OFFCURVE",
"286 860 CURVE SMOOTH",
"251 860 OFFCURVE",
"227 844 OFFCURVE",
"215 811 CURVE",
"179 820 LINE",
"194 880 OFFCURVE",
"241 910 OFFCURVE",
"282 910 CURVE SMOOTH",
"296 910 OFFCURVE",
"320 902 OFFCURVE",
"354 886 CURVE SMOOTH",
"388 869 OFFCURVE",
"411 861 OFFCURVE",
"422 861 CURVE SMOOTH",
"450 861 OFFCURVE",
"473 878 OFFCURVE",
"491 912 CURVE",
"525 903 LINE",
"510 846 OFFCURVE",
"469 809 OFFCURVE",
"418 809 CURVE SMOOTH"
);
}
);
width = 704;
}
);
leftKerningGroup = B;
note = Ntilde;
rightKerningGroup = H;
unicode = 00D1;
},
{
glyphname = Ograve;
layers = (
{
layerId = "1510CF8D-377E-4EE5-87E7-F8F48863CF31";
name = Regular;
paths = (
{
closed = 1;
nodes = (
"568 19 OFFCURVE",
"485 -14 OFFCURVE",
"384 -14 CURVE SMOOTH",
"181 -14 OFFCURVE",
"39 130 OFFCURVE",
"39 350 CURVE SMOOTH",
"39 570 OFFCURVE",
"181 714 OFFCURVE",
"384 714 CURVE SMOOTH",
"587 714 OFFCURVE",
"729 570 OFFCURVE",
"729 350 CURVE SMOOTH",
"729 240 OFFCURVE",
"697 152 OFFCURVE",
"633 86 CURVE SMOOTH"
);
},
{
closed = 1;
nodes = (
"521 602 OFFCURVE",
"461 628 OFFCURVE",
"384 628 CURVE SMOOTH",
"229 628 OFFCURVE",
"143 513 OFFCURVE",
"143 350 CURVE SMOOTH",
"143 187 OFFCURVE",
"229 72 OFFCURVE",
"384 72 CURVE SMOOTH",
"539 72 OFFCURVE",
"625 187 OFFCURVE",
"625 350 CURVE SMOOTH",
"625 431 OFFCURVE",
"604 498 OFFCURVE",
"563 550 CURVE SMOOTH"
);
},
{
closed = 1;
nodes = (
"477 806 LINE",
"290 870 LINE",
"290 942 LINE",
"477 847 LINE"
);
}
);
width = 768;
}
);
leftKerningGroup = C;
note = Ograve;
rightKerningGroup = O;
unicode = 00D2;
},
{
glyphname = Oacute;
layers = (
{
layerId = "1510CF8D-377E-4EE5-87E7-F8F48863CF31";
name = Regular;
paths = (
{
closed = 1;
nodes = (
"568 19 OFFCURVE",
"485 -14 OFFCURVE",
"384 -14 CURVE SMOOTH",
"181 -14 OFFCURVE",
"39 130 OFFCURVE",
"39 350 CURVE SMOOTH",
"39 570 OFFCURVE",
"181 714 OFFCURVE",
"384 714 CURVE SMOOTH",
"587 714 OFFCURVE",
"729 570 OFFCURVE",
"729 350 CURVE SMOOTH",
"729 240 OFFCURVE",
"697 152 OFFCURVE",
"633 86 CURVE SMOOTH"
);
},
{
closed = 1;
nodes = (
"521 602 OFFCURVE",
"461 628 OFFCURVE",
"384 628 CURVE SMOOTH",
"229 628 OFFCURVE",
"143 513 OFFCURVE",
"143 350 CURVE SMOOTH",
"143 187 OFFCURVE",
"229 72 OFFCURVE",
"384 72 CURVE SMOOTH",
"539 72 OFFCURVE",
"625 187 OFFCURVE",
"625 350 CURVE SMOOTH",
"625 431 OFFCURVE",
"604 498 OFFCURVE",
"563 550 CURVE SMOOTH"
);
},
{
closed = 1;
nodes = (
"477 870 LINE",
"290 806 LINE",
"290 847 LINE",
"477 942 LINE"
);
}
);
width = 768;
}
);
leftKerningGroup = C;
note = Oacute;
rightKerningGroup = O;
unicode = 00D3;
},
{
glyphname = Ocircumflex;
layers = (
{
layerId = "1510CF8D-377E-4EE5-87E7-F8F48863CF31";
name = Regular;
paths = (
{
closed = 1;
nodes = (
"568 19 OFFCURVE",
"485 -14 OFFCURVE",
"384 -14 CURVE SMOOTH",
"181 -14 OFFCURVE",
"39 130 OFFCURVE",
"39 350 CURVE SMOOTH",
"39 570 OFFCURVE",
"181 714 OFFCURVE",
"384 714 CURVE SMOOTH",
"587 714 OFFCURVE",
"729 570 OFFCURVE",
"729 350 CURVE SMOOTH",
"729 240 OFFCURVE",
"697 152 OFFCURVE",
"633 86 CURVE SMOOTH"
);
},
{
closed = 1;
nodes = (
"521 602 OFFCURVE",
"461 628 OFFCURVE",
"384 628 CURVE SMOOTH",
"229 628 OFFCURVE",
"143 513 OFFCURVE",
"143 350 CURVE SMOOTH",
"143 187 OFFCURVE",
"229 72 OFFCURVE",
"384 72 CURVE SMOOTH",
"539 72 OFFCURVE",
"625 187 OFFCURVE",
"625 350 CURVE SMOOTH",
"625 431 OFFCURVE",
"604 498 OFFCURVE",
"563 550 CURVE SMOOTH"
);
},
{
closed = 1;
nodes = (
"531 813 LINE",
"384 895 LINE",
"237 813 LINE",
"237 849 LINE",
"384 955 LINE",
"531 849 LINE"
);
}
);
width = 768;
}
);
leftKerningGroup = C;
note = Ocircumflex;
rightKerningGroup = O;
unicode = 00D4;
},
{
glyphname = Otilde;
layers = (
{
layerId = "1510CF8D-377E-4EE5-87E7-F8F48863CF31";
name = Regular;
paths = (
{
closed = 1;
nodes = (
"568 19 OFFCURVE",
"485 -14 OFFCURVE",
"384 -14 CURVE SMOOTH",
"181 -14 OFFCURVE",
"39 130 OFFCURVE",
"39 350 CURVE SMOOTH",
"39 570 OFFCURVE",
"181 714 OFFCURVE",
"384 714 CURVE SMOOTH",
"587 714 OFFCURVE",
"729 570 OFFCURVE",
"729 350 CURVE SMOOTH",
"729 240 OFFCURVE",
"697 152 OFFCURVE",
"633 86 CURVE SMOOTH"
);
},
{
closed = 1;
nodes = (
"521 602 OFFCURVE",
"461 628 OFFCURVE",
"384 628 CURVE SMOOTH",
"229 628 OFFCURVE",
"143 513 OFFCURVE",
"143 350 CURVE SMOOTH",
"143 187 OFFCURVE",
"229 72 OFFCURVE",
"384 72 CURVE SMOOTH",
"539 72 OFFCURVE",
"625 187 OFFCURVE",
"625 350 CURVE SMOOTH",
"625 431 OFFCURVE",
"604 498 OFFCURVE",
"563 550 CURVE SMOOTH"
);
},
{
closed = 1;
nodes = (
"437 809 OFFCURVE",
"415 818 OFFCURVE",
"382 835 CURVE SMOOTH",
"349 852 OFFCURVE",
"328 860 OFFCURVE",
"318 860 CURVE SMOOTH",
"283 860 OFFCURVE",
"259 844 OFFCURVE",
"247 811 CURVE",
"211 820 LINE",
"226 880 OFFCURVE",
"273 910 OFFCURVE",
"314 910 CURVE SMOOTH",
"328 910 OFFCURVE",
"352 902 OFFCURVE",
"386 886 CURVE SMOOTH",
"420 869 OFFCURVE",
"443 861 OFFCURVE",
"454 861 CURVE SMOOTH",
"482 861 OFFCURVE",
"505 878 OFFCURVE",
"523 912 CURVE",
"557 903 LINE",
"542 846 OFFCURVE",
"501 809 OFFCURVE",
"450 809 CURVE SMOOTH"
);
}
);
width = 768;
}
);
leftKerningGroup = C;
note = Otilde;
rightKerningGroup = O;
unicode = 00D5;
},
{
glyphname = Odieresis;
layers = (
{
layerId = "1510CF8D-377E-4EE5-87E7-F8F48863CF31";
name = Regular;
paths = (
{
closed = 1;
nodes = (
"568 19 OFFCURVE",
"485 -14 OFFCURVE",
"384 -14 CURVE SMOOTH",
"181 -14 OFFCURVE",
"39 130 OFFCURVE",
"39 350 CURVE SMOOTH",
"39 570 OFFCURVE",
"181 714 OFFCURVE",
"384 714 CURVE SMOOTH",
"587 714 OFFCURVE",
"729 570 OFFCURVE",
"729 350 CURVE SMOOTH",
"729 240 OFFCURVE",
"697 152 OFFCURVE",
"633 86 CURVE SMOOTH"
);
},
{
closed = 1;
nodes = (
"521 602 OFFCURVE",
"461 628 OFFCURVE",
"384 628 CURVE SMOOTH",
"229 628 OFFCURVE",
"143 513 OFFCURVE",
"143 350 CURVE SMOOTH",
"143 187 OFFCURVE",
"229 72 OFFCURVE",
"384 72 CURVE SMOOTH",
"539 72 OFFCURVE",
"625 187 OFFCURVE",
"625 350 CURVE SMOOTH",
"625 431 OFFCURVE",
"604 498 OFFCURVE",
"563 550 CURVE SMOOTH"
);
},
{
closed = 1;
nodes = (
"508 810 LINE",
"438 810 LINE",
"438 910 LINE",
"508 910 LINE"
);
},
{
closed = 1;
nodes = (
"330 810 LINE",
"260 810 LINE",
"260 910 LINE",
"330 910 LINE"
);
}
);
width = 768;
}
);
leftKerningGroup = C;
note = Odieresis;
rightKerningGroup = O;
unicode = 00D6;
},
{
glyphname = multiply;
layers = (
{
layerId = "1510CF8D-377E-4EE5-87E7-F8F48863CF31";
name = Regular;
paths = (
{
closed = 1;
nodes = (
"378 155 LINE",
"342 119 LINE",
"219 242 LINE",
"97 119 LINE",
"61 155 LINE",
"184 277 LINE",
"61 399 LINE",
"97 435 LINE",
"219 312 LINE",
"342 435 LINE",
"378 399 LINE",
"254 277 LINE"
);
}
);
width = 439;
}
);
note = multiply;
rightKerningGroup = quotesingle;
unicode = 00D7;
},
{
glyphname = Oslash;
layers = (
{
layerId = "1510CF8D-377E-4EE5-87E7-F8F48863CF31";
name = Regular;
paths = (
{
closed = 1;
nodes = (
"323 -12 OFFCURVE",
"264 2 OFFCURVE",
"207 31 CURVE",
"165 -30 LINE",
"72 -30 LINE",
"145 75 LINE",
"74 151 OFFCURVE",
"39 243 OFFCURVE",
"39 350 CURVE SMOOTH",
"39 570 OFFCURVE",
"181 714 OFFCURVE",
"384 714 CURVE SMOOTH",
"442 714 OFFCURVE",
"499 700 OFFCURVE",
"556 672 CURVE",
"587 716 LINE",
"679 716 LINE",
"618 627 LINE",
"692 553 OFFCURVE",
"729 460 OFFCURVE",
"729 349 CURVE SMOOTH",
"729 132 OFFCURVE",
"587 -12 OFFCURVE",
"383 -12 CURVE SMOOTH"
);
},
{
closed = 1;
nodes = (
"260 105 LINE",
"305 86 OFFCURVE",
"346 76 OFFCURVE",
"384 76 CURVE SMOOTH",
"537 76 OFFCURVE",
"621 189 OFFCURVE",
"621 352 CURVE SMOOTH",
"621 435 OFFCURVE",
"602 501 OFFCURVE",
"563 548 CURVE"
);
},
{
closed = 1;
nodes = (
"231 625 OFFCURVE",
"147 512 OFFCURVE",
"147 349 CURVE SMOOTH",
"147 284 OFFCURVE",
"165 220 OFFCURVE",
"202 156 CURVE",
"503 597 LINE",
"458 616 OFFCURVE",
"418 625 OFFCURVE",
"383 625 CURVE SMOOTH"
);
}
);
width = 767;
}
);
leftKerningGroup = C;
note = Oslash;
rightKerningGroup = O;
unicode = 00D8;
},
{
glyphname = Ugrave;
layers = (
{
layerId = "1510CF8D-377E-4EE5-87E7-F8F48863CF31";
name = Regular;
paths = (
{
closed = 1;
nodes = (
"532 13 OFFCURVE",
"460 -14 OFFCURVE",
"363 -14 CURVE SMOOTH",
"170 -14 OFFCURVE",
"73 100 OFFCURVE",
"73 297 CURVE SMOOTH",
"73 700 LINE",
"168 700 LINE",
"168 343 LINE SMOOTH",
"168 283 OFFCURVE",
"172 237 OFFCURVE",
"189 189 CURVE SMOOTH",
"206 140 OFFCURVE",
"231 108 OFFCURVE",
"279 88 CURVE",
"303 77 OFFCURVE",
"331 72 OFFCURVE",
"363 72 CURVE SMOOTH",
"427 72 OFFCURVE",
"476 95 OFFCURVE",
"504 128 CURVE SMOOTH",
"531 160 OFFCURVE",
"549 214 OFFCURVE",
"554 262 CURVE SMOOTH",
"557 286 OFFCURVE",
"558 313 OFFCURVE",
"558 343 CURVE SMOOTH",
"558 700 LINE",
"653 700 LINE",
"653 297 LINE SMOOTH",
"653 198 OFFCURVE",
"629 122 OFFCURVE",
"581 68 CURVE SMOOTH"
);
},
{
closed = 1;
nodes = (
"456 806 LINE",
"269 870 LINE",
"269 942 LINE",
"456 847 LINE"
);
}
);
width = 726;
}
);
leftKerningGroup = U;
note = Ugrave;
rightKerningGroup = U;
unicode = 00D9;
},
{
glyphname = Uacute;
layers = (
{
layerId = "1510CF8D-377E-4EE5-87E7-F8F48863CF31";
name = Regular;
paths = (
{
closed = 1;
nodes = (
"532 13 OFFCURVE",
"460 -14 OFFCURVE",
"363 -14 CURVE SMOOTH",
"170 -14 OFFCURVE",
"73 100 OFFCURVE",
"73 297 CURVE SMOOTH",
"73 700 LINE",
"168 700 LINE",
"168 343 LINE SMOOTH",
"168 283 OFFCURVE",
"172 237 OFFCURVE",
"189 189 CURVE SMOOTH",
"206 140 OFFCURVE",
"231 108 OFFCURVE",
"279 88 CURVE",
"303 77 OFFCURVE",
"331 72 OFFCURVE",
"363 72 CURVE SMOOTH",
"427 72 OFFCURVE",
"476 95 OFFCURVE",
"504 128 CURVE SMOOTH",
"531 160 OFFCURVE",
"549 214 OFFCURVE",
"554 262 CURVE SMOOTH",
"557 286 OFFCURVE",
"558 313 OFFCURVE",
"558 343 CURVE SMOOTH",
"558 700 LINE",
"653 700 LINE",
"653 297 LINE SMOOTH",
"653 198 OFFCURVE",
"629 122 OFFCURVE",
"581 68 CURVE SMOOTH"
);
},
{
closed = 1;
nodes = (
"456 870 LINE",
"269 806 LINE",
"269 847 LINE",
"456 942 LINE"
);
}
);
width = 726;
}
);
leftKerningGroup = U;
note = Uacute;
rightKerningGroup = U;
unicode = 00DA;
},
{
glyphname = Ucircumflex;
layers = (
{
layerId = "1510CF8D-377E-4EE5-87E7-F8F48863CF31";
name = Regular;
paths = (
{
closed = 1;
nodes = (
"532 13 OFFCURVE",
"460 -14 OFFCURVE",
"363 -14 CURVE SMOOTH",
"170 -14 OFFCURVE",
"73 100 OFFCURVE",
"73 297 CURVE SMOOTH",
"73 700 LINE",
"168 700 LINE",
"168 343 LINE SMOOTH",
"168 283 OFFCURVE",
"172 237 OFFCURVE",
"189 189 CURVE SMOOTH",
"206 140 OFFCURVE",
"231 108 OFFCURVE",
"279 88 CURVE",
"303 77 OFFCURVE",
"331 72 OFFCURVE",
"363 72 CURVE SMOOTH",
"427 72 OFFCURVE",
"476 95 OFFCURVE",
"504 128 CURVE SMOOTH",
"531 160 OFFCURVE",
"549 214 OFFCURVE",
"554 262 CURVE SMOOTH",
"557 286 OFFCURVE",
"558 313 OFFCURVE",
"558 343 CURVE SMOOTH",
"558 700 LINE",
"653 700 LINE",
"653 297 LINE SMOOTH",
"653 198 OFFCURVE",
"629 122 OFFCURVE",
"581 68 CURVE SMOOTH"
);
},
{
closed = 1;
nodes = (
"510 813 LINE",
"363 895 LINE",
"216 813 LINE",
"216 849 LINE",
"363 955 LINE",
"510 849 LINE"
);
}
);
width = 726;
}
);
leftKerningGroup = U;
note = Ucircumflex;
rightKerningGroup = U;
unicode = 00DB;
},
{
glyphname = Udieresis;
layers = (
{
layerId = "1510CF8D-377E-4EE5-87E7-F8F48863CF31";
name = Regular;
paths = (
{
closed = 1;
nodes = (
"532 13 OFFCURVE",
"460 -14 OFFCURVE",
"363 -14 CURVE SMOOTH",
"170 -14 OFFCURVE",
"73 100 OFFCURVE",
"73 297 CURVE SMOOTH",
"73 700 LINE",
"168 700 LINE",
"168 343 LINE SMOOTH",
"168 283 OFFCURVE",
"172 237 OFFCURVE",
"189 189 CURVE SMOOTH",
"206 140 OFFCURVE",
"231 108 OFFCURVE",
"279 88 CURVE",
"303 77 OFFCURVE",
"331 72 OFFCURVE",
"363 72 CURVE SMOOTH",
"427 72 OFFCURVE",
"476 95 OFFCURVE",
"504 128 CURVE SMOOTH",
"531 160 OFFCURVE",
"549 214 OFFCURVE",
"554 262 CURVE SMOOTH",
"557 286 OFFCURVE",
"558 313 OFFCURVE",
"558 343 CURVE SMOOTH",
"558 700 LINE",
"653 700 LINE",
"653 297 LINE SMOOTH",
"653 198 OFFCURVE",
"629 122 OFFCURVE",
"581 68 CURVE SMOOTH"
);
},
{
closed = 1;
nodes = (
"487 810 LINE",
"417 810 LINE",
"417 910 LINE",
"487 910 LINE"
);
},
{
closed = 1;
nodes = (
"309 810 LINE",
"239 810 LINE",
"239 910 LINE",
"309 910 LINE"
);
}
);
width = 726;
}
);
leftKerningGroup = U;
note = Udieresis;
rightKerningGroup = U;
unicode = 00DC;
},
{
glyphname = Yacute;
layers = (
{
layerId = "1510CF8D-377E-4EE5-87E7-F8F48863CF31";
name = Regular;
paths = (
{
closed = 1;
nodes = (
"569 700 LINE",
"333 323 LINE",
"333 0 LINE",
"234 0 LINE",
"234 323 LINE",
"-3 700 LINE",
"97 700 LINE",
"283 409 LINE",
"469 700 LINE"
);
},
{
closed = 1;
nodes = (
"389 870 LINE",
"202 806 LINE",
"202 847 LINE",
"389 942 LINE"
);
}
);
width = 567;
}
);
leftKerningGroup = Y;
note = Yacute;
rightKerningGroup = Y;
unicode = 00DD;
},
{
glyphname = Thorn;
layers = (
{
layerId = "1510CF8D-377E-4EE5-87E7-F8F48863CF31";
name = Regular;
paths = (
{
closed = 1;
nodes = (
"180 206 LINE",
"180 0 LINE",
"80 0 LINE",
"80 700 LINE",
"180 700 LINE",
"180 560 LINE",
"248 560 LINE SMOOTH",
"471 560 OFFCURVE",
"550 528 OFFCURVE",
"550 392 CURVE SMOOTH",
"550 256 OFFCURVE",
"465 206 OFFCURVE",
"248 206 CURVE SMOOTH"
);
},
{
closed = 1;
nodes = (
"180 503 LINE",
"180 261 LINE",
"284 261 LINE SMOOTH",
"398 261 OFFCURVE",
"455 302 OFFCURVE",
"455 385 CURVE SMOOTH",
"455 470 OFFCURVE",
"404 503 OFFCURVE",
"284 503 CURVE SMOOTH"
);
}
);
width = 570;
}
);
leftKerningGroup = B;
note = Thorn;
rightKerningGroup = Thorn;
unicode = 00DE;
},
{
glyphname = germandbls;
layers = (
{
layerId = "1510CF8D-377E-4EE5-87E7-F8F48863CF31";
name = Regular;
paths = (
{
closed = 1;
nodes = (
"302 -15 OFFCURVE",
"292 -14 OFFCURVE",
"281 -13 CURVE",
"276 -12 OFFCURVE",
"271 -12 OFFCURVE",
"267 -12 CURVE",
"267 48 LINE",
"395 51 OFFCURVE",
"458 72 OFFCURVE",
"458 144 CURVE SMOOTH",
"458 187 OFFCURVE",
"432 228 OFFCURVE",
"398 257 CURVE SMOOTH",
"381 271 OFFCURVE",
"364 284 OFFCURVE",
"347 297 CURVE SMOOTH",
"314 321 OFFCURVE",
"287 345 OFFCURVE",
"287 364 CURVE SMOOTH",
"287 383 OFFCURVE",
"317 412 OFFCURVE",
"346 440 CURVE SMOOTH",
"375 467 OFFCURVE",
"405 518 OFFCURVE",
"405 570 CURVE SMOOTH",
"405 649 OFFCURVE",
"348 685 OFFCURVE",
"285 685 CURVE SMOOTH",
"217 685 OFFCURVE",
"176 638 OFFCURVE",
"176 573 CURVE SMOOTH",
"176 -136 LINE",
"90 -136 LINE",
"90 439 LINE",
"16 439 LINE",
"23 500 LINE",
"90 500 LINE",
"90 568 LINE SMOOTH",
"90 673 OFFCURVE",
"186 750 OFFCURVE",
"285 750 CURVE SMOOTH",
"378 750 OFFCURVE",
"476 687 OFFCURVE",
"476 578 CURVE SMOOTH",
"476 523 OFFCURVE",
"447 468 OFFCURVE",
"419 439 CURVE SMOOTH",
"380 398 LINE SMOOTH",
"368 385 OFFCURVE",
"362 376 OFFCURVE",
"362 371 CURVE SMOOTH",
"362 365 OFFCURVE",
"371 355 OFFCURVE",
"390 340 CURVE SMOOTH",
"451 294 LINE SMOOTH",
"495 262 OFFCURVE",
"540 201 OFFCURVE",
"540 140 CURVE SMOOTH",
"540 40 OFFCURVE",
"441 -15 OFFCURVE",
"317 -15 CURVE SMOOTH"
);
}
);
width = 557;
}
);
leftKerningGroup = germandbls;
note = germandbls;
rightKerningGroup = germandbls;
unicode = 00DF;
},
{
glyphname = agrave;
layers = (
{
layerId = "1510CF8D-377E-4EE5-87E7-F8F48863CF31";
name = Regular;
paths = (
{
closed = 1;
nodes = (
"472 62 LINE",
"458 -10 LINE",
"451 -10 LINE SMOOTH",
"371 -10 OFFCURVE",
"348 10 OFFCURVE",
"325 62 CURVE",
"284 14 OFFCURVE",
"234 -10 OFFCURVE",
"175 -10 CURVE SMOOTH",
"84 -10 OFFCURVE",
"24 49 OFFCURVE",
"24 132 CURVE SMOOTH",
"24 197 OFFCURVE",
"64 247 OFFCURVE",
"125 271 CURVE SMOOTH",
"185 295 OFFCURVE",
"248 306 OFFCURVE",
"317 307 CURVE",
"317 395 OFFCURVE",
"285 420 OFFCURVE",
"210 420 CURVE SMOOTH",
"167 420 OFFCURVE",
"124 405 OFFCURVE",
"81 376 CURVE",
"68 449 LINE",
"112 483 OFFCURVE",
"167 500 OFFCURVE",
"234 500 CURVE SMOOTH",
"359 500 OFFCURVE",
"407 440 OFFCURVE",
"407 265 CURVE SMOOTH",
"407 165 LINE SMOOTH",
"407 88 OFFCURVE",
"415 62 OFFCURVE",
"463 62 CURVE SMOOTH"
);
},
{
closed = 1;
nodes = (
"317 245 LINE",
"173 240 OFFCURVE",
"116 210 OFFCURVE",
"116 137 CURVE SMOOTH",
"116 87 OFFCURVE",
"141 62 OFFCURVE",
"192 62 CURVE SMOOTH",
"240 62 OFFCURVE",
"288 88 OFFCURVE",
"317 128 CURVE"
);
},
{
closed = 1;
nodes = (
"333 596 LINE",
"146 660 LINE",
"146 732 LINE",
"333 637 LINE"
);
}
);
width = 480;
}
);
leftKerningGroup = a;
note = agrave;
rightKerningGroup = a;
unicode = 00E0;
},
{
glyphname = aacute;
layers = (
{
layerId = "1510CF8D-377E-4EE5-87E7-F8F48863CF31";
name = Regular;
paths = (
{
closed = 1;
nodes = (
"472 62 LINE",
"458 -10 LINE",
"451 -10 LINE SMOOTH",
"371 -10 OFFCURVE",
"348 10 OFFCURVE",
"325 62 CURVE",
"284 14 OFFCURVE",
"234 -10 OFFCURVE",
"175 -10 CURVE SMOOTH",
"84 -10 OFFCURVE",
"24 49 OFFCURVE",
"24 132 CURVE SMOOTH",
"24 197 OFFCURVE",
"64 247 OFFCURVE",
"125 271 CURVE SMOOTH",
"185 295 OFFCURVE",
"248 306 OFFCURVE",
"317 307 CURVE",
"317 395 OFFCURVE",
"285 420 OFFCURVE",
"210 420 CURVE SMOOTH",
"167 420 OFFCURVE",
"124 405 OFFCURVE",
"81 376 CURVE",
"68 449 LINE",
"112 483 OFFCURVE",
"167 500 OFFCURVE",
"234 500 CURVE SMOOTH",
"359 500 OFFCURVE",
"407 440 OFFCURVE",
"407 265 CURVE SMOOTH",
"407 165 LINE SMOOTH",
"407 88 OFFCURVE",
"415 62 OFFCURVE",
"463 62 CURVE SMOOTH"
);
},
{
closed = 1;
nodes = (
"317 245 LINE",
"173 240 OFFCURVE",
"116 210 OFFCURVE",
"116 137 CURVE SMOOTH",
"116 87 OFFCURVE",
"141 62 OFFCURVE",
"192 62 CURVE SMOOTH",
"240 62 OFFCURVE",
"288 88 OFFCURVE",
"317 128 CURVE"
);
},
{
closed = 1;
nodes = (
"333 660 LINE",
"146 596 LINE",
"146 637 LINE",
"333 732 LINE"
);
}
);
width = 480;
}
);
leftKerningGroup = a;
note = aacute;
rightKerningGroup = a;
unicode = 00E1;
},
{
glyphname = acircumflex;
layers = (
{
layerId = "1510CF8D-377E-4EE5-87E7-F8F48863CF31";
name = Regular;
paths = (
{
closed = 1;
nodes = (
"472 62 LINE",
"458 -10 LINE",
"451 -10 LINE SMOOTH",
"371 -10 OFFCURVE",
"348 10 OFFCURVE",
"325 62 CURVE",
"284 14 OFFCURVE",
"234 -10 OFFCURVE",
"175 -10 CURVE SMOOTH",
"84 -10 OFFCURVE",
"24 49 OFFCURVE",
"24 132 CURVE SMOOTH",
"24 197 OFFCURVE",
"64 247 OFFCURVE",
"125 271 CURVE SMOOTH",
"185 295 OFFCURVE",
"248 306 OFFCURVE",
"317 307 CURVE",
"317 395 OFFCURVE",
"285 420 OFFCURVE",
"210 420 CURVE SMOOTH",
"167 420 OFFCURVE",
"124 405 OFFCURVE",
"81 376 CURVE",
"68 449 LINE",
"112 483 OFFCURVE",
"167 500 OFFCURVE",
"234 500 CURVE SMOOTH",
"359 500 OFFCURVE",
"407 440 OFFCURVE",
"407 265 CURVE SMOOTH",
"407 165 LINE SMOOTH",
"407 88 OFFCURVE",
"415 62 OFFCURVE",
"463 62 CURVE SMOOTH"
);
},
{
closed = 1;
nodes = (
"317 245 LINE",
"173 240 OFFCURVE",
"116 210 OFFCURVE",
"116 137 CURVE SMOOTH",
"116 87 OFFCURVE",
"141 62 OFFCURVE",
"192 62 CURVE SMOOTH",
"240 62 OFFCURVE",
"288 88 OFFCURVE",
"317 128 CURVE"
);
},
{
closed = 1;
nodes = (
"387 603 LINE",
"240 685 LINE",
"93 603 LINE",
"93 639 LINE",
"240 745 LINE",
"387 639 LINE"
);
}
);
width = 480;
}
);
leftKerningGroup = a;
note = acircumflex;
rightKerningGroup = a;
unicode = 00E2;
},
{
glyphname = atilde;
layers = (
{
layerId = "1510CF8D-377E-4EE5-87E7-F8F48863CF31";
name = Regular;
paths = (
{
closed = 1;
nodes = (
"472 62 LINE",
"458 -10 LINE",
"451 -10 LINE SMOOTH",
"371 -10 OFFCURVE",
"348 10 OFFCURVE",
"325 62 CURVE",
"284 14 OFFCURVE",
"234 -10 OFFCURVE",
"175 -10 CURVE SMOOTH",
"84 -10 OFFCURVE",
"24 49 OFFCURVE",
"24 132 CURVE SMOOTH",
"24 197 OFFCURVE",
"64 247 OFFCURVE",
"125 271 CURVE SMOOTH",
"185 295 OFFCURVE",
"248 306 OFFCURVE",
"317 307 CURVE",
"317 395 OFFCURVE",
"285 420 OFFCURVE",
"210 420 CURVE SMOOTH",
"167 420 OFFCURVE",
"124 405 OFFCURVE",
"81 376 CURVE",
"68 449 LINE",
"112 483 OFFCURVE",
"167 500 OFFCURVE",
"234 500 CURVE SMOOTH",
"359 500 OFFCURVE",
"407 440 OFFCURVE",
"407 265 CURVE SMOOTH",
"407 165 LINE SMOOTH",
"407 88 OFFCURVE",
"415 62 OFFCURVE",
"463 62 CURVE SMOOTH"
);
},
{
closed = 1;
nodes = (
"317 245 LINE",
"173 240 OFFCURVE",
"116 210 OFFCURVE",
"116 137 CURVE SMOOTH",
"116 87 OFFCURVE",
"141 62 OFFCURVE",
"192 62 CURVE SMOOTH",
"240 62 OFFCURVE",
"288 88 OFFCURVE",
"317 128 CURVE"
);
},
{
closed = 1;
nodes = (
"289 599 OFFCURVE",
"267 608 OFFCURVE",
"234 625 CURVE SMOOTH",
"201 642 OFFCURVE",
"180 650 OFFCURVE",
"170 650 CURVE SMOOTH",
"135 650 OFFCURVE",
"111 634 OFFCURVE",
"99 601 CURVE",
"63 610 LINE",
"78 670 OFFCURVE",
"125 700 OFFCURVE",
"166 700 CURVE SMOOTH",
"180 700 OFFCURVE",
"204 692 OFFCURVE",
"238 676 CURVE SMOOTH",
"272 659 OFFCURVE",
"295 651 OFFCURVE",
"306 651 CURVE SMOOTH",
"334 651 OFFCURVE",
"357 668 OFFCURVE",
"375 702 CURVE",
"409 693 LINE",
"394 636 OFFCURVE",
"353 599 OFFCURVE",
"302 599 CURVE SMOOTH"
);
}
);
width = 480;
}
);
leftKerningGroup = a;
note = atilde;
rightKerningGroup = a;
unicode = 00E3;
},
{
glyphname = adieresis;
layers = (
{
layerId = "1510CF8D-377E-4EE5-87E7-F8F48863CF31";
name = Regular;
paths = (
{
closed = 1;
nodes = (
"472 62 LINE",
"458 -10 LINE",
"451 -10 LINE SMOOTH",
"371 -10 OFFCURVE",
"348 10 OFFCURVE",
"325 62 CURVE",
"284 14 OFFCURVE",
"234 -10 OFFCURVE",
"175 -10 CURVE SMOOTH",
"84 -10 OFFCURVE",
"24 49 OFFCURVE",
"24 132 CURVE SMOOTH",
"24 197 OFFCURVE",
"64 247 OFFCURVE",
"125 271 CURVE SMOOTH",
"185 295 OFFCURVE",
"248 306 OFFCURVE",
"317 307 CURVE",
"317 395 OFFCURVE",
"285 420 OFFCURVE",
"210 420 CURVE SMOOTH",
"167 420 OFFCURVE",
"124 405 OFFCURVE",
"81 376 CURVE",
"68 449 LINE",
"112 483 OFFCURVE",
"167 500 OFFCURVE",
"234 500 CURVE SMOOTH",
"359 500 OFFCURVE",
"407 440 OFFCURVE",
"407 265 CURVE SMOOTH",
"407 165 LINE SMOOTH",
"407 88 OFFCURVE",
"415 62 OFFCURVE",
"463 62 CURVE SMOOTH"
);
},
{
closed = 1;
nodes = (
"317 245 LINE",
"173 240 OFFCURVE",
"116 210 OFFCURVE",
"116 137 CURVE SMOOTH",
"116 87 OFFCURVE",
"141 62 OFFCURVE",
"192 62 CURVE SMOOTH",
"240 62 OFFCURVE",
"288 88 OFFCURVE",
"317 128 CURVE"
);
},
{
closed = 1;
nodes = (
"364 600 LINE",
"294 600 LINE",
"294 700 LINE",
"364 700 LINE"
);
},
{
closed = 1;
nodes = (
"186 600 LINE",
"116 600 LINE",
"116 700 LINE",
"186 700 LINE"
);
}
);
width = 480;
}
);
leftKerningGroup = a;
note = adieresis;
rightKerningGroup = a;
unicode = 00E4;
},
{
glyphname = aring;
layers = (
{
layerId = "1510CF8D-377E-4EE5-87E7-F8F48863CF31";
name = Regular;
paths = (
{
closed = 1;
nodes = (
"472 62 LINE",
"458 -10 LINE",
"451 -10 LINE SMOOTH",
"371 -10 OFFCURVE",
"348 10 OFFCURVE",
"325 62 CURVE",
"284 14 OFFCURVE",
"234 -10 OFFCURVE",
"175 -10 CURVE SMOOTH",
"84 -10 OFFCURVE",
"24 49 OFFCURVE",
"24 132 CURVE SMOOTH",
"24 197 OFFCURVE",
"64 247 OFFCURVE",
"125 271 CURVE SMOOTH",
"185 295 OFFCURVE",
"248 306 OFFCURVE",
"317 307 CURVE",
"317 395 OFFCURVE",
"285 420 OFFCURVE",
"210 420 CURVE SMOOTH",
"167 420 OFFCURVE",
"124 405 OFFCURVE",
"81 376 CURVE",
"68 449 LINE",
"112 483 OFFCURVE",
"167 500 OFFCURVE",
"234 500 CURVE SMOOTH",
"359 500 OFFCURVE",
"407 440 OFFCURVE",
"407 265 CURVE SMOOTH",
"407 165 LINE SMOOTH",
"407 88 OFFCURVE",
"415 62 OFFCURVE",
"463 62 CURVE SMOOTH"
);
},
{
closed = 1;
nodes = (
"317 245 LINE",
"173 240 OFFCURVE",
"116 210 OFFCURVE",
"116 137 CURVE SMOOTH",
"116 87 OFFCURVE",
"141 62 OFFCURVE",
"192 62 CURVE SMOOTH",
"240 62 OFFCURVE",
"288 88 OFFCURVE",
"317 128 CURVE"
);
},
{
closed = 1;
nodes = (
"175 576 OFFCURVE",
"136 616 OFFCURVE",
"136 665 CURVE SMOOTH",
"136 714 OFFCURVE",
"175 755 OFFCURVE",
"240 755 CURVE SMOOTH",
"305 755 OFFCURVE",
"344 714 OFFCURVE",
"344 665 CURVE SMOOTH",
"344 616 OFFCURVE",
"307 576 OFFCURVE",
"240 576 CURVE SMOOTH"
);
},
{
closed = 1;
nodes = (
"271 719 OFFCURVE",
"257 724 OFFCURVE",
"240 724 CURVE SMOOTH",
"207 724 OFFCURVE",
"180 700 OFFCURVE",
"180 665 CURVE SMOOTH",
"180 629 OFFCURVE",
"208 605 OFFCURVE",
"240 605 CURVE SMOOTH",
"272 605 OFFCURVE",
"300 629 OFFCURVE",
"300 665 CURVE SMOOTH",
"300 682 OFFCURVE",
"294 697 OFFCURVE",
"283 708 CURVE"
);
}
);
width = 480;
}
);
leftKerningGroup = a;
note = aring;
rightKerningGroup = a;
unicode = 00E5;
},
{
glyphname = ae;
layers = (
{
layerId = "1510CF8D-377E-4EE5-87E7-F8F48863CF31";
name = Regular;
paths = (
{
closed = 1;
nodes = (
"428 245 LINE",
"428 126 OFFCURVE",
"493 62 OFFCURVE",
"593 62 CURVE SMOOTH",
"637 62 OFFCURVE",
"662 71 OFFCURVE",
"727 99 CURVE",
"744 30 LINE",
"685 3 OFFCURVE",
"630 -10 OFFCURVE",
"581 -10 CURVE SMOOTH",
"482 -10 OFFCURVE",
"415 28 OFFCURVE",
"380 103 CURVE",
"345 27 OFFCURVE",
"267 -14 OFFCURVE",
"172 -14 CURVE SMOOTH",
"73 -14 OFFCURVE",
"22 35 OFFCURVE",
"22 118 CURVE SMOOTH",
"22 234 OFFCURVE",
"122 297 OFFCURVE",
"323 307 CURVE",
"311 388 OFFCURVE",
"280 420 OFFCURVE",
"205 420 CURVE SMOOTH",
"168 420 OFFCURVE",
"128 410 OFFCURVE",
"83 391 CURVE",
"75 461 LINE",
"131 487 OFFCURVE",
"183 500 OFFCURVE",
"231 500 CURVE SMOOTH",
"259 500 OFFCURVE",
"287 494 OFFCURVE",
"321 478 CURVE SMOOTH",
"355 462 OFFCURVE",
"382 428 OFFCURVE",
"390 380 CURVE",
"417 463 OFFCURVE",
"492 500 OFFCURVE",
"577 500 CURVE SMOOTH",
"693 500 OFFCURVE",
"768 427 OFFCURVE",
"768 300 CURVE SMOOTH",
"768 285 OFFCURVE",
"767 266 OFFCURVE",
"764 245 CURVE"
);
},
{
closed = 1;
nodes = (
"502 420 OFFCURVE",
"456 382 OFFCURVE",
"436 307 CURVE",
"682 307 LINE",
"682 382 OFFCURVE",
"646 420 OFFCURVE",
"573 420 CURVE SMOOTH"
);
},
{
closed = 1;
nodes = (
"262 245 OFFCURVE",
"198 233 OFFCURVE",
"150 196 CURVE SMOOTH",
"126 177 OFFCURVE",
"114 154 OFFCURVE",
"114 126 CURVE SMOOTH",
"114 83 OFFCURVE",
"140 62 OFFCURVE",
"192 62 CURVE SMOOTH",
"267 62 OFFCURVE",
"333 106 OFFCURVE",
"333 198 CURVE SMOOTH",
"333 217 OFFCURVE",
"332 233 OFFCURVE",
"331 245 CURVE"
);
}
);
width = 798;
}
);
leftKerningGroup = a;
note = ae;
rightKerningGroup = e;
unicode = 00E6;
},
{
glyphname = ccedilla;
layers = (
{
layerId = "1510CF8D-377E-4EE5-87E7-F8F48863CF31";
name = Regular;
paths = (
{
closed = 1;
nodes = (
"121 -10 OFFCURVE",
"33 101 OFFCURVE",
"33 246 CURVE SMOOTH",
"33 395 OFFCURVE",
"119 500 OFFCURVE",
"276 500 CURVE SMOOTH",
"341 500 OFFCURVE",
"392 490 OFFCURVE",
"427 471 CURVE",
"413 390 LINE",
"372 410 OFFCURVE",
"329 420 OFFCURVE",
"286 420 CURVE SMOOTH",
"179 420 OFFCURVE",
"125 357 OFFCURVE",
"125 246 CURVE SMOOTH",
"125 135 OFFCURVE",
"179 69 OFFCURVE",
"286 69 CURVE SMOOTH",
"330 69 OFFCURVE",
"373 79 OFFCURVE",
"414 99 CURVE",
"426 27 LINE",
"389 2 OFFCURVE",
"339 -10 OFFCURVE",
"277 -10 CURVE SMOOTH"
);
},
{
closed = 1;
nodes = (
"326 -54 LINE",
"238 -187 LINE",
"192 -192 LINE",
"260 -60 LINE"
);
}
);
width = 454;
}
);
leftKerningGroup = c;
note = ccedilla;
rightKerningGroup = c;
unicode = 00E7;
},
{
glyphname = egrave;
layers = (
{
layerId = "1510CF8D-377E-4EE5-87E7-F8F48863CF31";
name = Regular;
paths = (
{
closed = 1;
nodes = (
"123 245 LINE",
"134 128 OFFCURVE",
"196 70 OFFCURVE",
"307 70 CURVE SMOOTH",
"358 70 OFFCURVE",
"405 80 OFFCURVE",
"448 99 CURVE",
"460 28 LINE",
"403 3 OFFCURVE",
"349 -10 OFFCURVE",
"296 -10 CURVE SMOOTH",
"129 -10 OFFCURVE",
"31 101 OFFCURVE",
"31 249 CURVE SMOOTH",
"31 392 OFFCURVE",
"124 500 OFFCURVE",
"271 500 CURVE SMOOTH",
"396 500 OFFCURVE",
"482 422 OFFCURVE",
"482 293 CURVE SMOOTH",
"482 276 OFFCURVE",
"481 260 OFFCURVE",
"478 245 CURVE"
);
},
{
closed = 1;
nodes = (
"196 420 OFFCURVE",
"150 382 OFFCURVE",
"131 307 CURVE",
"389 307 LINE",
"389 378 OFFCURVE",
"349 420 OFFCURVE",
"269 420 CURVE SMOOTH"
);
},
{
closed = 1;
nodes = (
"349 596 LINE",
"162 660 LINE",
"162 732 LINE",
"349 637 LINE"
);
}
);
width = 512;
}
);
leftKerningGroup = c;
note = egrave;
rightKerningGroup = e;
unicode = 00E8;
},
{
glyphname = eacute;
layers = (
{
layerId = "1510CF8D-377E-4EE5-87E7-F8F48863CF31";
name = Regular;
paths = (
{
closed = 1;
nodes = (
"123 245 LINE",
"134 128 OFFCURVE",
"196 70 OFFCURVE",
"307 70 CURVE SMOOTH",
"358 70 OFFCURVE",
"405 80 OFFCURVE",
"448 99 CURVE",
"460 28 LINE",
"403 3 OFFCURVE",
"349 -10 OFFCURVE",
"296 -10 CURVE SMOOTH",
"129 -10 OFFCURVE",
"31 101 OFFCURVE",
"31 249 CURVE SMOOTH",
"31 392 OFFCURVE",
"124 500 OFFCURVE",
"271 500 CURVE SMOOTH",
"396 500 OFFCURVE",
"482 422 OFFCURVE",
"482 293 CURVE SMOOTH",
"482 276 OFFCURVE",
"481 260 OFFCURVE",
"478 245 CURVE"
);
},
{
closed = 1;
nodes = (
"196 420 OFFCURVE",
"150 382 OFFCURVE",
"131 307 CURVE",
"389 307 LINE",
"389 378 OFFCURVE",
"349 420 OFFCURVE",
"269 420 CURVE SMOOTH"
);
},
{
closed = 1;
nodes = (
"349 660 LINE",
"162 596 LINE",
"162 637 LINE",
"349 732 LINE"
);
}
);
width = 512;
}
);
leftKerningGroup = c;
note = eacute;
rightKerningGroup = e;
unicode = 00E9;
},
{
glyphname = ecircumflex;
layers = (
{
layerId = "1510CF8D-377E-4EE5-87E7-F8F48863CF31";
name = Regular;
paths = (
{
closed = 1;
nodes = (
"123 245 LINE",
"134 128 OFFCURVE",
"196 70 OFFCURVE",
"307 70 CURVE SMOOTH",
"358 70 OFFCURVE",
"405 80 OFFCURVE",
"448 99 CURVE",
"460 28 LINE",
"403 3 OFFCURVE",
"349 -10 OFFCURVE",
"296 -10 CURVE SMOOTH",
"129 -10 OFFCURVE",
"31 101 OFFCURVE",
"31 249 CURVE SMOOTH",
"31 392 OFFCURVE",
"124 500 OFFCURVE",
"271 500 CURVE SMOOTH",
"396 500 OFFCURVE",
"482 422 OFFCURVE",
"482 293 CURVE SMOOTH",
"482 276 OFFCURVE",
"481 260 OFFCURVE",
"478 245 CURVE"
);
},
{
closed = 1;
nodes = (
"196 420 OFFCURVE",
"150 382 OFFCURVE",
"131 307 CURVE",
"389 307 LINE",
"389 378 OFFCURVE",
"349 420 OFFCURVE",
"269 420 CURVE SMOOTH"
);
},
{
closed = 1;
nodes = (
"402 603 LINE",
"255 685 LINE",
"108 603 LINE",
"108 639 LINE",
"255 745 LINE",
"402 639 LINE"
);
}
);
width = 512;
}
);
leftKerningGroup = c;
note = ecircumflex;
rightKerningGroup = e;
unicode = 00EA;
},
{
glyphname = edieresis;
layers = (
{
layerId = "1510CF8D-377E-4EE5-87E7-F8F48863CF31";
name = Regular;
paths = (
{
closed = 1;
nodes = (
"123 245 LINE",
"134 128 OFFCURVE",
"196 70 OFFCURVE",
"307 70 CURVE SMOOTH",
"358 70 OFFCURVE",
"405 80 OFFCURVE",
"448 99 CURVE",
"460 28 LINE",
"403 3 OFFCURVE",
"349 -10 OFFCURVE",
"296 -10 CURVE SMOOTH",
"129 -10 OFFCURVE",
"31 101 OFFCURVE",
"31 249 CURVE SMOOTH",
"31 392 OFFCURVE",
"124 500 OFFCURVE",
"271 500 CURVE SMOOTH",
"396 500 OFFCURVE",
"482 422 OFFCURVE",
"482 293 CURVE SMOOTH",
"482 276 OFFCURVE",
"481 260 OFFCURVE",
"478 245 CURVE"
);
},
{
closed = 1;
nodes = (
"196 420 OFFCURVE",
"150 382 OFFCURVE",
"131 307 CURVE",
"389 307 LINE",
"389 378 OFFCURVE",
"349 420 OFFCURVE",
"269 420 CURVE SMOOTH"
);
},
{
closed = 1;
nodes = (
"379 600 LINE",
"309 600 LINE",
"309 700 LINE",
"379 700 LINE"
);
},
{
closed = 1;
nodes = (
"201 600 LINE",
"131 600 LINE",
"131 700 LINE",
"201 700 LINE"
);
}
);
width = 512;
}
);
leftKerningGroup = c;
note = edieresis;
rightKerningGroup = e;
unicode = 00EB;
},
{
glyphname = igrave;
layers = (
{
layerId = "1510CF8D-377E-4EE5-87E7-F8F48863CF31";
name = Regular;
paths = (
{
closed = 1;
nodes = (
"151 0 LINE",
"61 0 LINE",
"61 490 LINE",
"151 490 LINE"
);
},
{
closed = 1;
nodes = (
"200 596 LINE",
"13 660 LINE",
"13 732 LINE",
"200 637 LINE"
);
}
);
width = 212;
}
);
leftKerningGroup = i;
note = igrave;
rightKerningGroup = i;
unicode = 00EC;
},
{
glyphname = iacute;
layers = (
{
layerId = "1510CF8D-377E-4EE5-87E7-F8F48863CF31";
name = Regular;
paths = (
{
closed = 1;
nodes = (
"151 0 LINE",
"61 0 LINE",
"61 490 LINE",
"151 490 LINE"
);
},
{
closed = 1;
nodes = (
"200 660 LINE",
"13 596 LINE",
"13 637 LINE",
"200 732 LINE"
);
}
);
width = 212;
}
);
leftKerningGroup = i;
note = iacute;
rightKerningGroup = i;
unicode = 00ED;
},
{
glyphname = icircumflex;
layers = (
{
layerId = "1510CF8D-377E-4EE5-87E7-F8F48863CF31";
name = Regular;
paths = (
{
closed = 1;
nodes = (
"151 0 LINE",
"61 0 LINE",
"61 490 LINE",
"151 490 LINE"
);
},
{
closed = 1;
nodes = (
"253 603 LINE",
"106 685 LINE",
"-41 603 LINE",
"-41 639 LINE",
"106 745 LINE",
"253 639 LINE"
);
}
);
width = 212;
}
);
leftKerningGroup = i;
note = icircumflex;
rightKerningGroup = i;
unicode = 00EE;
},
{
glyphname = idieresis;
layers = (
{
layerId = "1510CF8D-377E-4EE5-87E7-F8F48863CF31";
name = Regular;
paths = (
{
closed = 1;
nodes = (
"151 0 LINE",
"61 0 LINE",
"61 490 LINE",
"151 490 LINE"
);
},
{
closed = 1;
nodes = (
"230 600 LINE",
"160 600 LINE",
"160 700 LINE",
"230 700 LINE"
);
},
{
closed = 1;
nodes = (
"52 600 LINE",
"-18 600 LINE",
"-18 700 LINE",
"52 700 LINE"
);
}
);
width = 212;
}
);
leftKerningGroup = i;
note = idieresis;
rightKerningGroup = i;
unicode = 00EF;
},
{
glyphname = eth;
layers = (
{
layerId = "1510CF8D-377E-4EE5-87E7-F8F48863CF31";
name = Regular;
paths = (
{
closed = 1;
nodes = (
"122 -12 OFFCURVE",
"28 78 OFFCURVE",
"28 201 CURVE SMOOTH",
"28 316 OFFCURVE",
"103 426 OFFCURVE",
"239 426 CURVE SMOOTH",
"296 426 OFFCURVE",
"341 408 OFFCURVE",
"374 371 CURVE",
"365 436 OFFCURVE",
"329 527 OFFCURVE",
"288 560 CURVE",
"237 525 OFFCURVE",
"190 504 OFFCURVE",
"147 498 CURVE",
"117 553 LINE",
"159 559 OFFCURVE",
"202 576 OFFCURVE",
"245 605 CURVE",
"205 641 OFFCURVE",
"165 659 OFFCURVE",
"124 659 CURVE",
"156 701 LINE",
"203 701 OFFCURVE",
"253 683 OFFCURVE",
"305 646 CURVE",
"326 665 OFFCURVE",
"346 687 OFFCURVE",
"364 710 CURVE",
"410 698 LINE",
"395 676 OFFCURVE",
"372 648 OFFCURVE",
"341 614 CURVE",
"428 535 OFFCURVE",
"484 394 OFFCURVE",
"484 257 CURVE SMOOTH",
"484 156 OFFCURVE",
"451 78 OFFCURVE",
"403 41 CURVE SMOOTH",
"354 4 OFFCURVE",
"304 -12 OFFCURVE",
"249 -12 CURVE SMOOTH"
);
},
{
closed = 1;
nodes = (
"178 343 OFFCURVE",
"128 282 OFFCURVE",
"128 210 CURVE SMOOTH",
"128 131 OFFCURVE",
"178 71 OFFCURVE",
"253 71 CURVE SMOOTH",
"325 71 OFFCURVE",
"373 128 OFFCURVE",
"373 208 CURVE SMOOTH",
"373 288 OFFCURVE",
"326 343 OFFCURVE",
"254 343 CURVE SMOOTH"
);
}
);
width = 517;
}
);
leftKerningGroup = eth;
note = eth;
rightKerningGroup = eth;
unicode = 00F0;
},
{
glyphname = ntilde;
layers = (
{
layerId = "1510CF8D-377E-4EE5-87E7-F8F48863CF31";
name = Regular;
paths = (
{
closed = 1;
nodes = (
"503 0 LINE",
"413 0 LINE",
"413 270 LINE SMOOTH",
"413 375 OFFCURVE",
"377 420 OFFCURVE",
"285 420 CURVE SMOOTH",
"220 420 OFFCURVE",
"175 399 OFFCURVE",
"151 356 CURVE",
"151 0 LINE",
"61 0 LINE",
"61 490 LINE",
"131 490 LINE",
"141 438 LINE",
"187 479 OFFCURVE",
"241 500 OFFCURVE",
"303 500 CURVE SMOOTH",
"436 500 OFFCURVE",
"503 423 OFFCURVE",
"503 270 CURVE SMOOTH"
);
},
{
closed = 1;
nodes = (
"332 599 OFFCURVE",
"310 608 OFFCURVE",
"277 625 CURVE SMOOTH",
"244 642 OFFCURVE",
"223 650 OFFCURVE",
"213 650 CURVE SMOOTH",
"178 650 OFFCURVE",
"154 634 OFFCURVE",
"142 601 CURVE",
"106 610 LINE",
"121 670 OFFCURVE",
"168 700 OFFCURVE",
"209 700 CURVE SMOOTH",
"223 700 OFFCURVE",
"247 692 OFFCURVE",
"281 676 CURVE SMOOTH",
"315 659 OFFCURVE",
"338 651 OFFCURVE",
"349 651 CURVE SMOOTH",
"377 651 OFFCURVE",
"400 668 OFFCURVE",
"418 702 CURVE",
"452 693 LINE",
"437 636 OFFCURVE",
"396 599 OFFCURVE",
"345 599 CURVE SMOOTH"
);
}
);
width = 559;
}
);
leftKerningGroup = m;
note = ntilde;
rightKerningGroup = h;
unicode = 00F1;
},
{
glyphname = ograve;
layers = (
{
layerId = "1510CF8D-377E-4EE5-87E7-F8F48863CF31";
name = Regular;
paths = (
{
closed = 1;
nodes = (
"409 14 OFFCURVE",
"350 -10 OFFCURVE",
"275 -10 CURVE SMOOTH",
"126 -10 OFFCURVE",
"32 98 OFFCURVE",
"32 245 CURVE SMOOTH",
"32 392 OFFCURVE",
"126 500 OFFCURVE",
"275 500 CURVE SMOOTH",
"424 500 OFFCURVE",
"518 392 OFFCURVE",
"518 245 CURVE SMOOTH",
"518 172 OFFCURVE",
"496 111 OFFCURVE",
"453 63 CURVE SMOOTH"
);
},
{
closed = 1;
nodes = (
"360 405 OFFCURVE",
"323 420 OFFCURVE",
"275 420 CURVE SMOOTH",
"179 420 OFFCURVE",
"124 356 OFFCURVE",
"124 245 CURVE SMOOTH",
"124 134 OFFCURVE",
"179 70 OFFCURVE",
"275 70 CURVE SMOOTH",
"371 70 OFFCURVE",
"426 134 OFFCURVE",
"426 245 CURVE SMOOTH",
"426 300 OFFCURVE",
"413 343 OFFCURVE",
"387 374 CURVE SMOOTH"
);
},
{
closed = 1;
nodes = (
"368 596 LINE",
"181 660 LINE",
"181 732 LINE",
"368 637 LINE"
);
}
);
width = 550;
}
);
leftKerningGroup = c;
note = ograve;
rightKerningGroup = o;
unicode = 00F2;
},
{
glyphname = oacute;
layers = (
{
layerId = "1510CF8D-377E-4EE5-87E7-F8F48863CF31";
name = Regular;
paths = (
{
closed = 1;
nodes = (
"409 14 OFFCURVE",
"350 -10 OFFCURVE",
"275 -10 CURVE SMOOTH",
"126 -10 OFFCURVE",
"32 98 OFFCURVE",
"32 245 CURVE SMOOTH",
"32 392 OFFCURVE",
"126 500 OFFCURVE",
"275 500 CURVE SMOOTH",
"424 500 OFFCURVE",
"518 392 OFFCURVE",
"518 245 CURVE SMOOTH",
"518 172 OFFCURVE",
"496 111 OFFCURVE",
"453 63 CURVE SMOOTH"
);
},
{
closed = 1;
nodes = (
"360 405 OFFCURVE",
"323 420 OFFCURVE",
"275 420 CURVE SMOOTH",
"179 420 OFFCURVE",
"124 356 OFFCURVE",
"124 245 CURVE SMOOTH",
"124 134 OFFCURVE",
"179 70 OFFCURVE",
"275 70 CURVE SMOOTH",
"371 70 OFFCURVE",
"426 134 OFFCURVE",
"426 245 CURVE SMOOTH",
"426 300 OFFCURVE",
"413 343 OFFCURVE",
"387 374 CURVE SMOOTH"
);
},
{
closed = 1;
nodes = (
"368 660 LINE",
"181 596 LINE",
"181 637 LINE",
"368 732 LINE"
);
}
);
width = 550;
}
);
leftKerningGroup = c;
note = oacute;
rightKerningGroup = o;
unicode = 00F3;
},
{
glyphname = ocircumflex;
layers = (
{
layerId = "1510CF8D-377E-4EE5-87E7-F8F48863CF31";
name = Regular;
paths = (
{
closed = 1;
nodes = (
"409 14 OFFCURVE",
"350 -10 OFFCURVE",
"275 -10 CURVE SMOOTH",
"126 -10 OFFCURVE",
"32 98 OFFCURVE",
"32 245 CURVE SMOOTH",
"32 392 OFFCURVE",
"126 500 OFFCURVE",
"275 500 CURVE SMOOTH",
"424 500 OFFCURVE",
"518 392 OFFCURVE",
"518 245 CURVE SMOOTH",
"518 172 OFFCURVE",
"496 111 OFFCURVE",
"453 63 CURVE SMOOTH"
);
},
{
closed = 1;
nodes = (
"360 405 OFFCURVE",
"323 420 OFFCURVE",
"275 420 CURVE SMOOTH",
"179 420 OFFCURVE",
"124 356 OFFCURVE",
"124 245 CURVE SMOOTH",
"124 134 OFFCURVE",
"179 70 OFFCURVE",
"275 70 CURVE SMOOTH",
"371 70 OFFCURVE",
"426 134 OFFCURVE",
"426 245 CURVE SMOOTH",
"426 300 OFFCURVE",
"413 343 OFFCURVE",
"387 374 CURVE SMOOTH"
);
},
{
closed = 1;
nodes = (
"422 603 LINE",
"275 685 LINE",
"128 603 LINE",
"128 639 LINE",
"275 745 LINE",
"422 639 LINE"
);
}
);
width = 550;
}
);
leftKerningGroup = c;
note = ocircumflex;
rightKerningGroup = o;
unicode = 00F4;
},
{
glyphname = otilde;
layers = (
{
layerId = "1510CF8D-377E-4EE5-87E7-F8F48863CF31";
name = Regular;
paths = (
{
closed = 1;
nodes = (
"409 14 OFFCURVE",
"350 -10 OFFCURVE",
"275 -10 CURVE SMOOTH",
"126 -10 OFFCURVE",
"32 98 OFFCURVE",
"32 245 CURVE SMOOTH",
"32 392 OFFCURVE",
"126 500 OFFCURVE",
"275 500 CURVE SMOOTH",
"424 500 OFFCURVE",
"518 392 OFFCURVE",
"518 245 CURVE SMOOTH",
"518 172 OFFCURVE",
"496 111 OFFCURVE",
"453 63 CURVE SMOOTH"
);
},
{
closed = 1;
nodes = (
"360 405 OFFCURVE",
"323 420 OFFCURVE",
"275 420 CURVE SMOOTH",
"179 420 OFFCURVE",
"124 356 OFFCURVE",
"124 245 CURVE SMOOTH",
"124 134 OFFCURVE",
"179 70 OFFCURVE",
"275 70 CURVE SMOOTH",
"371 70 OFFCURVE",
"426 134 OFFCURVE",
"426 245 CURVE SMOOTH",
"426 300 OFFCURVE",
"413 343 OFFCURVE",
"387 374 CURVE SMOOTH"
);
},
{
closed = 1;
nodes = (
"328 599 OFFCURVE",
"306 608 OFFCURVE",
"273 625 CURVE SMOOTH",
"240 642 OFFCURVE",
"219 650 OFFCURVE",
"209 650 CURVE SMOOTH",
"174 650 OFFCURVE",
"150 634 OFFCURVE",
"138 601 CURVE",
"102 610 LINE",
"117 670 OFFCURVE",
"164 700 OFFCURVE",
"205 700 CURVE SMOOTH",
"219 700 OFFCURVE",
"243 692 OFFCURVE",
"277 676 CURVE SMOOTH",
"311 659 OFFCURVE",
"334 651 OFFCURVE",
"345 651 CURVE SMOOTH",
"373 651 OFFCURVE",
"396 668 OFFCURVE",
"414 702 CURVE",
"448 693 LINE",
"433 636 OFFCURVE",
"392 599 OFFCURVE",
"341 599 CURVE SMOOTH"
);
}
);
width = 550;
}
);
leftKerningGroup = c;
note = otilde;
rightKerningGroup = o;
unicode = 00F5;
},
{
glyphname = odieresis;
layers = (
{
layerId = "1510CF8D-377E-4EE5-87E7-F8F48863CF31";
name = Regular;
paths = (
{
closed = 1;
nodes = (
"409 14 OFFCURVE",
"350 -10 OFFCURVE",
"275 -10 CURVE SMOOTH",
"126 -10 OFFCURVE",
"32 98 OFFCURVE",
"32 245 CURVE SMOOTH",
"32 392 OFFCURVE",
"126 500 OFFCURVE",
"275 500 CURVE SMOOTH",
"424 500 OFFCURVE",
"518 392 OFFCURVE",
"518 245 CURVE SMOOTH",
"518 172 OFFCURVE",
"496 111 OFFCURVE",
"453 63 CURVE SMOOTH"
);
},
{
closed = 1;
nodes = (
"360 405 OFFCURVE",
"323 420 OFFCURVE",
"275 420 CURVE SMOOTH",
"179 420 OFFCURVE",
"124 356 OFFCURVE",
"124 245 CURVE SMOOTH",
"124 134 OFFCURVE",
"179 70 OFFCURVE",
"275 70 CURVE SMOOTH",
"371 70 OFFCURVE",
"426 134 OFFCURVE",
"426 245 CURVE SMOOTH",
"426 300 OFFCURVE",
"413 343 OFFCURVE",
"387 374 CURVE SMOOTH"
);
},
{
closed = 1;
nodes = (
"399 600 LINE",
"329 600 LINE",
"329 700 LINE",
"399 700 LINE"
);
},
{
closed = 1;
nodes = (
"221 600 LINE",
"151 600 LINE",
"151 700 LINE",
"221 700 LINE"
);
}
);
width = 550;
}
);
leftKerningGroup = c;
note = odieresis;
rightKerningGroup = o;
unicode = 00F6;
},
{
glyphname = divide;
layers = (
{
layerId = "1510CF8D-377E-4EE5-87E7-F8F48863CF31";
name = Regular;
paths = (
{
closed = 1;
nodes = (
"336 440 LINE",
"247 440 LINE",
"247 534 LINE",
"336 534 LINE"
);
},
{
closed = 1;
nodes = (
"526 245 LINE",
"66 245 LINE",
"66 319 LINE",
"526 319 LINE"
);
},
{
closed = 1;
nodes = (
"336 20 LINE",
"247 20 LINE",
"247 114 LINE",
"336 114 LINE"
);
}
);
width = 592;
}
);
note = divide;
rightKerningGroup = quotesingle;
unicode = 00F7;
},
{
glyphname = oslash;
layers = (
{
layerId = "1510CF8D-377E-4EE5-87E7-F8F48863CF31";
name = Regular;
paths = (
{
closed = 1;
nodes = (
"263 -8 OFFCURVE",
"234 -4 OFFCURVE",
"200 3 CURVE",
"181 -35 LINE",
"110 -35 LINE",
"142 31 LINE",
"69 85 OFFCURVE",
"33 158 OFFCURVE",
"33 249 CURVE SMOOTH",
"33 394 OFFCURVE",
"130 506 OFFCURVE",
"285 506 CURVE SMOOTH",
"309 506 OFFCURVE",
"337 502 OFFCURVE",
"369 494 CURVE",
"388 534 LINE",
"462 534 LINE",
"428 468 LINE",
"502 412 OFFCURVE",
"539 339 OFFCURVE",
"539 248 CURVE SMOOTH",
"539 103 OFFCURVE",
"441 -8 OFFCURVE",
"286 -8 CURVE SMOOTH"
);
},
{
closed = 1;
nodes = (
"232 68 LINE",
"260 64 OFFCURVE",
"278 62 OFFCURVE",
"287 62 CURVE SMOOTH",
"384 62 OFFCURVE",
"442 141 OFFCURVE",
"442 248 CURVE SMOOTH",
"442 305 OFFCURVE",
"427 374 OFFCURVE",
"395 398 CURVE"
);
},
{
closed = 1;
nodes = (
"188 436 OFFCURVE",
"130 357 OFFCURVE",
"130 248 CURVE SMOOTH",
"130 203 OFFCURVE",
"145 154 OFFCURVE",
"176 100 CURVE",
"337 429 LINE",
"310 434 OFFCURVE",
"293 436 OFFCURVE",
"284 436 CURVE SMOOTH"
);
}
);
width = 570;
}
);
leftKerningGroup = c;
note = oslash;
rightKerningGroup = o;
unicode = 00F8;
},
{
glyphname = ugrave;
layers = (
{
layerId = "1510CF8D-377E-4EE5-87E7-F8F48863CF31";
name = Regular;
paths = (
{
closed = 1;
nodes = (
"463 0 LINE",
"383 0 LINE",
"373 54 LINE",
"342 11 OFFCURVE",
"297 -10 OFFCURVE",
"237 -10 CURVE SMOOTH",
"116 -10 OFFCURVE",
"56 62 OFFCURVE",
"56 205 CURVE SMOOTH",
"56 490 LINE",
"146 490 LINE",
"146 230 LINE SMOOTH",
"146 123 OFFCURVE",
"184 70 OFFCURVE",
"260 70 CURVE SMOOTH",
"313 70 OFFCURVE",
"350 89 OFFCURVE",
"373 126 CURVE",
"373 490 LINE",
"463 490 LINE"
);
},
{
closed = 1;
nodes = (
"372 596 LINE",
"185 660 LINE",
"185 732 LINE",
"372 637 LINE"
);
}
);
width = 524;
}
);
leftKerningGroup = u;
note = ugrave;
rightKerningGroup = q;
unicode = 00F9;
},
{
glyphname = uacute;
layers = (
{
layerId = "1510CF8D-377E-4EE5-87E7-F8F48863CF31";
name = Regular;
paths = (
{
closed = 1;
nodes = (
"463 0 LINE",
"383 0 LINE",
"373 54 LINE",
"342 11 OFFCURVE",
"297 -10 OFFCURVE",
"237 -10 CURVE SMOOTH",
"116 -10 OFFCURVE",
"56 62 OFFCURVE",
"56 205 CURVE SMOOTH",
"56 490 LINE",
"146 490 LINE",
"146 230 LINE SMOOTH",
"146 123 OFFCURVE",
"184 70 OFFCURVE",
"260 70 CURVE SMOOTH",
"313 70 OFFCURVE",
"350 89 OFFCURVE",
"373 126 CURVE",
"373 490 LINE",
"463 490 LINE"
);
},
{
closed = 1;
nodes = (
"372 660 LINE",
"185 596 LINE",
"185 637 LINE",
"372 732 LINE"
);
}
);
width = 524;
}
);
leftKerningGroup = u;
note = uacute;
rightKerningGroup = q;
unicode = 00FA;
},
{
glyphname = ucircumflex;
layers = (
{
layerId = "1510CF8D-377E-4EE5-87E7-F8F48863CF31";
name = Regular;
paths = (
{
closed = 1;
nodes = (
"463 0 LINE",
"383 0 LINE",
"373 54 LINE",
"342 11 OFFCURVE",
"297 -10 OFFCURVE",
"237 -10 CURVE SMOOTH",
"116 -10 OFFCURVE",
"56 62 OFFCURVE",
"56 205 CURVE SMOOTH",
"56 490 LINE",
"146 490 LINE",
"146 230 LINE SMOOTH",
"146 123 OFFCURVE",
"184 70 OFFCURVE",
"260 70 CURVE SMOOTH",
"313 70 OFFCURVE",
"350 89 OFFCURVE",
"373 126 CURVE",
"373 490 LINE",
"463 490 LINE"
);
},
{
closed = 1;
nodes = (
"426 603 LINE",
"279 685 LINE",
"132 603 LINE",
"132 639 LINE",
"279 745 LINE",
"426 639 LINE"
);
}
);
width = 524;
}
);
leftKerningGroup = u;
note = ucircumflex;
rightKerningGroup = q;
unicode = 00FB;
},
{
glyphname = udieresis;
layers = (
{
layerId = "1510CF8D-377E-4EE5-87E7-F8F48863CF31";
name = Regular;
paths = (
{
closed = 1;
nodes = (
"463 0 LINE",
"383 0 LINE",
"373 54 LINE",
"342 11 OFFCURVE",
"297 -10 OFFCURVE",
"237 -10 CURVE SMOOTH",
"116 -10 OFFCURVE",
"56 62 OFFCURVE",
"56 205 CURVE SMOOTH",
"56 490 LINE",
"146 490 LINE",
"146 230 LINE SMOOTH",
"146 123 OFFCURVE",
"184 70 OFFCURVE",
"260 70 CURVE SMOOTH",
"313 70 OFFCURVE",
"350 89 OFFCURVE",
"373 126 CURVE",
"373 490 LINE",
"463 490 LINE"
);
},
{
closed = 1;
nodes = (
"403 600 LINE",
"333 600 LINE",
"333 700 LINE",
"403 700 LINE"
);
},
{
closed = 1;
nodes = (
"225 600 LINE",
"155 600 LINE",
"155 700 LINE",
"225 700 LINE"
);
}
);
width = 524;
}
);
leftKerningGroup = u;
note = udieresis;
rightKerningGroup = q;
unicode = 00FC;
},
{
glyphname = yacute;
layers = (
{
layerId = "1510CF8D-377E-4EE5-87E7-F8F48863CF31";
name = Regular;
paths = (
{
closed = 1;
nodes = (
"498 490 LINE",
"198 -242 LINE",
"98 -242 LINE",
"211 22 LINE",
"7 490 LINE",
"107 490 LINE",
"260 126 LINE",
"398 490 LINE"
);
},
{
closed = 1;
nodes = (
"345 660 LINE",
"158 596 LINE",
"158 637 LINE",
"345 732 LINE"
);
}
);
width = 505;
}
);
leftKerningGroup = y;
note = yacute;
rightKerningGroup = y;
unicode = 00FD;
},
{
glyphname = thorn;
layers = (
{
layerId = "1510CF8D-377E-4EE5-87E7-F8F48863CF31";
name = Regular;
paths = (
{
closed = 1;
nodes = (
"234 -10 OFFCURVE",
"183 12 OFFCURVE",
"150 56 CURVE",
"150 -241 LINE",
"60 -241 LINE",
"60 750 LINE",
"150 750 LINE",
"150 438 LINE",
"191 479 OFFCURVE",
"244 500 OFFCURVE",
"308 500 CURVE SMOOTH",
"455 500 OFFCURVE",
"548 389 OFFCURVE",
"548 245 CURVE SMOOTH",
"548 101 OFFCURVE",
"455 -10 OFFCURVE",
"302 -10 CURVE SMOOTH"
);
},
{
closed = 1;
nodes = (
"386 404 OFFCURVE",
"346 420 OFFCURVE",
"294 420 CURVE SMOOTH",
"190 420 OFFCURVE",
"143 353 OFFCURVE",
"143 245 CURVE SMOOTH",
"143 136 OFFCURVE",
"191 62 OFFCURVE",
"294 62 CURVE SMOOTH",
"398 62 OFFCURVE",
"457 136 OFFCURVE",
"457 245 CURVE SMOOTH",
"457 298 OFFCURVE",
"443 341 OFFCURVE",
"415 373 CURVE SMOOTH"
);
}
);
width = 580;
}
);
leftKerningGroup = m;
note = thorn;
rightKerningGroup = b;
unicode = 00FE;
},
{
glyphname = ydieresis;
layers = (
{
layerId = "1510CF8D-377E-4EE5-87E7-F8F48863CF31";
name = Regular;
paths = (
{
closed = 1;
nodes = (
"498 490 LINE",
"198 -242 LINE",
"98 -242 LINE",
"211 22 LINE",
"7 490 LINE",
"107 490 LINE",
"260 126 LINE",
"398 490 LINE"
);
},
{
closed = 1;
nodes = (
"375 600 LINE",
"305 600 LINE",
"305 700 LINE",
"375 700 LINE"
);
},
{
closed = 1;
nodes = (
"197 600 LINE",
"127 600 LINE",
"127 700 LINE",
"197 700 LINE"
);
}
);
width = 505;
}
);
leftKerningGroup = y;
note = ydieresis;
rightKerningGroup = y;
unicode = 00FF;
},
{
glyphname = dotlessi;
layers = (
{
layerId = "1510CF8D-377E-4EE5-87E7-F8F48863CF31";
name = Regular;
paths = (
{
closed = 1;
nodes = (
"151 0 LINE",
"61 0 LINE",
"61 490 LINE",
"151 490 LINE"
);
}
);
width = 212;
}
);
leftKerningGroup = i;
note = dotlessi;
rightKerningGroup = i;
unicode = 0131;
},
{
glyphname = OE;
layers = (
{
layerId = "1510CF8D-377E-4EE5-87E7-F8F48863CF31";
name = Regular;
paths = (
{
closed = 1;
nodes = (
"1034 0 LINE",
"624 0 LINE",
"624 83 LINE",
"532 12 OFFCURVE",
"461 -14 OFFCURVE",
"378 -14 CURVE SMOOTH",
"179 -14 OFFCURVE",
"40 130 OFFCURVE",
"40 350 CURVE SMOOTH",
"40 570 OFFCURVE",
"179 714 OFFCURVE",
"378 714 CURVE SMOOTH",
"461 714 OFFCURVE",
"532 688 OFFCURVE",
"624 617 CURVE",
"624 699 LINE",
"1025 699 LINE",
"1025 614 LINE",
"715 614 LINE",
"715 409 LINE",
"953 409 LINE",
"953 323 LINE",
"715 323 LINE",
"715 86 LINE",
"1034 86 LINE"
);
},
{
closed = 1;
nodes = (
"223 628 OFFCURVE",
"140 514 OFFCURVE",
"140 350 CURVE SMOOTH",
"140 186 OFFCURVE",
"223 72 OFFCURVE",
"378 72 CURVE SMOOTH",
"531 72 OFFCURVE",
"615 186 OFFCURVE",
"615 350 CURVE SMOOTH",
"615 514 OFFCURVE",
"531 628 OFFCURVE",
"378 628 CURVE SMOOTH"
);
}
);
width = 1071;
}
);
leftKerningGroup = C;
note = OE;
rightKerningGroup = E;
unicode = 0152;
},
{
glyphname = oe;
layers = (
{
layerId = "1510CF8D-377E-4EE5-87E7-F8F48863CF31";
name = Regular;
paths = (
{
closed = 1;
nodes = (
"525 245 LINE",
"525 172 OFFCURVE",
"548 118 OFFCURVE",
"584 94 CURVE SMOOTH",
"619 70 OFFCURVE",
"650 62 OFFCURVE",
"683 62 CURVE SMOOTH",
"738 62 OFFCURVE",
"790 74 OFFCURVE",
"838 99 CURVE",
"848 22 LINE",
"801 1 OFFCURVE",
"750 -10 OFFCURVE",
"695 -10 CURVE SMOOTH",
"571 -10 OFFCURVE",
"508 25 OFFCURVE",
"477 97 CURVE",
"448 29 OFFCURVE",
"367 -10 OFFCURVE",
"278 -10 CURVE SMOOTH",
"129 -10 OFFCURVE",
"32 102 OFFCURVE",
"32 250 CURVE SMOOTH",
"32 395 OFFCURVE",
"127 500 OFFCURVE",
"282 500 CURVE SMOOTH",
"362 500 OFFCURVE",
"445 463 OFFCURVE",
"473 398 CURVE",
"509 463 OFFCURVE",
"587 500 OFFCURVE",
"659 500 CURVE SMOOTH",
"787 500 OFFCURVE",
"872 423 OFFCURVE",
"872 296 CURVE SMOOTH",
"872 277 OFFCURVE",
"871 260 OFFCURVE",
"868 245 CURVE"
);
},
{
closed = 1;
nodes = (
"587 420 OFFCURVE",
"543 382 OFFCURVE",
"527 307 CURVE",
"780 307 LINE",
"775 379 OFFCURVE",
"729 420 OFFCURVE",
"658 420 CURVE SMOOTH"
);
},
{
closed = 1;
nodes = (
"179 420 OFFCURVE",
"124 356 OFFCURVE",
"124 245 CURVE SMOOTH",
"124 133 OFFCURVE",
"178 70 OFFCURVE",
"281 70 CURVE SMOOTH",
"381 70 OFFCURVE",
"433 143 OFFCURVE",
"433 248 CURVE SMOOTH",
"433 351 OFFCURVE",
"377 420 OFFCURVE",
"282 420 CURVE SMOOTH"
);
}
);
width = 902;
}
);
leftKerningGroup = c;
note = oe;
rightKerningGroup = e;
unicode = 0153;
},
{
glyphname = Ydieresis;
layers = (
{
layerId = "1510CF8D-377E-4EE5-87E7-F8F48863CF31";
name = Regular;
paths = (
{
closed = 1;
nodes = (
"569 700 LINE",
"333 323 LINE",
"333 0 LINE",
"234 0 LINE",
"234 323 LINE",
"-3 700 LINE",
"97 700 LINE",
"283 409 LINE",
"469 700 LINE"
);
},
{
closed = 1;
nodes = (
"420 810 LINE",
"350 810 LINE",
"350 910 LINE",
"420 910 LINE"
);
},
{
closed = 1;
nodes = (
"242 810 LINE",
"172 810 LINE",
"172 910 LINE",
"242 910 LINE"
);
}
);
width = 567;
}
);
leftKerningGroup = Y;
note = Ydieresis;
rightKerningGroup = Y;
unicode = 0178;
},
{
glyphname = florin;
layers = (
{
layerId = "1510CF8D-377E-4EE5-87E7-F8F48863CF31";
name = Regular;
paths = (
{
closed = 1;
nodes = (
"364 648 LINE",
"356 653 OFFCURVE",
"345 656 OFFCURVE",
"332 656 CURVE SMOOTH",
"251 656 OFFCURVE",
"222 614 OFFCURVE",
"201 490 CURVE",
"349 490 LINE",
"343 434 LINE",
"190 434 LINE",
"104 -92 LINE SMOOTH",
"87 -197 OFFCURVE",
"29 -241 OFFCURVE",
"-8 -241 CURVE SMOOTH",
"-21 -241 LINE",
"-34 -178 LINE",
"4 -170 OFFCURVE",
"28 -136 OFFCURVE",
"37 -77 CURVE SMOOTH",
"117 434 LINE",
"23 434 LINE",
"30 490 LINE",
"126 490 LINE",
"135 551 LINE SMOOTH",
"151 654 OFFCURVE",
"226 714 OFFCURVE",
"319 714 CURVE SMOOTH",
"332 714 OFFCURVE",
"349 710 OFFCURVE",
"371 703 CURVE"
);
}
);
width = 351;
}
);
note = florin;
rightKerningGroup = quotesingle;
unicode = 0192;
},
{
glyphname = uni0237;
layers = (
{
layerId = "1510CF8D-377E-4EE5-87E7-F8F48863CF31";
name = Regular;
paths = (
{
closed = 1;
nodes = (
"-2 -242 LINE",
"-12 -173 LINE",
"48 -166 OFFCURVE",
"61 -150 OFFCURVE",
"61 -73 CURVE SMOOTH",
"61 490 LINE",
"151 490 LINE",
"151 -107 LINE SMOOTH",
"151 -191 OFFCURVE",
"95 -226 OFFCURVE",
"28 -237 CURVE SMOOTH"
);
}
);
width = 212;
}
);
note = uni0237;
rightKerningGroup = quotesingle;
unicode = 0237;
},
{
glyphname = circumflex;
layers = (
{
layerId = "1510CF8D-377E-4EE5-87E7-F8F48863CF31";
name = Regular;
paths = (
{
closed = 1;
nodes = (
"370 603 LINE",
"223 685 LINE",
"76 603 LINE",
"76 639 LINE",
"223 745 LINE",
"370 639 LINE"
);
}
);
width = 446;
}
);
note = circumflex;
rightKerningGroup = quotesingle;
unicode = 02C6;
},
{
glyphname = caron;
layers = (
{
layerId = "1510CF8D-377E-4EE5-87E7-F8F48863CF31";
name = Regular;
paths = (
{
closed = 1;
nodes = (
"370 699 LINE",
"223 600 LINE",
"76 699 LINE",
"76 740 LINE",
"223 664 LINE",
"370 740 LINE"
);
}
);
width = 446;
}
);
note = caron;
rightKerningGroup = quotesingle;
unicode = 02C7;
},
{
glyphname = ring;
layers = (
{
layerId = "1510CF8D-377E-4EE5-87E7-F8F48863CF31";
name = Regular;
paths = (
{
closed = 1;
nodes = (
"81 576 OFFCURVE",
"42 616 OFFCURVE",
"42 665 CURVE SMOOTH",
"42 714 OFFCURVE",
"81 755 OFFCURVE",
"146 755 CURVE SMOOTH",
"211 755 OFFCURVE",
"250 714 OFFCURVE",
"250 665 CURVE SMOOTH",
"250 616 OFFCURVE",
"213 576 OFFCURVE",
"146 576 CURVE SMOOTH"
);
},
{
closed = 1;
nodes = (
"177 719 OFFCURVE",
"163 724 OFFCURVE",
"146 724 CURVE SMOOTH",
"113 724 OFFCURVE",
"86 700 OFFCURVE",
"86 665 CURVE SMOOTH",
"86 629 OFFCURVE",
"114 605 OFFCURVE",
"146 605 CURVE SMOOTH",
"178 605 OFFCURVE",
"206 629 OFFCURVE",
"206 665 CURVE SMOOTH",
"206 682 OFFCURVE",
"200 697 OFFCURVE",
"189 708 CURVE"
);
}
);
width = 292;
}
);
note = ring;
rightKerningGroup = quotesingle;
unicode = 02DA;
},
{
glyphname = tilde;
layers = (
{
layerId = "1510CF8D-377E-4EE5-87E7-F8F48863CF31";
name = Regular;
paths = (
{
closed = 1;
nodes = (
"318 599 OFFCURVE",
"296 608 OFFCURVE",
"263 625 CURVE SMOOTH",
"230 642 OFFCURVE",
"209 650 OFFCURVE",
"199 650 CURVE SMOOTH",
"164 650 OFFCURVE",
"140 634 OFFCURVE",
"128 601 CURVE",
"92 610 LINE",
"107 670 OFFCURVE",
"154 700 OFFCURVE",
"195 700 CURVE SMOOTH",
"209 700 OFFCURVE",
"233 692 OFFCURVE",
"267 676 CURVE SMOOTH",
"301 659 OFFCURVE",
"324 651 OFFCURVE",
"335 651 CURVE SMOOTH",
"363 651 OFFCURVE",
"386 668 OFFCURVE",
"404 702 CURVE",
"438 693 LINE",
"423 636 OFFCURVE",
"382 599 OFFCURVE",
"331 599 CURVE SMOOTH"
);
}
);
width = 528;
}
);
note = tilde;
rightKerningGroup = quotesingle;
unicode = 02DC;
},
{
glyphname = endash;
layers = (
{
layerId = "1510CF8D-377E-4EE5-87E7-F8F48863CF31";
name = Regular;
paths = (
{
closed = 1;
nodes = (
"445 238 LINE",
"57 238 LINE",
"57 324 LINE",
"445 324 LINE"
);
}
);
width = 502;
}
);
leftKerningGroup = hyphen;
note = endash;
rightKerningGroup = hyphen;
unicode = 2013;
},
{
glyphname = emdash;
layers = (
{
layerId = "1510CF8D-377E-4EE5-87E7-F8F48863CF31";
name = Regular;
paths = (
{
closed = 1;
nodes = (
"537 238 LINE",
"57 238 LINE",
"57 324 LINE",
"537 324 LINE"
);
}
);
width = 594;
}
);
leftKerningGroup = hyphen;
note = emdash;
rightKerningGroup = hyphen;
unicode = 2014;
},
{
glyphname = quoteleft;
layers = (
{
layerId = "1510CF8D-377E-4EE5-87E7-F8F48863CF31";
name = Regular;
paths = (
{
closed = 1;
nodes = (
"43 641 LINE",
"121 750 LINE",
"144 737 LINE",
"109 650 LINE",
"143 641 LINE",
"143 555 LINE",
"43 555 LINE"
);
}
);
width = 186;
}
);
leftKerningGroup = quoteleft;
note = quoteleft;
rightKerningGroup = quoteleft;
unicode = 2018;
},
{
glyphname = quoteright;
layers = (
{
layerId = "1510CF8D-377E-4EE5-87E7-F8F48863CF31";
name = Regular;
paths = (
{
closed = 1;
nodes = (
"143 664 LINE",
"65 555 LINE",
"42 568 LINE",
"77 655 LINE",
"43 664 LINE",
"43 750 LINE",
"143 750 LINE"
);
}
);
width = 169;
}
);
leftKerningGroup = quoteright;
note = quoteright;
rightKerningGroup = quoteright;
unicode = 2019;
},
{
glyphname = quotesinglbase;
layers = (
{
layerId = "1510CF8D-377E-4EE5-87E7-F8F48863CF31";
name = Regular;
paths = (
{
closed = 1;
nodes = (
"158 0 LINE",
"80 -109 LINE",
"57 -96 LINE",
"92 -9 LINE",
"58 0 LINE",
"58 86 LINE",
"158 86 LINE"
);
}
);
width = 216;
}
);
leftKerningGroup = quotesinglbase;
note = quotesinglbase;
rightKerningGroup = quotesinglbase;
unicode = 201A;
},
{
glyphname = quotedblleft;
layers = (
{
layerId = "1510CF8D-377E-4EE5-87E7-F8F48863CF31";
name = Regular;
paths = (
{
closed = 1;
nodes = (
"43 641 LINE",
"121 750 LINE",
"144 737 LINE",
"109 650 LINE",
"143 641 LINE",
"143 555 LINE",
"43 555 LINE"
);
},
{
closed = 1;
nodes = (
"253 641 LINE",
"331 750 LINE",
"354 737 LINE",
"319 650 LINE",
"353 641 LINE",
"353 555 LINE",
"253 555 LINE"
);
}
);
width = 396;
}
);
leftKerningGroup = quoteleft;
note = quotedblleft;
rightKerningGroup = quoteleft;
unicode = 201C;
},
{
glyphname = quotedblright;
layers = (
{
layerId = "1510CF8D-377E-4EE5-87E7-F8F48863CF31";
name = Regular;
paths = (
{
closed = 1;
nodes = (
"353 664 LINE",
"275 555 LINE",
"252 568 LINE",
"287 655 LINE",
"253 664 LINE",
"253 750 LINE",
"353 750 LINE"
);
},
{
closed = 1;
nodes = (
"143 664 LINE",
"65 555 LINE",
"42 568 LINE",
"77 655 LINE",
"43 664 LINE",
"43 750 LINE",
"143 750 LINE"
);
}
);
width = 379;
}
);
leftKerningGroup = quoteright;
note = quotedblright;
rightKerningGroup = quoteright;
unicode = 201D;
},
{
glyphname = quotedblbase;
layers = (
{
layerId = "1510CF8D-377E-4EE5-87E7-F8F48863CF31";
name = Regular;
paths = (
{
closed = 1;
nodes = (
"158 0 LINE",
"80 -109 LINE",
"57 -96 LINE",
"92 -9 LINE",
"58 0 LINE",
"58 86 LINE",
"158 86 LINE"
);
},
{
closed = 1;
nodes = (
"388 0 LINE",
"310 -109 LINE",
"287 -96 LINE",
"322 -9 LINE",
"288 0 LINE",
"288 86 LINE",
"388 86 LINE"
);
}
);
width = 446;
}
);
leftKerningGroup = quotesinglbase;
note = quotedblbase;
rightKerningGroup = quotesinglbase;
unicode = 201E;
},
{
glyphname = dagger;
layers = (
{
layerId = "1510CF8D-377E-4EE5-87E7-F8F48863CF31";
name = Regular;
paths = (
{
closed = 1;
nodes = (
"389 373 LINE",
"231 403 LINE",
"272 252 LINE",
"241 0 LINE",
"183 0 LINE",
"152 252 LINE",
"193 403 LINE",
"35 373 LINE",
"35 458 LINE",
"191 427 LINE",
"157 607 LINE",
"267 607 LINE",
"233 427 LINE",
"389 458 LINE"
);
}
);
width = 424;
}
);
note = dagger;
rightKerningGroup = quotesingle;
unicode = 2020;
},
{
glyphname = daggerdbl;
layers = (
{
layerId = "1510CF8D-377E-4EE5-87E7-F8F48863CF31";
name = Regular;
paths = (
{
closed = 1;
nodes = (
"407 88 LINE",
"251 118 LINE",
"285 -59 LINE",
"175 -59 LINE",
"209 118 LINE",
"53 88 LINE",
"53 172 LINE",
"213 142 LINE",
"170 274 LINE",
"213 407 LINE",
"53 377 LINE",
"53 461 LINE",
"209 431 LINE",
"175 607 LINE",
"285 607 LINE",
"251 431 LINE",
"407 461 LINE",
"407 377 LINE",
"247 407 LINE",
"290 274 LINE",
"247 142 LINE",
"407 172 LINE"
);
}
);
width = 460;
}
);
note = daggerdbl;
rightKerningGroup = quotesingle;
unicode = 2021;
},
{
glyphname = bullet;
layers = (
{
layerId = "1510CF8D-377E-4EE5-87E7-F8F48863CF31";
name = Regular;
paths = (
{
closed = 1;
nodes = (
"209 180 OFFCURVE",
"183 169 OFFCURVE",
"153 169 CURVE SMOOTH",
"93 169 OFFCURVE",
"44 218 OFFCURVE",
"44 278 CURVE SMOOTH",
"44 338 OFFCURVE",
"93 387 OFFCURVE",
"153 387 CURVE SMOOTH",
"213 387 OFFCURVE",
"262 338 OFFCURVE",
"262 278 CURVE SMOOTH",
"262 248 OFFCURVE",
"251 222 OFFCURVE",
"230 201 CURVE SMOOTH"
);
}
);
width = 306;
}
);
note = bullet;
rightKerningGroup = quotesingle;
unicode = 2022;
},
{
glyphname = ellipsis;
layers = (
{
layerId = "1510CF8D-377E-4EE5-87E7-F8F48863CF31";
name = Regular;
paths = (
{
closed = 1;
nodes = (
"147 0 LINE",
"57 0 LINE",
"57 86 LINE",
"147 86 LINE"
);
},
{
closed = 1;
nodes = (
"383 0 LINE",
"293 0 LINE",
"293 86 LINE",
"383 86 LINE"
);
},
{
closed = 1;
nodes = (
"619 0 LINE",
"529 0 LINE",
"529 86 LINE",
"619 86 LINE"
);
}
);
width = 676;
}
);
leftKerningGroup = period;
note = ellipsis;
rightKerningGroup = quotesingle;
unicode = 2026;
},
{
glyphname = perthousand;
layers = (
{
layerId = "1510CF8D-377E-4EE5-87E7-F8F48863CF31";
name = Regular;
paths = (
{
closed = 1;
nodes = (
"565 -13 OFFCURVE",
"506 56 OFFCURVE",
"506 171 CURVE SMOOTH",
"506 288 OFFCURVE",
"574 362 OFFCURVE",
"659 362 CURVE SMOOTH",
"746 362 OFFCURVE",
"807 292 OFFCURVE",
"807 179 CURVE SMOOTH",
"807 59 OFFCURVE",
"746 -13 OFFCURVE",
"654 -13 CURVE SMOOTH"
);
},
{
closed = 1;
nodes = (
"658 700 LINE",
"238 -12 LINE",
"163 -12 LINE",
"584 700 LINE"
);
},
{
closed = 1;
nodes = (
"95 333 OFFCURVE",
"36 400 OFFCURVE",
"36 515 CURVE SMOOTH",
"36 632 OFFCURVE",
"102 705 OFFCURVE",
"187 705 CURVE SMOOTH",
"272 705 OFFCURVE",
"333 637 OFFCURVE",
"333 524 CURVE SMOOTH",
"333 404 OFFCURVE",
"271 333 OFFCURVE",
"182 333 CURVE SMOOTH"
);
},
{
closed = 1;
nodes = (
"598 315 OFFCURVE",
"556 259 OFFCURVE",
"556 171 CURVE SMOOTH",
"556 86 OFFCURVE",
"593 36 OFFCURVE",
"652 36 CURVE SMOOTH",
"715 36 OFFCURVE",
"752 88 OFFCURVE",
"752 179 CURVE SMOOTH",
"752 262 OFFCURVE",
"711 315 OFFCURVE",
"655 315 CURVE SMOOTH"
);
},
{
closed = 1;
nodes = (
"134 654 OFFCURVE",
"92 598 OFFCURVE",
"92 515 CURVE SMOOTH",
"92 438 OFFCURVE",
"132 385 OFFCURVE",
"183 385 CURVE SMOOTH",
"238 385 OFFCURVE",
"278 441 OFFCURVE",
"278 524 CURVE SMOOTH",
"278 600 OFFCURVE",
"235 654 OFFCURVE",
"186 654 CURVE SMOOTH"
);
},
{
closed = 1;
nodes = (
"925 -13 OFFCURVE",
"866 56 OFFCURVE",
"866 171 CURVE SMOOTH",
"866 288 OFFCURVE",
"934 362 OFFCURVE",
"1019 362 CURVE SMOOTH",
"1106 362 OFFCURVE",
"1167 292 OFFCURVE",
"1167 179 CURVE SMOOTH",
"1167 59 OFFCURVE",
"1106 -13 OFFCURVE",
"1014 -13 CURVE SMOOTH"
);
},
{
closed = 1;
nodes = (
"958 315 OFFCURVE",
"916 259 OFFCURVE",
"916 171 CURVE SMOOTH",
"916 86 OFFCURVE",
"953 36 OFFCURVE",
"1012 36 CURVE SMOOTH",
"1075 36 OFFCURVE",
"1112 88 OFFCURVE",
"1112 179 CURVE SMOOTH",
"1112 262 OFFCURVE",
"1071 315 OFFCURVE",
"1015 315 CURVE SMOOTH"
);
}
);
width = 1201;
}
);
note = perthousand;
rightKerningGroup = quotesingle;
unicode = 2030;
},
{
glyphname = guilsinglleft;
layers = (
{
layerId = "1510CF8D-377E-4EE5-87E7-F8F48863CF31";
name = Regular;
paths = (
{
closed = 1;
nodes = (
"282 78 LINE",
"173 78 LINE",
"14 284 LINE",
"173 490 LINE",
"282 490 LINE",
"123 284 LINE"
);
}
);
width = 322;
}
);
leftKerningGroup = guillemotleft;
note = guilsinglleft;
rightKerningGroup = guillemotleft;
unicode = 2039;
},
{
glyphname = guilsinglright;
layers = (
{
layerId = "1510CF8D-377E-4EE5-87E7-F8F48863CF31";
name = Regular;
paths = (
{
closed = 1;
nodes = (
"309 284 LINE",
"150 78 LINE",
"41 78 LINE",
"200 284 LINE",
"41 490 LINE",
"150 490 LINE"
);
}
);
width = 323;
}
);
leftKerningGroup = guillemotright;
note = guilsinglright;
rightKerningGroup = guillemotright;
unicode = 203A;
},
{
glyphname = uni2070;
layers = (
{
layerId = "1510CF8D-377E-4EE5-87E7-F8F48863CF31";
name = Regular;
paths = (
{
closed = 1;
nodes = (
"100 312 OFFCURVE",
"33 388 OFFCURVE",
"33 503 CURVE SMOOTH",
"33 622 OFFCURVE",
"108 706 OFFCURVE",
"207 706 CURVE SMOOTH",
"303 706 OFFCURVE",
"374 625 OFFCURVE",
"374 512 CURVE SMOOTH",
"374 392 OFFCURVE",
"304 312 OFFCURVE",
"200 312 CURVE SMOOTH"
);
},
{
closed = 1;
nodes = (
"255 631 OFFCURVE",
"233 642 OFFCURVE",
"206 642 CURVE SMOOTH",
"153 642 OFFCURVE",
"107 592 OFFCURVE",
"107 503 CURVE SMOOTH",
"107 418 OFFCURVE",
"145 377 OFFCURVE",
"201 377 CURVE SMOOTH",
"261 377 OFFCURVE",
"301 420 OFFCURVE",
"301 512 CURVE SMOOTH",
"301 554 OFFCURVE",
"292 586 OFFCURVE",
"274 609 CURVE"
);
}
);
width = 407;
}
);
note = uni2070;
rightKerningGroup = quotesingle;
unicode = 2070;
},
{
glyphname = uni2074;
layers = (
{
layerId = "1510CF8D-377E-4EE5-87E7-F8F48863CF31";
name = Regular;
paths = (
{
closed = 1;
nodes = (
"303 423 LINE",
"254 423 LINE",
"254 320 LINE",
"180 320 LINE",
"180 423 LINE",
"5 423 LINE",
"192 698 LINE",
"254 698 LINE",
"254 480 LINE",
"303 480 LINE"
);
},
{
closed = 1;
nodes = (
"180 480 LINE",
"180 590 LINE",
"106 480 LINE"
);
}
);
width = 330;
}
);
note = uni2074;
rightKerningGroup = quotesingle;
unicode = 2074;
},
{
glyphname = uni2075;
layers = (
{
layerId = "1510CF8D-377E-4EE5-87E7-F8F48863CF31";
name = Regular;
paths = (
{
closed = 1;
nodes = (
"83 313 OFFCURVE",
"27 334 OFFCURVE",
"24 345 CURVE",
"41 410 LINE",
"64 391 OFFCURVE",
"93 381 OFFCURVE",
"128 381 CURVE SMOOTH",
"180 381 OFFCURVE",
"206 401 OFFCURVE",
"206 442 CURVE SMOOTH",
"206 479 OFFCURVE",
"173 497 OFFCURVE",
"107 497 CURVE SMOOTH",
"45 497 LINE",
"70 698 LINE",
"257 698 LINE",
"249 628 LINE",
"126 628 LINE",
"116 557 LINE",
"229 556 OFFCURVE",
"278 521 OFFCURVE",
"278 444 CURVE SMOOTH",
"278 360 OFFCURVE",
"211 313 OFFCURVE",
"130 313 CURVE SMOOTH"
);
}
);
width = 307;
}
);
note = uni2075;
rightKerningGroup = quotesingle;
unicode = 2075;
},
{
glyphname = uni2076;
layers = (
{
layerId = "1510CF8D-377E-4EE5-87E7-F8F48863CF31";
name = Regular;
paths = (
{
closed = 1;
nodes = (
"82 312 OFFCURVE",
"32 358 OFFCURVE",
"32 458 CURVE SMOOTH",
"32 586 OFFCURVE",
"139 698 OFFCURVE",
"206 698 CURVE",
"255 670 LINE",
"211 670 OFFCURVE",
"118 585 OFFCURVE",
"110 528 CURVE",
"122 541 OFFCURVE",
"145 547 OFFCURVE",
"178 547 CURVE SMOOTH",
"250 547 OFFCURVE",
"300 509 OFFCURVE",
"300 438 CURVE SMOOTH",
"300 369 OFFCURVE",
"242 312 OFFCURVE",
"158 312 CURVE SMOOTH"
);
},
{
closed = 1;
nodes = (
"132 489 OFFCURVE",
"104 469 OFFCURVE",
"104 430 CURVE SMOOTH",
"104 398 OFFCURVE",
"135 377 OFFCURVE",
"166 377 CURVE SMOOTH",
"205 377 OFFCURVE",
"231 405 OFFCURVE",
"231 440 CURVE SMOOTH",
"231 465 OFFCURVE",
"210 489 OFFCURVE",
"173 489 CURVE SMOOTH"
);
}
);
width = 322;
}
);
note = uni2076;
rightKerningGroup = quotesingle;
unicode = 2076;
},
{
glyphname = uni2077;
layers = (
{
layerId = "1510CF8D-377E-4EE5-87E7-F8F48863CF31";
name = Regular;
paths = (
{
closed = 1;
nodes = (
"290 698 LINE",
"120 320 LINE",
"43 320 LINE",
"182 628 LINE",
"23 628 LINE",
"23 698 LINE"
);
}
);
width = 290;
}
);
note = uni2077;
rightKerningGroup = quotesingle;
unicode = 2077;
},
{
glyphname = uni2078;
layers = (
{
layerId = "1510CF8D-377E-4EE5-87E7-F8F48863CF31";
name = Regular;
paths = (
{
closed = 1;
nodes = (
"78 312 OFFCURVE",
"31 359 OFFCURVE",
"31 420 CURVE SMOOTH",
"31 461 OFFCURVE",
"52 495 OFFCURVE",
"94 524 CURVE",
"67 543 OFFCURVE",
"54 571 OFFCURVE",
"54 610 CURVE SMOOTH",
"54 666 OFFCURVE",
"90 706 OFFCURVE",
"175 706 CURVE SMOOTH",
"258 706 OFFCURVE",
"293 670 OFFCURVE",
"293 618 CURVE SMOOTH",
"293 582 OFFCURVE",
"276 552 OFFCURVE",
"243 528 CURVE",
"286 511 OFFCURVE",
"315 474 OFFCURVE",
"315 431 CURVE SMOOTH",
"315 368 OFFCURVE",
"263 312 OFFCURVE",
"167 312 CURVE SMOOTH"
);
},
{
closed = 1;
nodes = (
"137 650 OFFCURVE",
"119 634 OFFCURVE",
"119 603 CURVE SMOOTH",
"119 576 OFFCURVE",
"136 558 OFFCURVE",
"170 550 CURVE",
"207 559 OFFCURVE",
"225 577 OFFCURVE",
"225 605 CURVE SMOOTH",
"225 635 OFFCURVE",
"208 650 OFFCURVE",
"173 650 CURVE SMOOTH"
);
},
{
closed = 1;
nodes = (
"135 494 OFFCURVE",
"102 466 OFFCURVE",
"102 426 CURVE SMOOTH",
"102 390 OFFCURVE",
"127 369 OFFCURVE",
"170 369 CURVE SMOOTH",
"215 369 OFFCURVE",
"242 392 OFFCURVE",
"242 428 CURVE SMOOTH",
"242 467 OFFCURVE",
"214 491 OFFCURVE",
"175 499 CURVE"
);
}
);
width = 346;
}
);
note = uni2078;
rightKerningGroup = quotesingle;
unicode = 2078;
},
{
glyphname = uni2079;
layers = (
{
layerId = "1510CF8D-377E-4EE5-87E7-F8F48863CF31";
name = Regular;
paths = (
{
closed = 1;
nodes = (
"239 706 OFFCURVE",
"291 658 OFFCURVE",
"291 561 CURVE SMOOTH",
"291 433 OFFCURVE",
"195 320 OFFCURVE",
"116 320 CURVE",
"69 348 LINE",
"114 348 OFFCURVE",
"211 421 OFFCURVE",
"215 490 CURVE",
"202 477 OFFCURVE",
"179 471 OFFCURVE",
"144 471 CURVE SMOOTH",
"71 471 OFFCURVE",
"22 509 OFFCURVE",
"22 578 CURVE SMOOTH",
"22 649 OFFCURVE",
"80 706 OFFCURVE",
"164 706 CURVE SMOOTH"
);
},
{
closed = 1;
nodes = (
"192 529 OFFCURVE",
"220 548 OFFCURVE",
"220 587 CURVE SMOOTH",
"220 623 OFFCURVE",
"200 641 OFFCURVE",
"159 641 CURVE SMOOTH",
"119 641 OFFCURVE",
"95 613 OFFCURVE",
"95 581 CURVE SMOOTH",
"95 552 OFFCURVE",
"112 529 OFFCURVE",
"151 529 CURVE SMOOTH"
);
}
);
width = 324;
}
);
note = uni2079;
rightKerningGroup = quotesingle;
unicode = 2079;
},
{
glyphname = uni2080;
layers = (
{
layerId = "1510CF8D-377E-4EE5-87E7-F8F48863CF31";
name = Regular;
paths = (
{
closed = 1;
nodes = (
"112 -8 OFFCURVE",
"45 68 OFFCURVE",
"45 183 CURVE SMOOTH",
"45 302 OFFCURVE",
"120 386 OFFCURVE",
"219 386 CURVE SMOOTH",
"315 386 OFFCURVE",
"386 305 OFFCURVE",
"386 192 CURVE SMOOTH",
"386 72 OFFCURVE",
"316 -8 OFFCURVE",
"212 -8 CURVE SMOOTH"
);
},
{
closed = 1;
nodes = (
"267 311 OFFCURVE",
"245 322 OFFCURVE",
"218 322 CURVE SMOOTH",
"165 322 OFFCURVE",
"119 272 OFFCURVE",
"119 183 CURVE SMOOTH",
"119 98 OFFCURVE",
"157 57 OFFCURVE",
"213 57 CURVE SMOOTH",
"273 57 OFFCURVE",
"313 100 OFFCURVE",
"313 192 CURVE SMOOTH",
"313 234 OFFCURVE",
"304 266 OFFCURVE",
"286 289 CURVE"
);
}
);
width = 431;
}
);
note = uni2080;
rightKerningGroup = quotesingle;
unicode = 2080;
},
{
glyphname = uni2081;
layers = (
{
layerId = "1510CF8D-377E-4EE5-87E7-F8F48863CF31";
name = Regular;
paths = (
{
closed = 1;
nodes = (
"170 0 LINE",
"95 0 LINE",
"95 276 LINE",
"75 267 OFFCURVE",
"58 261 OFFCURVE",
"44 259 CURVE",
"38 319 LINE",
"63 323 OFFCURVE",
"102 353 OFFCURVE",
"113 378 CURVE",
"170 378 LINE"
);
}
);
width = 237;
}
);
note = uni2081;
rightKerningGroup = quotesingle;
unicode = 2081;
},
{
glyphname = uni2082;
layers = (
{
layerId = "1510CF8D-377E-4EE5-87E7-F8F48863CF31";
name = Regular;
paths = (
{
closed = 1;
nodes = (
"286 0 LINE",
"38 0 LINE",
"85 63 OFFCURVE",
"122 115 OFFCURVE",
"147 155 CURVE SMOOTH",
"172 194 OFFCURVE",
"188 221 OFFCURVE",
"194 236 CURVE",
"199 250 OFFCURVE",
"202 262 OFFCURVE",
"202 273 CURVE SMOOTH",
"202 306 OFFCURVE",
"181 326 OFFCURVE",
"145 326 CURVE SMOOTH",
"111 326 OFFCURVE",
"80 306 OFFCURVE",
"52 267 CURVE",
"43 332 LINE",
"58 357 OFFCURVE",
"101 386 OFFCURVE",
"160 386 CURVE SMOOTH",
"239 386 OFFCURVE",
"272 339 OFFCURVE",
"272 284 CURVE SMOOTH",
"272 239 OFFCURVE",
"237 168 OFFCURVE",
"166 70 CURVE",
"286 70 LINE"
);
}
);
width = 332;
}
);
note = uni2082;
rightKerningGroup = quotesingle;
unicode = 2082;
},
{
glyphname = uni2083;
layers = (
{
layerId = "1510CF8D-377E-4EE5-87E7-F8F48863CF31";
name = Regular;
paths = (
{
closed = 1;
nodes = (
"95 -8 OFFCURVE",
"42 10 OFFCURVE",
"33 22 CURVE",
"51 88 LINE",
"72 71 OFFCURVE",
"102 62 OFFCURVE",
"139 62 CURVE SMOOTH",
"191 62 OFFCURVE",
"217 79 OFFCURVE",
"217 114 CURVE SMOOTH",
"217 154 OFFCURVE",
"200 178 OFFCURVE",
"143 178 CURVE SMOOTH",
"91 178 LINE",
"97 233 LINE",
"124 233 LINE SMOOTH",
"175 233 OFFCURVE",
"201 249 OFFCURVE",
"201 281 CURVE SMOOTH",
"201 310 OFFCURVE",
"181 325 OFFCURVE",
"141 325 CURVE SMOOTH",
"108 325 OFFCURVE",
"84 319 OFFCURVE",
"70 308 CURVE",
"59 361 LINE",
"77 378 OFFCURVE",
"107 386 OFFCURVE",
"150 386 CURVE SMOOTH",
"243 386 OFFCURVE",
"276 337 OFFCURVE",
"276 285 CURVE SMOOTH",
"276 250 OFFCURVE",
"263 225 OFFCURVE",
"237 210 CURVE",
"273 189 OFFCURVE",
"291 158 OFFCURVE",
"291 117 CURVE SMOOTH",
"291 38 OFFCURVE",
"223 -8 OFFCURVE",
"142 -8 CURVE SMOOTH"
);
}
);
width = 337;
}
);
note = uni2083;
rightKerningGroup = quotesingle;
unicode = 2083;
},
{
glyphname = uni2084;
layers = (
{
layerId = "1510CF8D-377E-4EE5-87E7-F8F48863CF31";
name = Regular;
paths = (
{
closed = 1;
nodes = (
"315 103 LINE",
"266 103 LINE",
"266 0 LINE",
"192 0 LINE",
"192 103 LINE",
"17 103 LINE",
"204 378 LINE",
"266 378 LINE",
"266 160 LINE",
"315 160 LINE"
);
},
{
closed = 1;
nodes = (
"192 160 LINE",
"192 270 LINE",
"118 160 LINE"
);
}
);
width = 357;
}
);
note = uni2084;
rightKerningGroup = quotesingle;
unicode = 2084;
},
{
glyphname = uni2085;
layers = (
{
layerId = "1510CF8D-377E-4EE5-87E7-F8F48863CF31";
name = Regular;
paths = (
{
closed = 1;
nodes = (
"94 -7 OFFCURVE",
"38 14 OFFCURVE",
"35 25 CURVE",
"52 90 LINE",
"75 71 OFFCURVE",
"104 61 OFFCURVE",
"139 61 CURVE SMOOTH",
"191 61 OFFCURVE",
"217 81 OFFCURVE",
"217 122 CURVE SMOOTH",
"217 159 OFFCURVE",
"184 177 OFFCURVE",
"118 177 CURVE SMOOTH",
"56 177 LINE",
"81 378 LINE",
"268 378 LINE",
"260 308 LINE",
"137 308 LINE",
"127 237 LINE",
"240 236 OFFCURVE",
"289 201 OFFCURVE",
"289 124 CURVE SMOOTH",
"289 40 OFFCURVE",
"222 -7 OFFCURVE",
"141 -7 CURVE SMOOTH"
);
}
);
width = 332;
}
);
note = uni2085;
rightKerningGroup = quotesingle;
unicode = 2085;
},
{
glyphname = uni2086;
layers = (
{
layerId = "1510CF8D-377E-4EE5-87E7-F8F48863CF31";
name = Regular;
paths = (
{
closed = 1;
nodes = (
"95 -8 OFFCURVE",
"45 38 OFFCURVE",
"45 138 CURVE SMOOTH",
"45 266 OFFCURVE",
"152 378 OFFCURVE",
"219 378 CURVE",
"268 350 LINE",
"224 350 OFFCURVE",
"131 265 OFFCURVE",
"123 208 CURVE",
"135 221 OFFCURVE",
"158 227 OFFCURVE",
"191 227 CURVE SMOOTH",
"263 227 OFFCURVE",
"313 189 OFFCURVE",
"313 118 CURVE SMOOTH",
"313 49 OFFCURVE",
"255 -8 OFFCURVE",
"171 -8 CURVE SMOOTH"
);
},
{
closed = 1;
nodes = (
"145 169 OFFCURVE",
"117 149 OFFCURVE",
"117 110 CURVE SMOOTH",
"117 78 OFFCURVE",
"148 57 OFFCURVE",
"179 57 CURVE SMOOTH",
"218 57 OFFCURVE",
"244 85 OFFCURVE",
"244 120 CURVE SMOOTH",
"244 145 OFFCURVE",
"223 169 OFFCURVE",
"186 169 CURVE SMOOTH"
);
}
);
width = 347;
}
);
note = uni2086;
rightKerningGroup = quotesingle;
unicode = 2086;
},
{
glyphname = uni2087;
layers = (
{
layerId = "1510CF8D-377E-4EE5-87E7-F8F48863CF31";
name = Regular;
paths = (
{
closed = 1;
nodes = (
"309 378 LINE",
"139 0 LINE",
"62 0 LINE",
"201 308 LINE",
"42 308 LINE",
"42 378 LINE"
);
}
);
width = 332;
}
);
note = uni2087;
rightKerningGroup = quotesingle;
unicode = 2087;
},
{
glyphname = uni2088;
layers = (
{
layerId = "1510CF8D-377E-4EE5-87E7-F8F48863CF31";
name = Regular;
paths = (
{
closed = 1;
nodes = (
"91 -8 OFFCURVE",
"44 39 OFFCURVE",
"44 100 CURVE SMOOTH",
"44 141 OFFCURVE",
"65 175 OFFCURVE",
"107 204 CURVE",
"80 223 OFFCURVE",
"67 251 OFFCURVE",
"67 290 CURVE SMOOTH",
"67 346 OFFCURVE",
"103 386 OFFCURVE",
"188 386 CURVE SMOOTH",
"271 386 OFFCURVE",
"306 350 OFFCURVE",
"306 298 CURVE SMOOTH",
"306 262 OFFCURVE",
"289 232 OFFCURVE",
"256 208 CURVE",
"299 191 OFFCURVE",
"328 154 OFFCURVE",
"328 111 CURVE SMOOTH",
"328 48 OFFCURVE",
"276 -8 OFFCURVE",
"180 -8 CURVE SMOOTH"
);
},
{
closed = 1;
nodes = (
"150 330 OFFCURVE",
"132 314 OFFCURVE",
"132 283 CURVE SMOOTH",
"132 256 OFFCURVE",
"149 238 OFFCURVE",
"183 230 CURVE",
"220 239 OFFCURVE",
"238 257 OFFCURVE",
"238 285 CURVE SMOOTH",
"238 315 OFFCURVE",
"221 330 OFFCURVE",
"186 330 CURVE SMOOTH"
);
},
{
closed = 1;
nodes = (
"148 174 OFFCURVE",
"115 146 OFFCURVE",
"115 106 CURVE SMOOTH",
"115 70 OFFCURVE",
"140 49 OFFCURVE",
"183 49 CURVE SMOOTH",
"228 49 OFFCURVE",
"255 72 OFFCURVE",
"255 108 CURVE SMOOTH",
"255 147 OFFCURVE",
"227 171 OFFCURVE",
"188 179 CURVE"
);
}
);
width = 372;
}
);
note = uni2088;
rightKerningGroup = quotesingle;
unicode = 2088;
},
{
glyphname = uni2089;
layers = (
{
layerId = "1510CF8D-377E-4EE5-87E7-F8F48863CF31";
name = Regular;
paths = (
{
closed = 1;
nodes = (
"249 386 OFFCURVE",
"301 338 OFFCURVE",
"301 241 CURVE SMOOTH",
"301 113 OFFCURVE",
"205 0 OFFCURVE",
"126 0 CURVE",
"79 28 LINE",
"123 28 OFFCURVE",
"221 102 OFFCURVE",
"225 170 CURVE",
"212 157 OFFCURVE",
"189 151 OFFCURVE",
"154 151 CURVE SMOOTH",
"81 151 OFFCURVE",
"32 189 OFFCURVE",
"32 258 CURVE SMOOTH",
"32 329 OFFCURVE",
"90 386 OFFCURVE",
"174 386 CURVE SMOOTH"
);
},
{
closed = 1;
nodes = (
"202 209 OFFCURVE",
"230 228 OFFCURVE",
"230 267 CURVE SMOOTH",
"230 303 OFFCURVE",
"210 321 OFFCURVE",
"169 321 CURVE SMOOTH",
"129 321 OFFCURVE",
"105 293 OFFCURVE",
"105 261 CURVE SMOOTH",
"105 232 OFFCURVE",
"122 209 OFFCURVE",
"161 209 CURVE SMOOTH"
);
}
);
width = 346;
}
);
note = uni2089;
rightKerningGroup = quotesingle;
unicode = 2089;
},
{
glyphname = Euro;
layers = (
{
layerId = "1510CF8D-377E-4EE5-87E7-F8F48863CF31";
name = Regular;
paths = (
{
closed = 1;
nodes = (
"646 51 LINE",
"597 28 OFFCURVE",
"538 17 OFFCURVE",
"470 17 CURVE SMOOTH",
"334 17 OFFCURVE",
"225 90 OFFCURVE",
"174 215 CURVE",
"33 215 LINE",
"57 284 LINE",
"156 284 LINE",
"153 309 OFFCURVE",
"152 331 OFFCURVE",
"152 350 CURVE SMOOTH",
"152 374 LINE",
"63 374 LINE",
"85 438 LINE",
"161 438 LINE",
"198 591 OFFCURVE",
"317 683 OFFCURVE",
"470 683 CURVE SMOOTH",
"538 683 OFFCURVE",
"597 672 OFFCURVE",
"646 649 CURVE",
"634 551 LINE",
"574 576 OFFCURVE",
"519 589 OFFCURVE",
"470 589 CURVE SMOOTH",
"373 589 OFFCURVE",
"309 539 OFFCURVE",
"278 438 CURVE",
"536 438 LINE",
"512 374 LINE",
"268 374 LINE",
"268 350 LINE SMOOTH",
"268 327 OFFCURVE",
"270 305 OFFCURVE",
"273 284 CURVE",
"516 284 LINE",
"492 215 LINE",
"294 215 LINE",
"333 146 OFFCURVE",
"392 111 OFFCURVE",
"470 111 CURVE SMOOTH",
"519 111 OFFCURVE",
"574 124 OFFCURVE",
"634 149 CURVE"
);
}
);
width = 703;
}
);
note = Euro;
rightKerningGroup = quotesingle;
unicode = 20AC;
},
{
glyphname = trademark;
layers = (
{
layerId = "1510CF8D-377E-4EE5-87E7-F8F48863CF31";
name = Regular;
paths = (
{
closed = 1;
nodes = (
"489 443 LINE",
"483 443 LINE",
"391 606 LINE",
"358 337 LINE",
"306 337 LINE",
"353 700 LINE",
"382 700 LINE",
"487 521 LINE",
"591 700 LINE",
"620 700 LINE",
"668 337 LINE",
"614 337 LINE",
"583 605 LINE"
);
},
{
closed = 1;
nodes = (
"290 700 LINE",
"284 650 LINE",
"184 650 LINE",
"184 337 LINE",
"133 337 LINE",
"133 650 LINE",
"31 650 LINE",
"31 700 LINE"
);
}
);
width = 727;
}
);
leftKerningGroup = trademark;
note = trademark;
rightKerningGroup = trademark;
unicode = 2122;
},
{
glyphname = A.sc;
lastChange = "2015-10-19 22:36:54 +0000";
layers = (
{
anchors = (
{
name = bottom;
position = "{267, 0}";
},
{
name = ogonek;
position = "{481, 10}";
},
{
name = top;
position = "{267, 490}";
}
);
layerId = "1510CF8D-377E-4EE5-87E7-F8F48863CF31";
name = Regular;
paths = (
{
closed = 1;
nodes = (
"526 0 LINE",
"429 0 LINE",
"374 141 LINE",
"160 141 LINE",
"106 0 LINE",
"8 0 LINE",
"221 560 LINE",
"314 560 LINE"
);
},
{
closed = 1;
nodes = (
"343 229 LINE",
"267 418 LINE",
"191 229 LINE"
);
}
);
width = 534;
}
);
leftKerningGroup = A.sc;
note = A.sc;
rightKerningGroup = A.sc;
},
{
glyphname = AE.sc;
layers = (
{
layerId = "1510CF8D-377E-4EE5-87E7-F8F48863CF31";
name = Regular;
paths = (
{
closed = 1;
nodes = (
"705 0 LINE",
"335 0 LINE",
"335 138 LINE",
"160 138 LINE",
"86 0 LINE",
"-8 0 LINE",
"282 560 LINE",
"697 560 LINE",
"697 471 LINE",
"438 471 LINE",
"438 336 LINE",
"638 336 LINE",
"638 248 LINE",
"438 248 LINE",
"438 88 LINE",
"705 88 LINE"
);
},
{
closed = 1;
nodes = (
"335 228 LINE",
"335 469 LINE",
"203 228 LINE"
);
}
);
width = 742;
}
);
leftKerningGroup = AE.sc;
note = AE.sc;
rightKerningGroup = AE.sc;
},
{
glyphname = B.sc;
layers = (
{
layerId = "1510CF8D-377E-4EE5-87E7-F8F48863CF31";
name = Regular;
paths = (
{
closed = 1;
nodes = (
"74 0 LINE",
"74 560 LINE",
"220 560 LINE SMOOTH",
"375 560 OFFCURVE",
"446 531 OFFCURVE",
"446 418 CURVE SMOOTH",
"446 365 OFFCURVE",
"430 325 OFFCURVE",
"397 299 CURVE",
"469 274 OFFCURVE",
"498 234 OFFCURVE",
"498 165 CURVE SMOOTH",
"498 101 OFFCURVE",
"473 55 OFFCURVE",
"430 32 CURVE SMOOTH",
"387 9 OFFCURVE",
"343 0 OFFCURVE",
"290 0 CURVE SMOOTH"
);
},
{
closed = 1;
nodes = (
"167 480 LINE",
"167 332 LINE",
"270 332 LINE SMOOTH",
"327 332 OFFCURVE",
"355 357 OFFCURVE",
"355 406 CURVE SMOOTH",
"355 465 OFFCURVE",
"320 480 OFFCURVE",
"253 480 CURVE SMOOTH"
);
},
{
closed = 1;
nodes = (
"167 256 LINE",
"167 81 LINE",
"262 81 LINE SMOOTH",
"355 81 OFFCURVE",
"401 101 OFFCURVE",
"401 166 CURVE SMOOTH",
"401 226 OFFCURVE",
"363 256 OFFCURVE",
"287 256 CURVE SMOOTH"
);
}
);
width = 534;
}
);
leftKerningGroup = B.sc;
note = B.sc;
rightKerningGroup = B.sc;
},
{
glyphname = C.sc;
layers = (
{
layerId = "1510CF8D-377E-4EE5-87E7-F8F48863CF31";
name = Regular;
paths = (
{
closed = 1;
nodes = (
"162 -11 OFFCURVE",
"39 105 OFFCURVE",
"39 280 CURVE SMOOTH",
"39 455 OFFCURVE",
"162 571 OFFCURVE",
"335 571 CURVE SMOOTH",
"400 571 OFFCURVE",
"455 560 OFFCURVE",
"501 538 CURVE",
"491 451 LINE",
"431 472 OFFCURVE",
"379 483 OFFCURVE",
"335 483 CURVE SMOOTH",
"211 483 OFFCURVE",
"141 400 OFFCURVE",
"141 280 CURVE SMOOTH",
"141 160 OFFCURVE",
"211 77 OFFCURVE",
"336 77 CURVE SMOOTH",
"379 77 OFFCURVE",
"431 88 OFFCURVE",
"491 109 CURVE",
"501 21 LINE",
"453 0 OFFCURVE",
"398 -11 OFFCURVE",
"335 -11 CURVE SMOOTH"
);
}
);
width = 537;
}
);
leftKerningGroup = C.sc;
note = C.sc;
rightKerningGroup = C.sc;
},
{
glyphname = D.sc;
layers = (
{
layerId = "1510CF8D-377E-4EE5-87E7-F8F48863CF31";
name = Regular;
paths = (
{
closed = 1;
nodes = (
"74 0 LINE",
"74 560 LINE",
"295 560 LINE SMOOTH",
"470 560 OFFCURVE",
"590 453 OFFCURVE",
"590 280 CURVE SMOOTH",
"590 107 OFFCURVE",
"470 0 OFFCURVE",
"295 0 CURVE SMOOTH"
);
},
{
closed = 1;
nodes = (
"167 472 LINE",
"167 88 LINE",
"295 88 LINE SMOOTH",
"420 88 OFFCURVE",
"488 161 OFFCURVE",
"488 280 CURVE SMOOTH",
"488 399 OFFCURVE",
"420 472 OFFCURVE",
"295 472 CURVE SMOOTH"
);
}
);
width = 629;
}
);
leftKerningGroup = B.sc;
note = D.sc;
rightKerningGroup = D.sc;
},
{
glyphname = E.sc;
layers = (
{
layerId = "1510CF8D-377E-4EE5-87E7-F8F48863CF31";
name = Regular;
paths = (
{
closed = 1;
nodes = (
"453 0 LINE",
"74 0 LINE",
"74 560 LINE",
"445 560 LINE",
"445 472 LINE",
"169 472 LINE",
"169 336 LINE",
"386 336 LINE",
"386 248 LINE",
"169 248 LINE",
"169 88 LINE",
"453 88 LINE"
);
}
);
width = 490;
}
);
leftKerningGroup = E.sc;
note = E.sc;
rightKerningGroup = AE.sc;
},
{
glyphname = F.sc;
layers = (
{
layerId = "1510CF8D-377E-4EE5-87E7-F8F48863CF31";
name = Regular;
paths = (
{
closed = 1;
nodes = (
"438 472 LINE",
"167 472 LINE",
"167 336 LINE",
"377 336 LINE",
"377 248 LINE",
"167 248 LINE",
"167 0 LINE",
"74 0 LINE",
"74 560 LINE",
"438 560 LINE"
);
}
);
width = 459;
}
);
leftKerningGroup = B.sc;
note = F.sc;
rightKerningGroup = F.sc;
},
{
glyphname = G.sc;
layers = (
{
layerId = "1510CF8D-377E-4EE5-87E7-F8F48863CF31";
name = Regular;
paths = (
{
closed = 1;
nodes = (
"161 -11 OFFCURVE",
"39 105 OFFCURVE",
"39 281 CURVE SMOOTH",
"39 456 OFFCURVE",
"161 571 OFFCURVE",
"337 571 CURVE SMOOTH",
"406 571 OFFCURVE",
"465 560 OFFCURVE",
"514 539 CURVE",
"505 452 LINE",
"446 473 OFFCURVE",
"391 483 OFFCURVE",
"339 483 CURVE SMOOTH",
"208 483 OFFCURVE",
"141 402 OFFCURVE",
"141 282 CURVE SMOOTH",
"141 157 OFFCURVE",
"213 77 OFFCURVE",
"349 77 CURVE SMOOTH",
"382 77 OFFCURVE",
"413 81 OFFCURVE",
"440 88 CURVE",
"440 202 LINE",
"359 202 LINE",
"359 281 LINE",
"534 281 LINE",
"534 31 LINE",
"487 8 OFFCURVE",
"398 -11 OFFCURVE",
"330 -11 CURVE SMOOTH"
);
}
);
width = 583;
}
);
leftKerningGroup = C.sc;
note = G.sc;
rightKerningGroup = quotesingle;
},
{
glyphname = H.sc;
layers = (
{
layerId = "1510CF8D-377E-4EE5-87E7-F8F48863CF31";
name = Regular;
paths = (
{
closed = 1;
nodes = (
"572 0 LINE",
"479 0 LINE",
"479 248 LINE",
"167 248 LINE",
"167 0 LINE",
"74 0 LINE",
"74 560 LINE",
"167 560 LINE",
"167 337 LINE",
"479 337 LINE",
"479 560 LINE",
"572 560 LINE"
);
}
);
width = 646;
}
);
leftKerningGroup = B.sc;
note = H.sc;
rightKerningGroup = H.sc;
},
{
glyphname = I.sc;
layers = (
{
layerId = "1510CF8D-377E-4EE5-87E7-F8F48863CF31";
name = Regular;
paths = (
{
closed = 1;
nodes = (
"167 0 LINE",
"74 0 LINE",
"74 560 LINE",
"167 560 LINE"
);
}
);
width = 241;
}
);
leftKerningGroup = B.sc;
note = I.sc;
rightKerningGroup = H.sc;
},
{
glyphname = J.sc;
layers = (
{
layerId = "1510CF8D-377E-4EE5-87E7-F8F48863CF31";
name = Regular;
paths = (
{
closed = 1;
nodes = (
"7 -138 LINE",
"-2 -72 LINE",
"10 -72 LINE SMOOTH",
"59 -72 OFFCURVE",
"74 -51 OFFCURVE",
"74 1 CURVE SMOOTH",
"74 560 LINE",
"167 560 LINE",
"167 -22 LINE SMOOTH",
"167 -99 OFFCURVE",
"121 -138 OFFCURVE",
"28 -138 CURVE SMOOTH"
);
}
);
width = 241;
}
);
leftKerningGroup = J.sc;
note = J.sc;
rightKerningGroup = quotesingle;
},
{
glyphname = K.sc;
layers = (
{
layerId = "1510CF8D-377E-4EE5-87E7-F8F48863CF31";
name = Regular;
paths = (
{
closed = 1;
nodes = (
"512 0 LINE",
"410 0 LINE",
"195 296 LINE",
"410 560 LINE",
"512 560 LINE",
"297 296 LINE"
);
},
{
closed = 1;
nodes = (
"167 0 LINE",
"74 0 LINE",
"74 560 LINE",
"167 560 LINE"
);
}
);
width = 525;
}
);
leftKerningGroup = B.sc;
note = K.sc;
rightKerningGroup = K.sc;
},
{
glyphname = L.sc;
layers = (
{
layerId = "1510CF8D-377E-4EE5-87E7-F8F48863CF31";
name = Regular;
paths = (
{
closed = 1;
nodes = (
"428 0 LINE",
"74 0 LINE",
"74 560 LINE",
"167 560 LINE",
"167 88 LINE",
"428 88 LINE"
);
}
);
width = 440;
}
);
leftKerningGroup = B.sc;
note = L.sc;
rightKerningGroup = L.sc;
},
{
glyphname = M.sc;
layers = (
{
layerId = "1510CF8D-377E-4EE5-87E7-F8F48863CF31";
name = Regular;
paths = (
{
closed = 1;
nodes = (
"666 0 LINE",
"568 0 LINE",
"514 392 LINE",
"357 123 LINE",
"198 392 LINE",
"144 0 LINE",
"46 0 LINE",
"127 560 LINE",
"205 560 LINE",
"357 297 LINE",
"507 560 LINE",
"585 560 LINE"
);
}
);
width = 712;
}
);
leftKerningGroup = M.sc;
note = M.sc;
rightKerningGroup = M.sc;
},
{
glyphname = N.sc;
layers = (
{
layerId = "1510CF8D-377E-4EE5-87E7-F8F48863CF31";
name = Regular;
paths = (
{
closed = 1;
nodes = (
"540 0 LINE",
"462 0 LINE",
"167 405 LINE",
"167 0 LINE",
"74 0 LINE",
"74 560 LINE",
"170 560 LINE",
"446 178 LINE",
"446 560 LINE",
"540 560 LINE"
);
}
);
width = 614;
}
);
leftKerningGroup = B.sc;
note = N.sc;
rightKerningGroup = H.sc;
},
{
glyphname = O.sc;
lastChange = "2015-10-19 22:47:46 +0000";
layers = (
{
anchors = (
{
name = bottom;
position = "{333, 0}";
},
{
name = center;
position = "{333, 245}";
},
{
name = ogonek;
position = "{598, 10}";
},
{
name = top;
position = "{333, 490}";
},
{
name = topleft;
position = "{20, 490}";
},
{
name = topright;
position = "{645, 490}";
}
);
layerId = "1510CF8D-377E-4EE5-87E7-F8F48863CF31";
name = Regular;
paths = (
{
closed = 1;
nodes = (
"489 16 OFFCURVE",
"418 -11 OFFCURVE",
"332 -11 CURVE SMOOTH",
"160 -11 OFFCURVE",
"39 105 OFFCURVE",
"39 280 CURVE SMOOTH",
"39 455 OFFCURVE",
"160 571 OFFCURVE",
"332 571 CURVE SMOOTH",
"504 571 OFFCURVE",
"626 455 OFFCURVE",
"626 280 CURVE SMOOTH",
"626 193 OFFCURVE",
"599 122 OFFCURVE",
"544 69 CURVE SMOOTH"
);
},
{
closed = 1;
nodes = (
"441 464 OFFCURVE",
"393 483 OFFCURVE",
"332 483 CURVE SMOOTH",
"209 483 OFFCURVE",
"141 401 OFFCURVE",
"141 280 CURVE SMOOTH",
"141 159 OFFCURVE",
"209 77 OFFCURVE",
"332 77 CURVE SMOOTH",
"455 77 OFFCURVE",
"523 159 OFFCURVE",
"523 280 CURVE SMOOTH",
"523 341 OFFCURVE",
"507 390 OFFCURVE",
"474 427 CURVE SMOOTH"
);
}
);
width = 665;
}
);
leftKerningGroup = C.sc;
note = O.sc;
rightKerningGroup = O.sc;
},
{
glyphname = OE.sc;
layers = (
{
layerId = "1510CF8D-377E-4EE5-87E7-F8F48863CF31";
name = Regular;
paths = (
{
closed = 1;
nodes = (
"884 0 LINE",
"525 0 LINE",
"525 52 LINE",
"460 10 OFFCURVE",
"395 -11 OFFCURVE",
"329 -11 CURVE SMOOTH",
"158 -11 OFFCURVE",
"39 105 OFFCURVE",
"39 280 CURVE SMOOTH",
"39 455 OFFCURVE",
"158 571 OFFCURVE",
"329 571 CURVE SMOOTH",
"395 571 OFFCURVE",
"460 550 OFFCURVE",
"525 508 CURVE",
"525 560 LINE",
"876 560 LINE",
"876 472 LINE",
"618 472 LINE",
"618 336 LINE",
"817 336 LINE",
"817 248 LINE",
"618 248 LINE",
"618 88 LINE",
"884 88 LINE"
);
},
{
closed = 1;
nodes = (
"437 464 OFFCURVE",
"390 483 OFFCURVE",
"329 483 CURVE SMOOTH",
"206 483 OFFCURVE",
"139 401 OFFCURVE",
"139 280 CURVE SMOOTH",
"139 159 OFFCURVE",
"206 77 OFFCURVE",
"329 77 CURVE SMOOTH",
"452 77 OFFCURVE",
"518 159 OFFCURVE",
"518 280 CURVE SMOOTH",
"518 341 OFFCURVE",
"502 390 OFFCURVE",
"470 427 CURVE SMOOTH"
);
}
);
width = 921;
}
);
leftKerningGroup = C.sc;
note = OE.sc;
rightKerningGroup = AE.sc;
},
{
glyphname = P.sc;
layers = (
{
layerId = "1510CF8D-377E-4EE5-87E7-F8F48863CF31";
name = Regular;
paths = (
{
closed = 1;
nodes = (
"170 188 LINE",
"170 0 LINE",
"74 0 LINE",
"74 560 LINE",
"254 560 LINE SMOOTH",
"329 560 OFFCURVE",
"375 553 OFFCURVE",
"419 529 CURVE SMOOTH",
"462 505 OFFCURVE",
"483 457 OFFCURVE",
"483 384 CURVE SMOOTH",
"483 311 OFFCURVE",
"456 255 OFFCURVE",
"416 227 CURVE SMOOTH",
"375 199 OFFCURVE",
"334 188 OFFCURVE",
"289 188 CURVE SMOOTH"
);
},
{
closed = 1;
nodes = (
"170 481 LINE",
"170 274 LINE",
"274 274 LINE SMOOTH",
"354 274 OFFCURVE",
"387 306 OFFCURVE",
"387 382 CURVE SMOOTH",
"387 454 OFFCURVE",
"356 481 OFFCURVE",
"260 481 CURVE SMOOTH"
);
}
);
width = 510;
}
);
leftKerningGroup = B.sc;
note = P.sc;
rightKerningGroup = P.sc;
},
{
glyphname = Q.sc;
layers = (
{
layerId = "1510CF8D-377E-4EE5-87E7-F8F48863CF31";
name = Regular;
paths = (
{
closed = 1;
nodes = (
"619 58 LINE",
"567 -4 LINE",
"510 40 LINE",
"458 6 OFFCURVE",
"399 -11 OFFCURVE",
"332 -11 CURVE SMOOTH",
"160 -11 OFFCURVE",
"39 105 OFFCURVE",
"39 280 CURVE SMOOTH",
"39 455 OFFCURVE",
"160 571 OFFCURVE",
"332 571 CURVE SMOOTH",
"504 571 OFFCURVE",
"626 455 OFFCURVE",
"626 280 CURVE SMOOTH",
"626 212 OFFCURVE",
"606 152 OFFCURVE",
"567 99 CURVE"
);
},
{
closed = 1;
nodes = (
"209 483 OFFCURVE",
"141 401 OFFCURVE",
"141 280 CURVE SMOOTH",
"141 159 OFFCURVE",
"209 77 OFFCURVE",
"332 77 CURVE SMOOTH",
"376 77 OFFCURVE",
"412 85 OFFCURVE",
"441 100 CURVE",
"361 160 LINE",
"412 224 LINE",
"495 159 LINE",
"517 190 OFFCURVE",
"528 230 OFFCURVE",
"528 280 CURVE SMOOTH",
"528 401 OFFCURVE",
"456 483 OFFCURVE",
"332 483 CURVE SMOOTH"
);
}
);
width = 665;
}
);
leftKerningGroup = C.sc;
note = Q.sc;
rightKerningGroup = O.sc;
},
{
glyphname = R.sc;
layers = (
{
layerId = "1510CF8D-377E-4EE5-87E7-F8F48863CF31";
name = Regular;
paths = (
{
closed = 1;
nodes = (
"515 0 LINE",
"416 0 LINE",
"288 212 LINE",
"170 212 LINE",
"170 0 LINE",
"74 0 LINE",
"74 560 LINE",
"278 560 LINE SMOOTH",
"415 560 OFFCURVE",
"483 506 OFFCURVE",
"483 398 CURVE SMOOTH",
"483 325 OFFCURVE",
"448 271 OFFCURVE",
"378 236 CURVE"
);
},
{
closed = 1;
nodes = (
"170 483 LINE",
"170 300 LINE",
"276 300 LINE SMOOTH",
"345 300 OFFCURVE",
"386 333 OFFCURVE",
"386 393 CURVE SMOOTH",
"386 453 OFFCURVE",
"346 483 OFFCURVE",
"266 483 CURVE SMOOTH"
);
}
);
width = 537;
}
);
leftKerningGroup = B.sc;
note = R.sc;
rightKerningGroup = R.sc;
},
{
glyphname = S.sc;
layers = (
{
layerId = "1510CF8D-377E-4EE5-87E7-F8F48863CF31";
name = Regular;
paths = (
{
closed = 1;
nodes = (
"161 -11 OFFCURVE",
"95 2 OFFCURVE",
"50 28 CURVE",
"62 135 LINE",
"110 96 OFFCURVE",
"172 77 OFFCURVE",
"248 77 CURVE SMOOTH",
"332 77 OFFCURVE",
"374 100 OFFCURVE",
"374 147 CURVE SMOOTH",
"374 175 OFFCURVE",
"361 196 OFFCURVE",
"329 213 CURVE SMOOTH",
"297 229 OFFCURVE",
"278 236 OFFCURVE",
"227 251 CURVE SMOOTH",
"178 266 OFFCURVE",
"163 270 OFFCURVE",
"123 289 CURVE SMOOTH",
"83 308 OFFCURVE",
"68 323 OFFCURVE",
"53 354 CURVE",
"45 369 OFFCURVE",
"41 387 OFFCURVE",
"41 406 CURVE SMOOTH",
"41 491 OFFCURVE",
"108 571 OFFCURVE",
"256 571 CURVE SMOOTH",
"329 571 OFFCURVE",
"405 551 OFFCURVE",
"444 530 CURVE",
"434 434 LINE",
"367 467 OFFCURVE",
"310 484 OFFCURVE",
"262 484 CURVE SMOOTH",
"197 484 OFFCURVE",
"139 464 OFFCURVE",
"139 416 CURVE SMOOTH",
"139 373 OFFCURVE",
"180 354 OFFCURVE",
"264 331 CURVE SMOOTH",
"304 320 OFFCURVE",
"313 317 OFFCURVE",
"349 304 CURVE SMOOTH",
"385 291 OFFCURVE",
"398 283 OFFCURVE",
"424 264 CURVE SMOOTH",
"450 244 OFFCURVE",
"460 225 OFFCURVE",
"470 197 CURVE SMOOTH",
"475 182 OFFCURVE",
"477 166 OFFCURVE",
"477 149 CURVE SMOOTH",
"477 120 OFFCURVE",
"473 97 OFFCURVE",
"454 66 CURVE SMOOTH",
"434 35 OFFCURVE",
"406 15 OFFCURVE",
"348 0 CURVE SMOOTH",
"319 -7 OFFCURVE",
"285 -11 OFFCURVE",
"246 -11 CURVE SMOOTH"
);
}
);
width = 511;
}
);
leftKerningGroup = S.sc;
note = S.sc;
rightKerningGroup = quotesingle;
},
{
glyphname = T.sc;
layers = (
{
layerId = "1510CF8D-377E-4EE5-87E7-F8F48863CF31";
name = Regular;
paths = (
{
closed = 1;
nodes = (
"453 472 LINE",
"282 472 LINE",
"282 0 LINE",
"188 0 LINE",
"188 472 LINE",
"17 472 LINE",
"17 560 LINE",
"453 560 LINE"
);
}
);
width = 470;
}
);
leftKerningGroup = T.sc;
note = T.sc;
rightKerningGroup = T.sc;
},
{
glyphname = U.sc;
lastChange = "2015-10-19 22:47:42 +0000";
layers = (
{
anchors = (
{
name = bottom;
position = "{314, 0}";
},
{
name = ogonek;
position = "{564, 10}";
},
{
name = top;
position = "{314, 490}";
},
{
name = topright;
position = "{607, 490}";
}
);
layerId = "1510CF8D-377E-4EE5-87E7-F8F48863CF31";
name = Regular;
paths = (
{
closed = 1;
nodes = (
"150 -11 OFFCURVE",
"67 83 OFFCURVE",
"67 239 CURVE SMOOTH",
"67 560 LINE",
"160 560 LINE",
"160 274 LINE SMOOTH",
"160 150 OFFCURVE",
"195 77 OFFCURVE",
"314 77 CURVE SMOOTH",
"377 77 OFFCURVE",
"418 97 OFFCURVE",
"439 136 CURVE SMOOTH",
"460 175 OFFCURVE",
"467 215 OFFCURVE",
"467 274 CURVE SMOOTH",
"467 560 LINE",
"560 560 LINE",
"560 239 LINE SMOOTH",
"560 83 OFFCURVE",
"477 -11 OFFCURVE",
"314 -11 CURVE SMOOTH"
);
}
);
width = 627;
}
);
leftKerningGroup = U.sc;
note = U.sc;
rightKerningGroup = U.sc;
},
{
glyphname = V.sc;
layers = (
{
layerId = "1510CF8D-377E-4EE5-87E7-F8F48863CF31";
name = Regular;
paths = (
{
closed = 1;
nodes = (
"554 560 LINE",
"334 0 LINE",
"228 0 LINE",
"6 560 LINE",
"104 560 LINE",
"281 118 LINE",
"456 560 LINE"
);
}
);
width = 561;
}
);
leftKerningGroup = V.sc;
note = V.sc;
rightKerningGroup = V.sc;
},
{
glyphname = W.sc;
layers = (
{
layerId = "1510CF8D-377E-4EE5-87E7-F8F48863CF31";
name = Regular;
paths = (
{
closed = 1;
nodes = (
"822 560 LINE",
"648 0 LINE",
"555 0 LINE",
"419 404 LINE",
"279 0 LINE",
"184 0 LINE",
"17 560 LINE",
"115 560 LINE",
"241 135 LINE",
"382 556 LINE",
"456 556 LINE",
"601 142 LINE",
"724 560 LINE"
);
}
);
width = 835;
}
);
leftKerningGroup = W.sc;
note = W.sc;
rightKerningGroup = W.sc;
},
{
glyphname = X.sc;
layers = (
{
layerId = "1510CF8D-377E-4EE5-87E7-F8F48863CF31";
name = Regular;
paths = (
{
closed = 1;
nodes = (
"529 0 LINE",
"425 0 LINE",
"266 214 LINE",
"117 0 LINE",
"14 0 LINE",
"218 279 LINE",
"18 560 LINE",
"126 560 LINE",
"272 355 LINE",
"420 560 LINE",
"523 560 LINE",
"318 290 LINE"
);
}
);
width = 540;
}
);
leftKerningGroup = X.sc;
note = X.sc;
rightKerningGroup = X.sc;
},
{
glyphname = Y.sc;
layers = (
{
layerId = "1510CF8D-377E-4EE5-87E7-F8F48863CF31";
name = Regular;
paths = (
{
closed = 1;
nodes = (
"503 560 LINE",
"300 252 LINE",
"300 0 LINE",
"204 0 LINE",
"204 252 LINE",
"1 560 LINE",
"100 560 LINE",
"252 335 LINE",
"404 560 LINE"
);
}
);
width = 504;
}
);
leftKerningGroup = Y.sc;
note = Y.sc;
rightKerningGroup = Y.sc;
},
{
glyphname = Z.sc;
layers = (
{
layerId = "1510CF8D-377E-4EE5-87E7-F8F48863CF31";
name = Regular;
paths = (
{
closed = 1;
nodes = (
"468 560 LINE",
"169 88 LINE",
"430 88 LINE",
"430 0 LINE",
"15 0 LINE",
"314 472 LINE",
"53 472 LINE",
"53 560 LINE"
);
}
);
width = 483;
}
);
leftKerningGroup = Z.sc;
note = Z.sc;
rightKerningGroup = Z.sc;
},
{
glyphname = hungarumlautcomb;
lastChange = "2015-10-19 22:48:29 +0000";
layers = (
{
anchors = (
{
name = _top;
position = "{281, 490}";
},
{
name = top;
position = "{281, 732}";
}
);
layerId = "1510CF8D-377E-4EE5-87E7-F8F48863CF31";
name = Regular;
paths = (
{
closed = 1;
nodes = (
"482 660 LINE",
"295 596 LINE",
"295 637 LINE",
"482 732 LINE"
);
},
{
closed = 1;
nodes = (
"300 660 LINE",
"113 596 LINE",
"113 637 LINE",
"300 732 LINE"
);
}
);
width = 550;
}
);
unicode = 030B;
},
{
glyphname = caroncomb.alt;
lastChange = "2015-10-19 22:46:36 +0000";
layers = (
{
anchors = (
{
name = _topright;
position = "{237, 490}";
}
);
layerId = "1510CF8D-377E-4EE5-87E7-F8F48863CF31";
name = Regular;
paths = (
{
closed = 1;
nodes = (
"287 746 LINE",
"217 570 LINE",
"186 595 LINE",
"222 746 LINE"
);
}
);
width = 236;
}
);
},
{
glyphname = dieresiscomb.case;
lastChange = "2015-10-19 22:24:41 +0000";
layers = (
{
anchors = (
{
name = _top;
position = "{309, 700}";
},
{
name = top;
position = "{309, 910}";
}
);
layerId = "1510CF8D-377E-4EE5-87E7-F8F48863CF31";
name = Regular;
paths = (
{
closed = 1;
nodes = (
"433 810 LINE",
"363 810 LINE",
"363 910 LINE",
"433 910 LINE"
);
},
{
closed = 1;
nodes = (
"255 810 LINE",
"185 810 LINE",
"185 910 LINE",
"255 910 LINE"
);
}
);
width = 616;
}
);
},
{
glyphname = gravecomb.case;
lastChange = "2015-10-19 22:24:57 +0000";
layers = (
{
anchors = (
{
name = _top;
position = "{309, 700}";
},
{
name = top;
position = "{309, 942}";
}
);
layerId = "1510CF8D-377E-4EE5-87E7-F8F48863CF31";
name = Regular;
paths = (
{
closed = 1;
nodes = (
"402 806 LINE",
"215 870 LINE",
"215 942 LINE",
"402 847 LINE"
);
}
);
width = 616;
}
);
},
{
glyphname = acutecomb.case;
lastChange = "2015-10-19 22:24:53 +0000";
layers = (
{
anchors = (
{
name = _top;
position = "{309, 700}";
},
{
name = top;
position = "{309, 942}";
}
);
layerId = "1510CF8D-377E-4EE5-87E7-F8F48863CF31";
name = Regular;
paths = (
{
closed = 1;
nodes = (
"402 870 LINE",
"215 806 LINE",
"215 847 LINE",
"402 942 LINE"
);
}
);
width = 616;
}
);
},
{
glyphname = hungarumlautcomb.case;
lastChange = "2015-10-19 22:33:47 +0000";
layers = (
{
anchors = (
{
name = _top;
position = "{403, 700}";
},
{
name = top;
position = "{403, 942}";
}
);
layerId = "1510CF8D-377E-4EE5-87E7-F8F48863CF31";
name = Regular;
paths = (
{
closed = 1;
nodes = (
"610 870 LINE",
"423 806 LINE",
"423 847 LINE",
"610 942 LINE"
);
},
{
closed = 1;
nodes = (
"428 870 LINE",
"241 806 LINE",
"241 847 LINE",
"428 942 LINE"
);
}
);
width = 768;
}
);
},
{
glyphname = caroncomb.alt.case;
lastChange = "2015-10-19 22:41:07 +0000";
layers = (
{
anchors = (
{
name = _topright;
position = "{301, 700}";
}
);
layerId = "1510CF8D-377E-4EE5-87E7-F8F48863CF31";
name = Regular;
paths = (
{
closed = 1;
nodes = (
"337 699 LINE",
"267 523 LINE",
"236 548 LINE",
"272 699 LINE"
);
}
);
width = 501;
}
);
},
{
glyphname = circumflexcomb.case;
lastChange = "2015-10-19 22:24:48 +0000";
layers = (
{
anchors = (
{
name = _top;
position = "{309, 700}";
},
{
name = top;
position = "{309, 955}";
}
);
layerId = "1510CF8D-377E-4EE5-87E7-F8F48863CF31";
name = Regular;
paths = (
{
closed = 1;
nodes = (
"456 813 LINE",
"309 895 LINE",
"162 813 LINE",
"162 849 LINE",
"309 955 LINE",
"456 849 LINE"
);
}
);
width = 616;
}
);
},
{
glyphname = caroncomb.case;
lastChange = "2015-10-19 22:34:31 +0000";
layers = (
{
anchors = (
{
name = _top;
position = "{292, 700}";
},
{
name = top;
position = "{292, 950}";
}
);
layerId = "1510CF8D-377E-4EE5-87E7-F8F48863CF31";
name = Regular;
paths = (
{
closed = 1;
nodes = (
"439 909 LINE",
"292 810 LINE",
"145 909 LINE",
"145 950 LINE",
"292 874 LINE",
"439 950 LINE"
);
}
);
width = 584;
}
);
},
{
glyphname = ringcomb.case;
lastChange = "2015-10-19 22:25:57 +0000";
layers = (
{
anchors = (
{
name = _top;
position = "{309, 700}";
},
{
name = top;
position = "{309, 965}";
}
);
layerId = "1510CF8D-377E-4EE5-87E7-F8F48863CF31";
name = Regular;
paths = (
{
closed = 1;
nodes = (
"244 786 OFFCURVE",
"205 826 OFFCURVE",
"205 875 CURVE SMOOTH",
"205 924 OFFCURVE",
"244 965 OFFCURVE",
"309 965 CURVE SMOOTH",
"374 965 OFFCURVE",
"413 924 OFFCURVE",
"413 875 CURVE SMOOTH",
"413 826 OFFCURVE",
"376 786 OFFCURVE",
"309 786 CURVE SMOOTH"
);
},
{
closed = 1;
nodes = (
"340 929 OFFCURVE",
"326 934 OFFCURVE",
"309 934 CURVE SMOOTH",
"276 934 OFFCURVE",
"249 910 OFFCURVE",
"249 875 CURVE SMOOTH",
"249 839 OFFCURVE",
"277 815 OFFCURVE",
"309 815 CURVE SMOOTH",
"341 815 OFFCURVE",
"369 839 OFFCURVE",
"369 875 CURVE SMOOTH",
"369 892 OFFCURVE",
"363 907 OFFCURVE",
"352 918 CURVE"
);
}
);
width = 616;
}
);
},
{
glyphname = tildecomb.case;
lastChange = "2015-10-19 22:24:30 +0000";
layers = (
{
layerId = "1510CF8D-377E-4EE5-87E7-F8F48863CF31";
name = Regular;
paths = (
{
closed = 1;
nodes = (
"362 809 OFFCURVE",
"340 818 OFFCURVE",
"307 835 CURVE SMOOTH",
"274 852 OFFCURVE",
"253 860 OFFCURVE",
"243 860 CURVE SMOOTH",
"208 860 OFFCURVE",
"184 844 OFFCURVE",
"172 811 CURVE",
"136 820 LINE",
"151 880 OFFCURVE",
"198 910 OFFCURVE",
"239 910 CURVE SMOOTH",
"253 910 OFFCURVE",
"277 902 OFFCURVE",
"311 886 CURVE SMOOTH",
"345 869 OFFCURVE",
"368 861 OFFCURVE",
"379 861 CURVE SMOOTH",
"407 861 OFFCURVE",
"430 878 OFFCURVE",
"448 912 CURVE",
"482 903 LINE",
"467 846 OFFCURVE",
"426 809 OFFCURVE",
"375 809 CURVE SMOOTH"
);
}
);
width = 616;
}
);
},
